<svg width="14" height="22" viewBox="0 0 14 22" fill="none" xmlns="http://www.w3.org/2000/svg">
<path d="M5.99745 12.0023C4.88389 10.8887 4.63245 9.77514 4.57573 9.32899C4.55988 9.20563 4.60233 9.08192 4.69058 8.99428L5.59173 8.09354C5.72429 7.96106 5.74781 7.7546 5.64845 7.59569L4.21366 5.36777C4.10373 5.19181 3.87803 5.12831 3.69248 5.22113L1.38913 6.30592C1.23908 6.37981 1.15083 6.53923 1.16786 6.70561C1.28855 7.85216 1.78841 10.6707 4.55823 13.4407C7.32805 16.2107 10.1461 16.7104 11.2933 16.831C11.4597 16.8481 11.6191 16.7598 11.693 16.6098L12.7778 14.3064C12.8702 14.1213 12.8072 13.8962 12.6319 13.7861L10.404 12.3517C10.2452 12.2522 10.0388 12.2756 9.90617 12.408L9.00543 13.3091C8.91779 13.3974 8.79408 13.4398 8.67072 13.424C8.22457 13.3673 7.11101 13.1158 5.99745 12.0023Z" fill="white"/>
<path d="M10.4192 11.4023C10.1971 11.4023 10.0169 11.2222 10.0169 11C10.0151 9.33438 8.6653 7.98463 6.99971 7.98274C6.77753 7.98274 6.59741 7.80263 6.59741 7.58044C6.59741 7.35826 6.77753 7.17815 6.99971 7.17815C9.10948 7.18047 10.8192 8.8902 10.8215 11C10.8215 11.2222 10.6414 11.4023 10.4192 11.4023Z" fill="white"/>
<path d="M12.4307 11.4023C12.2086 11.4023 12.0284 11.2222 12.0284 11C12.0253 8.22398 9.77572 5.97436 6.99971 5.97126C6.77753 5.97126 6.59741 5.79115 6.59741 5.56896C6.59741 5.34678 6.77753 5.16666 6.99971 5.16666C10.2199 5.17021 12.8295 7.7798 12.833 11C12.833 11.1067 12.7907 11.209 12.7152 11.2845C12.6398 11.3599 12.5374 11.4023 12.4307 11.4023Z" fill="white"/>
</svg>
