<svg width="14" height="22" viewBox="0 0 14 22" fill="none" xmlns="http://www.w3.org/2000/svg">
<path fill-rule="evenodd" clip-rule="evenodd" d="M3.09178 5.16666H3.41673H11.3334H11.6667C12.3111 5.16666 12.8334 5.68899 12.8334 6.33332V15.6667C12.8334 16.311 12.3111 16.8333 11.6667 16.8333H11.3334H3.41676H3.09178C2.44744 16.8333 1.92511 16.311 1.92511 15.6667V15.5295C1.91959 15.4788 1.91675 15.4272 1.91675 15.375V14.6458H1.16675V13.1875H1.91675V11.7292H1.16675V10.2708H1.91675V8.81249H1.16675V7.35416H1.91673V6.62499C1.91673 6.57271 1.91957 6.52106 1.92511 6.4702V6.33332C1.92511 5.68899 2.44744 5.16666 3.09178 5.16666ZM7.37505 7.42707C8.20233 7.42707 8.87509 8.08111 8.87509 8.88541C8.87509 9.6897 8.20233 10.3437 7.37505 10.3437C6.54777 10.3437 5.87506 9.6897 5.87506 8.88541C5.87506 8.08111 6.54777 7.42707 7.37505 7.42707ZM10 13.1875H4.75006V12.4583C4.75006 11.9531 5.1104 11.5141 5.7143 11.2837C6.68479 10.9128 8.06502 10.9128 9.03621 11.2837C9.63972 11.5141 10 11.9531 10 12.4583V13.1875Z" fill="white"/>
</svg>
