<svg width="12" height="13" viewBox="0 0 12 13" fill="none" xmlns="http://www.w3.org/2000/svg">
<path fill-rule="evenodd" clip-rule="evenodd" d="M2.09202 0.669434H2.41698H10.3337H10.667C11.3113 0.669434 11.8337 1.19177 11.8337 1.8361V11.1694C11.8337 11.8138 11.3113 12.3361 10.667 12.3361H10.3337H2.417H2.09202C1.44769 12.3361 0.925355 11.8138 0.925355 11.1694V11.0323C0.91983 10.9815 0.916996 10.93 0.916996 10.8778V10.1486H0.166992V8.69027H0.916996V7.23193H0.166992V5.7736H0.916996V4.31527H0.166992V2.85693H0.916972V2.12777C0.916972 2.07549 0.919813 2.02384 0.925355 1.97297V1.8361C0.925355 1.19177 1.44769 0.669434 2.09202 0.669434ZM6.37529 2.92985C7.20258 2.92985 7.87533 3.58389 7.87533 4.38818C7.87533 5.19248 7.20258 5.84652 6.37529 5.84652C5.54801 5.84652 4.87531 5.19248 4.87531 4.38818C4.87531 3.58389 5.54801 2.92985 6.37529 2.92985ZM9.00029 8.69027H3.7503V7.9611C3.7503 7.45588 4.11065 7.01686 4.71455 6.7865C5.68503 6.41556 7.06526 6.41556 8.03645 6.7865C8.63997 7.01686 9.00029 7.45588 9.00029 7.9611V8.69027Z" fill="white"/>
</svg>
