<svg width="14" height="22" viewBox="0 0 14 22" fill="none" xmlns="http://www.w3.org/2000/svg">
<path d="M12.9404 10.9043L7.30894 5.27699C7.26839 5.23637 7.22023 5.20413 7.16721 5.18214C7.11419 5.16015 7.05735 5.14883 6.99995 5.14883C6.94255 5.14883 6.88572 5.16015 6.8327 5.18214C6.77968 5.20413 6.73151 5.23637 6.69097 5.27699L1.05952 10.9043C0.895459 11.0684 0.80249 11.2913 0.80249 11.5237C0.80249 12.0063 1.19487 12.3987 1.67749 12.3987H2.27085V16.4141C2.27085 16.6561 2.46636 16.8516 2.70835 16.8516H6.12495V13.7891H7.6562V16.8516H11.2916C11.5335 16.8516 11.7291 16.6561 11.7291 16.4141V12.3987H12.3224C12.5548 12.3987 12.7777 12.3071 12.9417 12.1416C13.2822 11.7998 13.2822 11.2461 12.9404 10.9043Z" fill="white"/>
</svg>
