<svg width="14" height="22" viewBox="0 0 14 22" fill="none" xmlns="http://www.w3.org/2000/svg">
<path fill-rule="evenodd" clip-rule="evenodd" d="M1.35484 5.67931H9.70968C10.4568 5.67931 11.0645 6.28701 11.0645 7.03414V11.889C11.0645 12.6361 10.4568 13.2438 9.70968 13.2438H5.40863C5.37931 13.2659 5.36315 13.2781 5.347 13.2902C5.26411 13.3527 5.18126 13.4152 3.3202 14.8183C3.02606 15.0397 2.60471 14.8341 2.59677 14.4671L2.57081 13.2438H1.35484C0.607702 13.2438 0 12.6361 0 11.889V7.03414C0 6.28701 0.607702 5.67931 1.35484 5.67931ZM14 13.5825V9.85672C14 9.10846 13.3934 8.50189 12.6452 8.50189H12.1794C11.93 8.50189 11.7278 8.70407 11.7278 8.9535V12.218C11.7278 13.0942 11.0176 13.8044 10.1414 13.8044H6.03259C5.6171 13.8044 5.42263 14.3175 5.73275 14.594C5.97219 14.8075 6.28769 14.9374 6.63306 14.9374H8.61282C10.6497 16.2126 10.7723 16.3135 10.8999 16.3202C10.9159 16.3211 10.9318 16.3204 10.9516 16.3204C11.1954 16.3204 11.3968 16.1257 11.4032 15.8804L11.4272 14.9374H12.6452C13.3934 14.9374 14 14.3308 14 13.5825ZM4.66662 10.004L7.0852 7.58523V7.58552C7.11226 7.55841 7.1444 7.53691 7.17978 7.52223C7.21516 7.50756 7.25309 7.50001 7.29139 7.50001C7.32969 7.50001 7.36762 7.50756 7.403 7.52223C7.43838 7.53691 7.47052 7.55841 7.49758 7.58552C7.52476 7.61254 7.54632 7.64467 7.56104 7.68006C7.57576 7.71545 7.58333 7.7534 7.58333 7.79173C7.58333 7.83005 7.57576 7.868 7.56104 7.90339C7.54632 7.93878 7.52476 7.97091 7.49758 7.99793L5.079 10.4167H6.12482C6.20217 10.4167 6.27635 10.4474 6.33105 10.5021C6.38574 10.5568 6.41647 10.631 6.41647 10.7083C6.41647 10.7857 6.38574 10.8599 6.33105 10.9146C6.27635 10.9693 6.20217 11 6.12482 11H4.37497V10.9997C4.29767 10.9996 4.22358 10.9688 4.16892 10.9141C4.11426 10.8595 4.08349 10.7854 4.08333 10.7081V8.95808C4.08333 8.88073 4.11406 8.80654 4.16875 8.75184C4.22345 8.69715 4.29763 8.66642 4.37497 8.66642C4.45232 8.66642 4.5265 8.69715 4.5812 8.75184C4.63589 8.80654 4.66662 8.88073 4.66662 8.95808V10.004Z" fill="white"/>
</svg>
