<svg width="14" height="22" viewBox="0 0 14 22" fill="none" xmlns="http://www.w3.org/2000/svg">
<g clip-path="url(#clip0)">
<path d="M12.882 11.3469L9.02124 4.65873C8.79332 4.26509 8.28916 4.13394 7.90012 4.3579C7.50845 4.5847 7.37379 5.08727 7.59969 5.47912L11.4613 12.1671C11.6875 12.5589 12.1899 12.6936 12.5818 12.4673C12.9747 12.2405 13.1088 11.7397 12.882 11.3469Z" fill="white"/>
<path d="M7.01304 6.10336L6.92003 6.29171C6.26561 7.61552 5.22997 8.76224 4.02222 9.59296L6.12291 13.2315C7.44603 12.601 8.94352 12.2543 10.4173 12.3492L10.6273 12.3629L7.01304 6.10336Z" fill="white"/>
<path d="M3.33679 10.0465L0.850228 11.4818C0.26266 11.821 0.0591482 12.5728 0.399792 13.1628L1.22002 14.5835C1.55925 15.1711 2.31107 15.3746 2.90107 15.0339L5.38751 13.5984L3.33679 10.0465ZM2.7912 13.2032C2.59499 13.3165 2.34426 13.2493 2.23097 13.0531C2.11769 12.8569 2.18487 12.6061 2.38109 12.4928L3.09142 12.0827C3.28764 11.9694 3.53837 12.0366 3.65165 12.2328C3.76494 12.429 3.69775 12.6798 3.50154 12.7931L2.7912 13.2032Z" fill="white"/>
<path d="M6.45987 16.2134L7.14321 15.8189C7.73324 15.4783 7.93329 14.7256 7.59356 14.1383L7.3006 13.6304C7.03952 13.7197 6.78496 13.8246 6.53335 13.9419L6.88312 14.5487C6.99635 14.7437 6.93046 14.9939 6.73312 15.1086L6.03849 15.5096L5.4424 14.5139L4.02166 15.3341L5.35247 17.5576C5.57681 17.9473 6.08 18.084 6.47263 17.8573C6.86459 17.631 6.99925 17.1284 6.77296 16.7364L6.45987 16.2134Z" fill="white"/>
<path d="M11.2114 4.88139C10.9924 4.82272 10.7677 4.95244 10.709 5.17142L10.4967 5.96378C10.438 6.18276 10.5678 6.40744 10.7867 6.46612C11.0057 6.5248 11.2304 6.39508 11.2891 6.17609L11.5014 5.38373C11.5601 5.16475 11.4303 4.94007 11.2114 4.88139Z" fill="white"/>
<path d="M13.5316 8.90024L12.7392 8.68793C12.5202 8.62925 12.2955 8.75897 12.2369 8.97795C12.1782 9.19694 12.3079 9.42161 12.5269 9.48029L13.3192 9.6926C13.5382 9.75128 13.7629 9.62156 13.8216 9.40258C13.8803 9.1836 13.7505 8.95892 13.5316 8.90024Z" fill="white"/>
<path d="M13.6253 6.50198C13.512 6.30577 13.2613 6.23859 13.0651 6.35187L12.0604 6.93192C11.8642 7.04521 11.797 7.29594 11.9103 7.49215C12.0236 7.68836 12.2743 7.75557 12.4705 7.64226L13.4752 7.06221C13.6714 6.94893 13.7386 6.6982 13.6253 6.50198Z" fill="white"/>
</g>
<defs>
<clipPath id="clip0">
<rect width="14" height="14" fill="white" transform="translate(0 4)"/>
</clipPath>
</defs>
</svg>
