<svg width="14" height="22" viewBox="0 0 14 22" fill="none" xmlns="http://www.w3.org/2000/svg">
<path fill-rule="evenodd" clip-rule="evenodd" d="M10.2407 4.72916C9.99913 4.72916 9.80324 4.92503 9.80324 5.16666V16.3961H8.40966V9.05573C8.40966 8.81411 8.21378 8.61823 7.97216 8.61823H6.02768C5.78603 8.61823 5.59015 8.81411 5.59015 9.05573V16.3961H4.19663V12.2966C4.19663 12.0549 4.00075 11.8591 3.75913 11.8591H1.81465C1.57302 11.8591 1.37715 12.0549 1.37715 12.2966V16.3961H0.518311C0.276686 16.3961 0.0808105 16.592 0.0808105 16.8336C0.0808105 17.0752 0.276686 17.2711 0.518311 17.2711H1.80753L1.81465 17.2712H3.75913L3.76625 17.2711H6.0205L6.02768 17.2712H7.97216L7.97928 17.2711H13.4815C13.7231 17.2711 13.919 17.0752 13.919 16.8336C13.919 16.592 13.7231 16.3961 13.4815 16.3961H12.6227V5.16666C12.6227 4.92503 12.4268 4.72916 12.1852 4.72916H10.2407Z" fill="white"/>
</svg>
