<svg width="14" height="13" viewBox="0 0 14 13" fill="none" xmlns="http://www.w3.org/2000/svg">
<path fill-rule="evenodd" clip-rule="evenodd" d="M10.241 0.231934C9.99937 0.231934 9.80349 0.427811 9.80349 0.669434V11.8989H8.4099V4.55851C8.4099 4.31689 8.21402 4.12101 7.9724 4.12101H6.02792C5.78627 4.12101 5.59039 4.31689 5.59039 4.55851V11.8989H4.19687V7.79934C4.19687 7.55767 4.00099 7.36184 3.75937 7.36184H1.81489C1.57327 7.36184 1.37739 7.55767 1.37739 7.79934V11.8989H0.518555C0.27693 11.8989 0.0810547 12.0948 0.0810547 12.3364C0.0810547 12.578 0.27693 12.7739 0.518555 12.7739H1.80777L1.81489 12.774H3.75937L3.76649 12.7739H6.02075L6.02792 12.774H7.9724L7.97952 12.7739H13.4818C13.7234 12.7739 13.9193 12.578 13.9193 12.3364C13.9193 12.0948 13.7234 11.8989 13.4818 11.8989H12.623V0.669434C12.623 0.427811 12.4271 0.231934 12.1855 0.231934H10.241Z" fill="white"/>
</svg>
