<svg width="14" height="22" viewBox="0 0 14 22" fill="none" xmlns="http://www.w3.org/2000/svg">
<g clip-path="url(#clip0)">
<path fill-rule="evenodd" clip-rule="evenodd" d="M4.6182 5.45834C4.45712 5.45834 4.32653 5.58893 4.32653 5.75001V8.81246C4.32653 8.97355 4.45712 9.10412 4.6182 9.10412H6.65009V10.8445H3.25708C3.06378 10.8445 2.90708 11.0012 2.90708 11.1945V13.2846H0.875163C0.714081 13.2846 0.583496 13.4152 0.583496 13.5763V16.6387C0.583496 16.7999 0.714081 16.9304 0.875163 16.9304H5.63897C5.80006 16.9304 5.93067 16.7999 5.93067 16.6387V13.5763C5.93067 13.4152 5.80006 13.2846 5.63897 13.2846H3.60708V11.5445H7.00009H10.3931V13.2846H8.36118C8.20007 13.2846 8.06952 13.4152 8.06952 13.5763V16.6387C8.06952 16.7999 8.20007 16.9304 8.36118 16.9304H13.125C13.286 16.9304 13.4166 16.7999 13.4166 16.6387V13.5763C13.4166 13.4152 13.286 13.2846 13.125 13.2846H11.0931V11.1945C11.0931 11.0012 10.9364 10.8445 10.7431 10.8445H7.35009V9.10412H9.38202C9.54308 9.10412 9.67369 8.97355 9.67369 8.81246V5.75001C9.67369 5.58893 9.54308 5.45834 9.38202 5.45834H4.6182Z" fill="white"/>
</g>
<defs>
<clipPath id="clip0">
<rect width="14" height="14" fill="white" transform="translate(0 4)"/>
</clipPath>
</defs>
</svg>
