<svg width="14" height="22" viewBox="0 0 14 22" fill="none" xmlns="http://www.w3.org/2000/svg">
<path d="M7 13.8711C8.58312 13.8711 9.87109 12.5831 9.87109 11V6.87109C9.87109 5.28797 8.58312 4 7 4C5.41688 4 4.12891 5.28797 4.12891 6.87109V11C4.12891 12.5831 5.41688 13.8711 7 13.8711Z" fill="white"/>
<path d="M11.1016 9.76953C10.875 9.76953 10.6914 9.95317 10.6914 10.1797V11C10.6914 13.0354 9.03544 14.6914 7 14.6914C4.96456 14.6914 3.30859 13.0354 3.30859 11V10.1797C3.30859 9.95317 3.12495 9.76953 2.89844 9.76953C2.67192 9.76953 2.48828 9.95317 2.48828 10.1797V11C2.48828 13.3495 4.2936 15.285 6.58984 15.4929V17.1797H4.53906C4.31255 17.1797 4.12891 17.3633 4.12891 17.5898C4.12891 17.8164 4.31255 18 4.53906 18H9.46094C9.68745 18 9.87109 17.8164 9.87109 17.5898C9.87109 17.3633 9.68745 17.1797 9.46094 17.1797H7.41016V15.4929C9.7064 15.285 11.5117 13.3495 11.5117 11V10.1797C11.5117 9.95317 11.3281 9.76953 11.1016 9.76953Z" fill="white"/>
<path d="M2.89844 8.12891C3.12495 8.12891 3.30859 7.94527 3.30859 7.71875V5.66797C3.30859 5.44145 3.12495 5.25781 2.89844 5.25781C2.67192 5.25781 2.48828 5.44145 2.48828 5.66797V7.71875C2.48828 7.94527 2.67192 8.12891 2.89844 8.12891Z" fill="white"/>
<path d="M1.25781 4C1.0313 4 0.847656 4.18364 0.847656 4.41016V8.94922C0.847656 9.17573 1.0313 9.35938 1.25781 9.35938C1.48433 9.35938 1.66797 9.17573 1.66797 8.94922V4.41016C1.66797 4.18364 1.48433 4 1.25781 4Z" fill="white"/>
<path d="M11.1016 5.25781C10.875 5.25781 10.6914 5.44145 10.6914 5.66797V7.71875C10.6914 7.94527 10.875 8.12891 11.1016 8.12891C11.3281 8.12891 11.5117 7.94527 11.5117 7.71875V5.66797C11.5117 5.44145 11.3281 5.25781 11.1016 5.25781Z" fill="white"/>
<path d="M12.7422 4C12.5157 4 12.332 4.18364 12.332 4.41016V8.94922C12.332 9.17573 12.5157 9.35938 12.7422 9.35938C12.9687 9.35938 13.1523 9.17573 13.1523 8.94922V4.41016C13.1523 4.18364 12.9687 4 12.7422 4Z" fill="white"/>
</svg>
