<svg width="17" height="16" viewBox="0 0 17 16" fill="none" xmlns="http://www.w3.org/2000/svg">
<path d="M3.95921 12.284C3.99492 12.284 4.03064 12.2805 4.06635 12.2751L7.06992 11.7483C7.10564 11.7412 7.13957 11.7251 7.16457 11.6983L14.7342 4.12868C14.7508 4.11216 14.7639 4.09254 14.7729 4.07094C14.7818 4.04934 14.7864 4.02618 14.7864 4.00279C14.7864 3.9794 14.7818 3.95625 14.7729 3.93464C14.7639 3.91304 14.7508 3.89342 14.7342 3.8769L11.7664 0.907254C11.7324 0.873326 11.6878 0.855469 11.6396 0.855469C11.5914 0.855469 11.5467 0.873326 11.5128 0.907254L3.94314 8.4769C3.91635 8.50368 3.90028 8.53583 3.89314 8.57154L3.36635 11.5751C3.34898 11.6708 3.35519 11.7692 3.38443 11.862C3.41368 11.9547 3.46509 12.0389 3.53421 12.1073C3.65207 12.2215 3.80028 12.284 3.95921 12.284ZM5.16278 9.16975L11.6396 2.69475L12.9485 4.00368L6.47171 10.4787L4.88421 10.759L5.16278 9.16975ZM15.0717 13.784H1.92885C1.61278 13.784 1.35742 14.0394 1.35742 14.3555V14.9983C1.35742 15.0769 1.42171 15.1412 1.50028 15.1412H15.5003C15.5789 15.1412 15.6431 15.0769 15.6431 14.9983V14.3555C15.6431 14.0394 15.3878 13.784 15.0717 13.784Z" fill="#127ACE"/>
</svg>
