<svg width="16" height="16" viewBox="0 0 16 16" fill="none" xmlns="http://www.w3.org/2000/svg">
        <path d="M8 0C10.1217 0 12.1566 0.842855 13.6569 2.34315C15.1571 3.84344 16 5.87827 16 8C16 10.1217 15.1571 12.1566 13.6569 13.6569C12.1566 15.1571 10.1217 16 8 16C5.87827 16 3.84344 15.1571 2.34315 13.6569C0.842855 12.1566 0 10.1217 0 8H0C0 5.87827 0.842855 3.84344 2.34315 2.34315C3.84344 0.842855 5.87827 0 8 0V0Z" fill="#C4C4C4" />
        <path d="M8 0C10.1217 0 12.1566 0.842855 13.6569 2.34315C15.1571 3.84344 16 5.87827 16 8C16 10.1217 15.1571 12.1566 13.6569 13.6569C12.1566 15.1571 10.1217 16 8 16C5.87827 16 3.84344 15.1571 2.34315 13.6569C0.842855 12.1566 0 10.1217 0 8H0C0 5.87827 0.842855 3.84344 2.34315 2.34315C3.84344 0.842855 5.87827 0 8 0V0Z" fill="#2F7CBA" />
        <path d="M4.34223 4.51558C5.03985 4.12 5.82916 3.91462 6.63112 3.92003C8.93779 3.92003 10.6889 5.50669 10.6889 7.33336C10.6889 9.16003 8.93779 10.7556 6.63112 10.7556C6.06818 10.7549 5.50985 10.6541 4.98223 10.4578L4.74668 10.3689L4.55112 10.5245C4.28437 10.7493 3.96465 10.9023 3.62223 10.9689C3.77875 10.715 3.86182 10.4227 3.86223 10.1245C3.86488 10.0786 3.86488 10.0326 3.86223 9.98669L3.84001 9.8178L3.71112 9.70669C3.35929 9.41793 3.0745 9.05609 2.8765 8.64627C2.67849 8.23644 2.57201 7.78845 2.56445 7.33336C2.57279 6.88058 2.67876 6.43495 2.87513 6.02688C3.07149 5.61882 3.35361 5.25795 3.70223 4.96891H3.73334C3.82032 4.88899 3.91236 4.81476 4.0089 4.74669C4.11556 4.64891 4.22223 4.58669 4.34223 4.51558Z" fill="white" />
        <path d="M10.9777 6.32422C11.0816 6.65042 11.134 6.99078 11.1333 7.33311C11.1333 9.46644 9.11995 11.1998 6.63106 11.1998H6.39551C6.7889 11.793 7.32732 12.2758 7.9597 12.6025C8.59207 12.9292 9.29742 13.0889 10.0088 13.0664C10.5722 13.0661 11.1308 12.9637 11.6577 12.7642L11.8933 12.6753L12.0888 12.8353C12.3562 13.0592 12.6757 13.212 13.0177 13.2798C12.8597 13.0266 12.7765 12.7338 12.7777 12.4353C12.7752 12.388 12.7752 12.3405 12.7777 12.2931L12.8 12.1287L12.9333 11.9998C13.2828 11.7122 13.5659 11.3524 13.7631 10.945C13.9603 10.5376 14.0669 10.0923 14.0755 9.63977C14.0669 9.18705 13.9608 8.74151 13.7644 8.33349C13.5681 7.92547 13.2861 7.56456 12.9377 7.27533L12.8888 7.25311C12.7866 7.16866 12.7022 7.09755 12.6133 7.03089C12.5244 6.96422 12.4133 6.90644 12.2933 6.83533C11.8858 6.59399 11.4413 6.42132 10.9777 6.32422Z" fill="white" />
    </svg>