<svg width="16" height="16" viewBox="0 0 16 16" fill="none" xmlns="http://www.w3.org/2000/svg">
<path d="M8 16C12.4183 16 16 12.4183 16 8C16 3.58172 12.4183 0 8 0C3.58172 0 0 3.58172 0 8C0 12.4183 3.58172 16 8 16Z" fill="white"/>
<path d="M12.0959 6.28077L11.5848 7.11188L10.1137 9.44077C10.0282 9.59088 9.90568 9.71664 9.75788 9.8061C9.61008 9.89555 9.44187 9.94574 9.26922 9.95188C9.04039 9.95736 8.81591 9.88877 8.62922 9.75633L7.05144 8.57411C6.97158 8.50759 6.87093 8.47116 6.767 8.47116C6.66306 8.47116 6.56241 8.50759 6.48255 8.57411L4.39811 10.1385C4.36068 10.173 4.31638 10.1991 4.26811 10.2152C4.21985 10.2313 4.16872 10.237 4.11811 10.2319C4.06483 10.2239 4.01438 10.2028 3.97131 10.1704C3.92825 10.138 3.89392 10.0954 3.87143 10.0465C3.84893 9.99753 3.83899 9.94375 3.84248 9.88999C3.84597 9.83623 3.8628 9.78418 3.89144 9.73855L4.24255 9.18299L5.87366 6.59188C5.95574 6.45022 6.07023 6.33003 6.20775 6.24118C6.34527 6.15234 6.50189 6.09736 6.66477 6.08077C6.79046 6.06328 6.91837 6.07077 7.04115 6.1028C7.16394 6.13483 7.2792 6.19078 7.38033 6.26744L8.967 7.44966C9.04404 7.52025 9.14473 7.5594 9.24922 7.5594C9.35371 7.5594 9.4544 7.52025 9.53144 7.44966C10.2337 6.91633 10.9359 6.39188 11.6292 5.85411C11.6731 5.81524 11.7266 5.78882 11.7842 5.77758C11.8417 5.76634 11.9012 5.7707 11.9565 5.79019C12.0118 5.80968 12.0609 5.8436 12.0987 5.88844C12.1365 5.93328 12.1616 5.98741 12.1714 6.04522C12.1769 6.13046 12.15 6.21463 12.0959 6.28077Z" fill="white"/>
<path d="M7.6213 1.15625H8.37686H8.4213C8.62369 1.16448 8.82547 1.18377 9.02575 1.21403C9.74882 1.31119 10.4522 1.52115 11.1102 1.83625C12.131 2.31235 13.0095 3.04735 13.6582 3.96818C14.3069 4.88902 14.7033 5.96361 14.808 7.08514C14.808 7.20069 14.8302 7.31625 14.8391 7.4318V8.16069C14.837 8.17692 14.837 8.19335 14.8391 8.20958C14.8281 8.45106 14.8013 8.69157 14.7591 8.92958C14.535 10.3781 13.8175 11.7047 12.728 12.6851C12.0715 13.2775 11.302 13.731 10.4657 14.0185C9.4805 14.3614 8.43413 14.4931 7.39464 14.4051C6.94402 14.3746 6.49746 14.3002 6.0613 14.1829C5.90373 14.1366 5.73467 14.1492 5.58575 14.2185C5.14105 14.4794 4.66846 14.6896 4.17686 14.8451C4.10916 14.8562 4.04011 14.8562 3.97241 14.8451C3.83895 14.8212 3.71929 14.7482 3.63702 14.6404C3.55475 14.5326 3.51584 14.398 3.52797 14.2629C3.52797 13.8718 3.52797 13.4851 3.49241 13.0985C3.4929 13.0296 3.47936 12.9614 3.45262 12.898C3.42587 12.8346 3.38648 12.7773 3.33686 12.7296L3.18575 12.5918C2.56359 12.0037 2.06628 11.2963 1.72352 10.5118C1.4408 9.87198 1.26369 9.19054 1.19908 8.49403C1.19908 8.38292 1.19908 8.27181 1.16797 8.16069V7.4318C1.17011 7.41409 1.17011 7.39619 1.16797 7.37847C1.17555 7.13989 1.20081 6.90221 1.24352 6.66736C1.48731 5.06603 2.33497 3.61882 3.61241 2.62292C4.66059 1.80106 5.92542 1.30223 7.25241 1.18736L7.6213 1.15625ZM9.27019 9.92958C9.44284 9.92344 9.61106 9.87325 9.75885 9.7838C9.90665 9.69434 10.0291 9.56858 10.1146 9.41847L11.5857 7.1118L12.0969 6.30292C12.1446 6.23426 12.1652 6.15032 12.1546 6.06736C12.1448 6.00955 12.1197 5.95543 12.0819 5.91059C12.0441 5.86575 11.995 5.83182 11.9397 5.81233C11.8844 5.79284 11.8249 5.78849 11.7674 5.79973C11.7098 5.81096 11.6563 5.83738 11.6124 5.87625C10.9191 6.41403 10.2169 6.93847 9.51464 7.4718C9.43759 7.54239 9.3369 7.58154 9.23241 7.58154C9.12793 7.58154 9.02723 7.54239 8.95019 7.4718L7.36352 6.26736C7.16389 6.1171 6.91374 6.05018 6.66575 6.08069C6.506 6.09995 6.35293 6.15617 6.2187 6.24489C6.08446 6.33361 5.97275 6.45239 5.89241 6.5918C5.35019 7.48069 4.80352 8.32069 4.2613 9.18292L3.91019 9.73847C3.88358 9.78265 3.86788 9.83254 3.86439 9.884C3.86091 9.93545 3.86975 9.987 3.89017 10.0344C3.91059 10.0817 3.94201 10.1235 3.98182 10.1563C4.02163 10.1891 4.06868 10.2119 4.11908 10.2229C4.1697 10.228 4.22082 10.2224 4.26908 10.2063C4.31735 10.1902 4.36165 10.164 4.39908 10.1296L6.48352 8.54292C6.56057 8.47233 6.66126 8.43318 6.76575 8.43318C6.87023 8.43318 6.97093 8.47233 7.04797 8.54292L8.63019 9.72514C8.81579 9.86073 9.04036 9.93247 9.27019 9.92958Z" fill="url(#paint0_linear)"/>
<defs>
<linearGradient id="paint0_linear" x1="11.1946" y1="2.06292" x2="4.45686" y2="14.1474" gradientUnits="userSpaceOnUse">
<stop stop-color="#FF6D64"/>
<stop offset="0.45" stop-color="#9C36FF"/>
<stop offset="1" stop-color="#2184FF"/>
</linearGradient>
</defs>
</svg>
