 <svg width="16" height="16" viewBox="0 0 16 16" fill="none" xmlns="http://www.w3.org/2000/svg">
        <g clipPath="url(#clip0)">
            <path d="M16 7.99653C16.0006 9.3421 15.6618 10.6661 15.0149 11.8459C14.368 13.0258 13.434 14.0235 12.2993 14.7466C11.1645 15.4697 9.86572 15.8949 8.52304 15.9829C7.18036 16.0709 5.83717 15.8187 4.61778 15.2499C3.31852 14.6437 2.20602 13.6996 1.39667 12.5162C0.587318 11.3328 0.110852 9.95366 0.0171186 8.52304C-0.0766153 7.09241 0.215828 5.66289 0.863854 4.38401C1.51188 3.10513 2.49167 2.0239 3.70074 1.25342C4.9098 0.482946 6.3037 0.0515405 7.73661 0.004338C9.16953 -0.0428645 10.5888 0.29587 11.8459 0.985106C13.1031 1.67434 14.1519 2.68875 14.8827 3.92221C15.6135 5.15566 15.9994 6.56284 16 7.99653Z" fill="#0064FF" />
            <path d="M13.9731 13.3322C12.8301 14.6122 11.3057 15.4908 9.62502 15.8381C7.94439 16.1855 6.19661 15.9832 4.63977 15.2611L2.54199 13.1722H2.71533C3.27199 13.1904 3.82666 13.0967 4.34644 12.8966C4.41008 12.8676 4.47538 12.8424 4.54199 12.8211C4.56793 12.8123 4.59605 12.8123 4.62199 12.8211C4.90199 12.9722 5.17755 13.1366 5.46644 13.2655C6.08421 13.5561 6.73486 13.771 7.40421 13.9055C8.20105 14.0688 9.01309 14.1463 9.82644 14.1366C10.6511 14.1303 11.4725 14.0319 12.2753 13.8433L12.382 13.8166L12.4887 13.7899L12.5953 13.7588L12.742 13.7188H12.7998L12.9509 13.6744L13.0664 13.6344C13.1553 13.6077 13.2442 13.5766 13.3331 13.5411L13.4353 13.5055L13.5375 13.4655L13.6398 13.4211L13.7642 13.3677L13.8264 13.3411L13.9731 13.3322Z" fill="#0058E9" />
            <path d="M8.04167 -0.0136719C6.1179 -0.0134625 4.25774 0.674039 2.79781 1.92443C2.68046 2.12069 2.5744 2.32346 2.48014 2.53176C2.21785 3.10319 2.02123 3.70243 1.89401 4.31802C1.8269 4.63062 1.7911 4.94768 1.74188 5.26474C1.67182 5.79758 1.65086 6.33572 1.67924 6.87238C1.70332 7.5243 1.79326 8.17212 1.9477 8.80601C2.10316 9.45718 2.33755 10.087 2.64569 10.6816C2.75124 10.8837 2.86929 11.0791 2.99916 11.2666C3.10506 11.4306 3.14797 11.6272 3.11996 11.8203C3.0776 12.2835 2.88065 12.7191 2.56068 13.0573C2.54489 13.0716 2.53131 13.0882 2.52041 13.1064C2.49356 13.1466 2.48909 13.1824 2.52041 13.2047H2.69491C3.25531 13.223 3.8137 13.1289 4.33696 12.9278C4.40103 12.8987 4.46677 12.8733 4.53383 12.8519C4.55995 12.8431 4.58826 12.8431 4.61437 12.8519C4.89625 13.0037 5.17365 13.169 5.46448 13.2985C6.08641 13.5905 6.74142 13.8064 7.41527 13.9415C8.21745 14.1056 9.03494 14.1835 9.85375 14.1737C10.684 14.1674 11.5109 14.0685 12.3191 13.879L12.4265 13.8522L12.5338 13.8254L12.6412 13.7942L12.7889 13.754H12.847L12.9992 13.7093L13.1155 13.6691C13.205 13.6423 13.2945 13.6111 13.384 13.5753L13.4869 13.5396L13.5898 13.4994L13.6927 13.4548L13.818 13.4012L13.8806 13.3744L13.9969 13.3253C15.0124 12.1701 15.6749 10.7485 15.9057 9.22907C16.1366 7.70963 15.9262 6.15599 15.2995 4.75223C14.6728 3.34847 13.656 2.15345 12.3697 1.30877C11.0833 0.464084 9.58133 0.00514347 8.04167 -0.0136719Z" fill="white" />
            <path d="M3.77373 5.24023H6.85373V5.29357C6.87549 5.4975 6.82346 5.70248 6.70707 5.87135L4.67596 8.44468L4.59151 8.55134H6.75596C6.83596 8.55134 6.86707 8.57357 6.85818 8.65357C6.84929 8.73357 6.85818 8.84023 6.85818 8.93357C6.85704 8.96217 6.85026 8.99027 6.83825 9.01626C6.82623 9.04225 6.80921 9.06561 6.78816 9.08501C6.76711 9.10441 6.74243 9.11947 6.71556 9.12933C6.68868 9.13919 6.66012 9.14365 6.63151 9.14246C6.52929 9.14246 6.42707 9.14246 6.32485 9.14246H3.8004C3.71151 9.14246 3.69818 9.11579 3.69373 9.03134C3.68786 8.84487 3.75118 8.66281 3.87151 8.52023C4.35151 7.93357 5.91596 5.97801 5.94262 5.93801H3.78707L3.77373 5.24023Z" fill="#0064FF" />
            <path d="M10.0448 6.31125C10.0448 6.25792 10.0448 6.23125 9.97372 6.23125H9.52928C9.47594 6.23125 9.46261 6.25348 9.46261 6.29792C9.46261 6.34237 9.46261 6.37792 9.46261 6.44014C9.30128 6.31849 9.11649 6.23159 8.9199 6.18493C8.72331 6.13826 8.51918 6.13285 8.32039 6.16903C8.12212 6.19934 7.93251 6.27123 7.76399 6.38C7.59548 6.48877 7.45187 6.63195 7.34261 6.80014C7.16213 7.06511 7.07199 7.38125 7.0856 7.70156C7.09921 8.02187 7.21585 8.32922 7.41817 8.57792C7.61797 8.83154 7.89882 9.00884 8.21372 9.08014C8.42635 9.13353 8.64815 9.1393 8.86327 9.09705C9.07839 9.05479 9.28153 8.96555 9.45817 8.8357C9.45817 8.85792 9.45817 8.86681 9.45817 8.88014C9.46032 8.91352 9.4693 8.9461 9.48454 8.97586C9.49979 9.00563 9.52099 9.03195 9.54682 9.0532C9.57264 9.07445 9.60256 9.09017 9.63471 9.09939C9.66686 9.10861 9.70056 9.11113 9.73372 9.10681H9.97817C10.0359 9.10681 10.0537 9.10681 10.0537 9.03125C10.0404 8.14236 10.0448 7.22681 10.0448 6.31125ZM8.54705 8.53348C8.30777 8.53348 8.07829 8.43842 7.90909 8.26922C7.73989 8.10002 7.64483 7.87054 7.64483 7.63125C7.64483 7.39197 7.73989 7.16249 7.90909 6.99329C8.07829 6.82409 8.30777 6.72903 8.54705 6.72903C8.66568 6.729 8.78311 6.7527 8.89243 6.79876C9.00175 6.84481 9.10075 6.91228 9.18358 6.99719C9.26642 7.0821 9.33143 7.18273 9.37477 7.29315C9.41811 7.40357 9.43891 7.52156 9.43594 7.64014C9.43891 7.75873 9.41811 7.87671 9.37477 7.98713C9.33143 8.09756 9.26642 8.19819 9.18358 8.2831C9.10075 8.36801 9.00175 8.43548 8.89243 8.48153C8.78311 8.52758 8.66568 8.55129 8.54705 8.55125V8.53348Z" fill="#0064FF" />
            <path d="M13.2182 6.13783C12.9177 6.13607 12.6234 6.22369 12.3728 6.38954C12.1222 6.55539 11.9266 6.792 11.8108 7.06929C11.695 7.34658 11.6642 7.65204 11.7224 7.94686C11.7806 8.24167 11.9251 8.51253 12.1376 8.72502C12.3501 8.93751 12.621 9.08203 12.9158 9.14022C13.2106 9.19842 13.5161 9.16766 13.7934 9.05185C14.0707 8.93604 14.3073 8.74041 14.4731 8.48982C14.639 8.23923 14.7266 7.94499 14.7248 7.6445C14.7248 7.2449 14.5661 6.86168 14.2835 6.57912C14.001 6.29657 13.6178 6.13783 13.2182 6.13783ZM13.2182 8.55561C13.0973 8.55868 12.9771 8.53707 12.8648 8.49209C12.7526 8.44712 12.6507 8.37971 12.5655 8.29401C12.4802 8.20831 12.4133 8.10612 12.3688 7.99367C12.3244 7.88123 12.3034 7.7609 12.307 7.64005C12.3105 7.52069 12.3375 7.4032 12.3864 7.29426C12.4353 7.18533 12.5052 7.0871 12.5921 7.00518C12.679 6.92326 12.7811 6.85925 12.8928 6.81681C13.0044 6.77437 13.1232 6.75433 13.2426 6.75783C13.362 6.76133 13.4795 6.78831 13.5884 6.83722C13.6973 6.88613 13.7956 6.95602 13.8775 7.04289C13.9594 7.12977 14.0234 7.23193 14.0658 7.34354C14.1083 7.45515 14.1283 7.57403 14.1248 7.69338C14.1178 7.92838 14.0181 8.15103 13.8473 8.31263C13.6766 8.47422 13.4487 8.56159 13.2137 8.55561H13.2182Z" fill="#0064FF" />
            <path d="M11.2448 9.12906C11.0848 9.12906 10.9337 9.12906 10.8004 9.12906C10.7745 9.12925 10.7488 9.12391 10.7251 9.1134C10.7014 9.10288 10.6802 9.08743 10.663 9.06808C10.6458 9.04873 10.6328 9.02593 10.6251 9.00119C10.6174 8.97644 10.615 8.95034 10.6182 8.92461C10.6182 8.76906 10.6182 8.60906 10.6182 8.44906C10.6182 7.41202 10.6182 6.37498 10.6182 5.33795C10.6182 5.26683 10.6182 5.24017 10.7115 5.24461C10.8626 5.24461 11.0182 5.24461 11.1559 5.24461C11.2271 5.24461 11.2493 5.24461 11.2493 5.3335V9.1335L11.2448 9.12906Z" fill="#0064FF" />
        </g>
        <defs>
            <clipPath id="clip0">
                <rect width="16" height="16" fill="white" />
            </clipPath>
        </defs>
    </svg>