<svg width="12" height="12" viewBox="0 0 12 12" fill="none" xmlns="http://www.w3.org/2000/svg">
<path d="M6 0C7.5913 0 9.11742 0.632141 10.2426 1.75736C11.3679 2.88258 12 4.4087 12 6C12 7.5913 11.3679 9.11742 10.2426 10.2426C9.11742 11.3679 7.5913 12 6 12C4.4087 12 2.88258 11.3679 1.75736 10.2426C0.632141 9.11742 0 7.5913 0 6H0C0 4.4087 0.632141 2.88258 1.75736 1.75736C2.88258 0.632141 4.4087 0 6 0V0Z" fill="black" fill-opacity="0.45"/>
<path d="M6 0C7.5913 0 9.11742 0.632141 10.2426 1.75736C11.3679 2.88258 12 4.4087 12 6C12 7.5913 11.3679 9.11742 10.2426 10.2426C9.11742 11.3679 7.5913 12 6 12C4.4087 12 2.88258 11.3679 1.75736 10.2426C0.632141 9.11742 0 7.5913 0 6H0C0 4.4087 0.632141 2.88258 1.75736 1.75736C2.88258 0.632141 4.4087 0 6 0V0Z" fill="#2F7CBA"/>
<path d="M3.25618 3.3862C3.7794 3.08951 4.37138 2.93548 4.97285 2.93953C6.70285 2.93953 8.01618 4.12953 8.01618 5.49953C8.01618 6.86953 6.70285 8.0662 4.97285 8.0662C4.55065 8.06567 4.1319 7.99005 3.73618 7.84286L3.55952 7.7762L3.41285 7.89286C3.21279 8.06147 2.973 8.17621 2.71618 8.2262C2.83357 8.03578 2.89588 7.81656 2.89618 7.59286C2.89817 7.55845 2.89817 7.52395 2.89618 7.48953L2.87952 7.36286L2.78285 7.27953C2.51898 7.06296 2.30539 6.79158 2.15688 6.48421C2.00838 6.17684 1.92852 5.84085 1.92285 5.49953C1.92911 5.15995 2.00858 4.82572 2.15586 4.51967C2.30313 4.21363 2.51472 3.94297 2.77618 3.7262H2.79952C2.86475 3.66626 2.93378 3.61059 3.00618 3.55953C3.08618 3.4862 3.16619 3.43953 3.25618 3.3862Z" fill="white"/>
<path d="M8.23354 4.74316C8.31142 4.98781 8.35077 5.24309 8.35021 5.49983C8.35021 7.09983 6.84021 8.39983 4.97354 8.39983H4.79688C5.09192 8.84472 5.49574 9.20684 5.97002 9.45186C6.4443 9.69687 6.97331 9.81665 7.50687 9.79983C7.9294 9.79954 8.34838 9.72275 8.74354 9.57316L8.92021 9.5065L9.06687 9.6265C9.26741 9.79436 9.50701 9.909 9.76354 9.95983C9.645 9.76992 9.5826 9.55036 9.58354 9.3265C9.58164 9.29097 9.58164 9.25536 9.58354 9.21983L9.60021 9.0965L9.70021 8.99983C9.96237 8.78418 10.1747 8.51429 10.3226 8.20874C10.4705 7.90319 10.5504 7.56923 10.5569 7.22983C10.5504 6.89029 10.4708 6.55613 10.3236 6.25012C10.1763 5.9441 9.96484 5.67342 9.70354 5.4565L9.66687 5.43983C9.59021 5.3765 9.52687 5.32316 9.46021 5.27316C9.39354 5.22316 9.31021 5.17983 9.22021 5.1265C8.91456 4.9455 8.58122 4.81599 8.23354 4.74316Z" fill="white"/>
</svg>
