<svg width="138" height="49" viewBox="0 0 138 49" fill="none" xmlns="http://www.w3.org/2000/svg">
<path d="M50.4821 18.1221V18.1798C49.2666 13.2723 46.4446 8.9124 42.4652 5.79385C38.4859 2.67531 33.5777 0.977365 28.522 0.970237C23.4662 0.96311 18.5533 2.64721 14.5652 5.75452C10.577 8.86184 7.74278 13.2138 6.51348 18.1178C5.04358 18.1178 3.63387 18.7018 2.59449 19.7411C1.55511 20.7805 0.971191 22.1902 0.971191 23.6601C0.971191 25.13 1.55511 26.5397 2.59449 27.5791C3.63387 28.6185 5.04358 29.2024 6.51348 29.2024C7.66636 33.7688 10.2126 37.8628 13.7985 40.9159C17.3844 43.9691 21.8321 45.8298 26.5239 46.2397C26.7413 46.5546 27.0304 46.8134 27.3673 46.9949C27.7043 47.1764 28.0794 47.2754 28.462 47.2837C28.8446 47.2921 29.2238 47.2095 29.5683 47.0429C29.9128 46.8763 30.2129 46.6303 30.4439 46.3252C30.4823 46.2739 30.5187 46.2226 30.5529 46.1713C30.8042 45.7813 30.9378 45.3272 30.9378 44.8632C30.9378 44.3993 30.8042 43.9451 30.5529 43.5551V43.5444C29.8881 43.5444 27.195 43.5102 26.5581 43.4504C22.7277 43.0759 19.0884 41.5975 16.082 39.1946C13.0756 36.7918 10.8314 33.5679 9.62184 29.9143C8.41225 26.2607 8.28929 22.3345 9.26791 18.6124C10.2465 14.8902 12.2846 11.5322 15.1348 8.94602C17.9849 6.35979 21.5246 4.65657 25.324 4.04311C29.1234 3.42966 33.0192 3.93236 36.5385 5.49019C40.0577 7.04801 43.0491 9.59397 45.1494 12.819C47.2497 16.044 48.3686 19.8094 48.3703 23.658V29.2153H50.5419C50.7456 29.2137 50.949 29.2002 51.1511 29.1746C52.5685 29.0229 53.873 28.3307 54.7934 27.2421C55.7138 26.1534 56.1793 24.752 56.0932 23.329C56.007 21.906 55.3759 20.5709 54.3309 19.6012C53.2859 18.6315 51.9075 18.1018 50.4821 18.1221Z" fill="#F27227"/>
<path d="M28.5135 6.5459C23.9598 6.5459 19.5926 8.35485 16.3727 11.5748C13.1527 14.7948 11.3438 19.162 11.3438 23.7157C11.3438 28.2694 13.1527 32.6366 16.3727 35.8565C19.5926 39.0765 23.9598 40.8855 28.5135 40.8855H45.6833V23.7157C45.6836 21.4608 45.2397 19.228 44.3769 17.1448C43.5141 15.0615 42.2494 13.1686 40.655 11.5742C39.0606 9.97977 37.1677 8.71506 35.0844 7.8523C33.0012 6.98954 30.7684 6.54562 28.5135 6.5459ZM41.7077 36.9099H28.5135C25.9034 36.9103 23.3519 36.1367 21.1814 34.6869C19.011 33.2372 17.3193 31.1763 16.3202 28.765C15.321 26.3538 15.0594 23.7003 15.5684 21.1404C16.0773 18.5804 17.334 16.2288 19.1794 14.3831C21.0249 12.5373 23.3762 11.2803 25.9361 10.7709C28.496 10.2616 31.1495 10.5228 33.5609 11.5215C35.9724 12.5202 38.0335 14.2116 39.4836 16.3818C40.9337 18.552 41.7077 21.1035 41.7077 23.7135V36.9099Z" fill="#0FC64D"/>
<path d="M28.5138 26.3107C29.9468 26.3107 31.1086 25.149 31.1086 23.7159C31.1086 22.2828 29.9468 21.1211 28.5138 21.1211C27.0807 21.1211 25.9189 22.2828 25.9189 23.7159C25.9189 25.149 27.0807 26.3107 28.5138 26.3107Z" fill="#17A0FB"/>
<path d="M21.7086 26.3107C23.1417 26.3107 24.3034 25.149 24.3034 23.7159C24.3034 22.2828 23.1417 21.1211 21.7086 21.1211C20.2755 21.1211 19.1138 22.2828 19.1138 23.7159C19.1138 25.149 20.2755 26.3107 21.7086 26.3107Z" fill="#17A0FB"/>
<path d="M35.3175 26.3107C36.7505 26.3107 37.9123 25.149 37.9123 23.7159C37.9123 22.2828 36.7505 21.1211 35.3175 21.1211C33.8844 21.1211 32.7227 22.2828 32.7227 23.7159C32.7227 25.149 33.8844 26.3107 35.3175 26.3107Z" fill="#17A0FB"/>
<path d="M70.0535 13.7508C69.3011 14.355 68.3208 14.6571 67.1124 14.6571C66.111 14.6855 65.1181 14.4652 64.2227 14.0159L64.6159 13.1096C65.3779 13.517 66.2314 13.723 67.0953 13.7081C67.9959 13.7081 68.7255 13.4943 69.284 13.0668C69.5601 12.8558 69.7816 12.5816 69.9299 12.2674C70.0783 11.9532 70.1493 11.608 70.1369 11.2607C70.1379 10.948 70.0676 10.6391 69.9313 10.3576C69.795 10.0761 69.5963 9.82942 69.3503 9.63631C68.8121 9.23957 68.2261 8.91211 67.6062 8.66165C66.5688 8.21707 65.8222 7.78959 65.3662 7.37921C65.0409 7.10803 64.7801 6.76786 64.6027 6.38338C64.4252 5.9989 64.3356 5.57974 64.3402 5.1563C64.3241 4.70842 64.4123 4.26291 64.5978 3.85491C64.7832 3.4469 65.0609 3.08754 65.4089 2.80516C66.0815 2.23518 66.965 1.9502 68.0593 1.9502C69.1779 1.9502 70.0556 2.16394 70.6926 2.59142L70.2993 3.46348C69.6267 3.06705 68.857 2.86574 68.0764 2.8821C67.3877 2.85132 66.7091 3.0564 66.1527 3.46348C65.9055 3.66491 65.7087 3.92131 65.5781 4.21224C65.4475 4.50317 65.3866 4.82059 65.4004 5.1392C65.4004 5.76475 65.6911 6.31193 66.2724 6.78073C66.8398 7.18439 67.4542 7.51743 68.1021 7.77249C69.0995 8.19997 69.8063 8.61035 70.2224 9.00363C70.5368 9.28369 70.7873 9.62809 70.957 10.0135C71.1266 10.3988 71.2114 10.8162 71.2056 11.2372C71.2222 11.7169 71.1268 12.1939 70.9268 12.6302C70.7268 13.0666 70.4278 13.4503 70.0535 13.7508Z" fill="white"/>
<path d="M85.0496 14.4863L83.733 4.56874C83.6746 4.12416 83.6311 3.64751 83.6026 3.13881H83.5684C83.4544 3.65179 83.329 4.12487 83.1922 4.55805L80.1144 14.4927H79.2081L76.1217 4.55164C75.9792 4.12416 75.8538 3.65108 75.7455 3.1324H75.7113C75.6771 3.65535 75.6315 4.13413 75.5745 4.56874L74.275 14.4863H73.2661L74.9589 2.10645H76.2756L79.2851 11.7248C79.43 12.2027 79.5499 12.6878 79.6441 13.1782H79.6783C79.7726 12.6878 79.8925 12.2027 80.0374 11.7248L83.0298 2.10645H84.3464L86.0393 14.4863H85.0496Z" fill="white"/>
<path d="M96.6774 14.4863L95.2582 10.5364H90.0429L88.6236 14.4863H87.5293L92.0606 2.10645H93.2404L97.7718 14.4863H96.6774ZM93.0695 4.36354C92.922 3.93606 92.7852 3.4637 92.6591 2.96141H92.6249C92.5186 3.43541 92.3874 3.90344 92.2316 4.36354L90.3079 9.70706H94.976L93.0695 4.36354Z" fill="white"/>
<path d="M106.56 14.4861L104.44 10.3481C103.937 9.3506 103.179 8.85187 102.166 8.85187H100.747V14.4861H99.7207V2.585C100.713 2.13507 101.795 1.91585 102.884 1.94378C104.242 1.94378 105.296 2.26296 106.047 2.90133C106.398 3.19854 106.676 3.57158 106.862 3.99224C107.047 4.4129 107.134 4.87016 107.116 5.32943C107.116 7.20037 106.096 8.28332 104.055 8.57828V8.61248C104.593 8.85187 105.077 9.38765 105.509 10.2198L107.715 14.4946L106.56 14.4861ZM105.295 3.50836C104.736 3.02958 103.939 2.79019 102.901 2.79019C102.167 2.76924 101.435 2.89119 100.747 3.14927V8.02256H102.508C104.892 8.02256 106.083 7.1334 106.082 5.35508C106.099 5.00777 106.037 4.66103 105.901 4.3411C105.765 4.02116 105.558 3.7364 105.295 3.50836Z" fill="white"/>
<path d="M113.126 3.0127V14.4863H112.083V3.0127H108.783V2.10645H116.409V3.0127H113.126Z" fill="white"/>
<path d="M71.6956 30.5485C71.0344 30.9931 70.1396 31.2154 69.011 31.2154C68.3489 31.2366 67.6908 31.1041 67.0886 30.8282C66.4863 30.5523 65.9562 30.1405 65.5399 29.6251C64.5823 28.4852 64.1035 26.8836 64.1035 24.8203C64.1035 22.7569 64.5823 21.1496 65.5399 19.9983C65.9591 19.4874 66.4902 19.0799 67.0921 18.8071C67.694 18.5343 68.3505 18.4036 69.011 18.4251C70.1396 18.4251 71.0344 18.6474 71.6956 19.092L70.9432 21.0157C70.465 20.6752 69.8884 20.501 69.3017 20.5198C68.9117 20.512 68.5265 20.6066 68.1845 20.7941C67.8425 20.9816 67.5556 21.2555 67.3524 21.5885C66.8394 22.3537 66.5829 23.4224 66.5829 24.7946C66.5829 26.1668 66.8394 27.227 67.3524 27.9751C67.5556 28.308 67.8425 28.5819 68.1845 28.7694C68.5265 28.9569 68.9117 29.0515 69.3017 29.0438C69.8869 29.071 70.4645 28.9026 70.9432 28.565L71.6956 30.5485Z" fill="white"/>
<path d="M82.4651 29.3688C81.6201 30.6 80.4174 31.2155 78.8571 31.2155C77.2968 31.2155 76.0942 30.6 75.2492 29.3688C74.4626 28.2289 74.0693 26.7127 74.0693 24.8204C74.0693 22.9281 74.4626 21.412 75.2492 20.272C76.0942 19.0409 77.2968 18.4253 78.8571 18.4253C80.4174 18.4253 81.6201 19.0409 82.4651 20.272C83.2516 21.412 83.6449 22.9281 83.6449 24.8204C83.6449 26.7127 83.2516 28.2289 82.4651 29.3688ZM80.629 21.734C80.2016 20.9474 79.6088 20.5542 78.8507 20.5542C78.0926 20.5542 77.4999 20.9474 77.0724 21.734C76.672 22.475 76.4725 23.5009 76.4739 24.8119C76.4753 26.1228 76.6748 27.1488 77.0724 27.8897C77.4999 28.6763 78.0926 29.0696 78.8507 29.0696C79.6088 29.0696 80.2016 28.6763 80.629 27.8897C81.028 27.1502 81.2275 26.1242 81.2275 24.8119C81.2275 23.4995 81.028 22.4735 80.629 21.734Z" fill="white"/>
<path d="M93.7871 31.0107L89.3584 23.6751C89.079 23.2088 88.8333 22.7231 88.6231 22.2217H88.5953C88.6189 22.7817 88.6295 23.3161 88.6295 23.829V31.0107H86.5776V18.6309H88.6466L92.9728 25.7783C93.2472 26.2474 93.4927 26.7328 93.708 27.2318H93.7422C93.7187 26.6504 93.708 26.099 93.708 25.5731V18.6309H95.777V31.0107H93.7871Z" fill="white"/>
<path d="M103.473 20.6486V31.0107H101.062V20.6486H98.4463V18.6309H106.073V20.6486H103.473Z" fill="white"/>
<path d="M115.389 31.0107L114.482 28.1209H110.208L109.301 31.0107H106.781L110.919 18.6309H113.758L117.896 31.0107H115.389ZM112.698 22.1191C112.544 21.6302 112.43 21.1299 112.356 20.6229H112.321C112.247 21.1299 112.133 21.6302 111.979 22.1191L110.686 26.3426H114.004L112.698 22.1191Z" fill="white"/>
<path d="M127.394 30.5485C126.735 30.9931 125.84 31.2154 124.71 31.2154C124.048 31.2366 123.39 31.1041 122.787 30.8282C122.185 30.5523 121.655 30.1405 121.239 29.6251C120.281 28.4852 119.802 26.8836 119.802 24.8203C119.802 22.7569 120.281 21.1496 121.239 19.9983C121.658 19.4874 122.189 19.0799 122.791 18.8071C123.393 18.5343 124.049 18.4036 124.71 18.4251C125.838 18.4251 126.733 18.6474 127.394 19.092L126.642 21.0157C126.164 20.6752 125.587 20.501 125 20.5198C124.61 20.512 124.225 20.6066 123.883 20.7941C123.541 20.9816 123.254 21.2555 123.051 21.5885C122.538 22.3537 122.282 23.4224 122.282 24.7946C122.282 26.1668 122.538 27.227 123.051 27.9751C123.254 28.308 123.541 28.5819 123.883 28.7694C124.225 28.9569 124.61 29.0515 125 29.0438C125.587 29.075 126.167 28.9095 126.648 28.5735L127.394 30.5485Z" fill="white"/>
<path d="M134.533 20.6486V31.0107H132.122V20.6486H129.506V18.6309H137.132V20.6486H134.533Z" fill="white"/>
<path d="M71.6956 47.075C71.0344 47.5195 70.1396 47.7418 69.011 47.7418C68.3489 47.7631 67.6908 47.6306 67.0886 47.3546C66.4863 47.0787 65.9562 46.6669 65.5399 46.1516C64.5823 45.0117 64.1035 43.41 64.1035 41.3467C64.1035 39.2834 64.5823 37.6761 65.5399 36.5247C65.9588 36.0135 66.4898 35.6057 67.0918 35.3329C67.6937 35.0601 68.3505 34.9296 69.011 34.9516C70.1396 34.9516 71.0344 35.1739 71.6956 35.6185L70.9432 37.5421C70.4655 37.2008 69.8885 37.0265 69.3017 37.0463C68.9117 37.0385 68.5265 37.1331 68.1845 37.3206C67.8425 37.5081 67.5556 37.782 67.3524 38.115C66.8394 38.8773 66.5829 39.946 66.5829 41.3211C66.5829 42.6961 66.8394 43.7563 67.3524 44.5015C67.5556 44.8345 67.8425 45.1084 68.1845 45.2959C68.5265 45.4834 68.9117 45.578 69.3017 45.5702C69.8868 45.5965 70.464 45.4282 70.9432 45.0915L71.6956 47.075Z" fill="white"/>
<path d="M74.4224 47.5366V35.1567H81.0056V37.1745H76.7821V40.2694H80.5952V42.2529H76.7821V45.5189H81.0056V47.5366H74.4224Z" fill="white"/>
<path d="M91.1368 47.5366L86.7081 40.201C86.4291 39.7344 86.1834 39.2487 85.9728 38.7476H85.9386C85.9628 39.3062 85.9742 39.8419 85.9728 40.3549V47.5366H83.9209V35.1567H85.9899L90.316 42.3042C90.5909 42.7731 90.8364 43.2585 91.0513 43.7577H91.0855C91.0627 43.1763 91.0513 42.6234 91.0513 42.099V35.1567H93.1203V47.5366H91.1368Z" fill="white"/>
<path d="M100.823 37.1745V47.5366H98.4123V37.1745H95.7939V35.1567H103.42V37.1745H100.823Z" fill="white"/>
<path d="M106.098 47.5366V35.1567H112.681V37.1745H108.457V40.2694H112.27V42.2529H108.457V45.5189H112.681V47.5366H106.098Z" fill="white"/>
<path d="M122.111 47.5365L120.555 43.749C120.224 42.9282 119.666 42.5178 118.879 42.5178H117.973V47.545H115.596V35.6268C116.612 35.1823 117.849 34.96 119.307 34.96C120.836 34.96 121.998 35.2905 122.795 35.9517C123.592 36.6129 123.985 37.5248 123.975 38.6876C123.975 40.2949 123.171 41.3209 121.564 41.7655V41.7997C122.145 42.1188 122.624 42.723 123 43.6122L124.659 47.545L122.111 47.5365ZM119.358 36.781C118.887 36.7718 118.419 36.8441 117.973 36.9948V40.7994H119.255C120.823 40.7994 121.607 40.1382 121.607 38.8158C121.612 37.4593 120.863 36.781 119.358 36.781Z" fill="white"/>
</svg>
