<svg width="240" height="84" viewBox="0 0 240 84" fill="none" xmlns="http://www.w3.org/2000/svg">
<path d="M34.4997 22.5667H13.4997C13.3818 22.5667 13.2854 22.6631 13.2854 22.7809V24.4952C13.2854 24.6131 13.3818 24.7095 13.4997 24.7095H34.4997C34.6175 24.7095 34.714 24.6131 34.714 24.4952V22.7809C34.714 22.6631 34.6175 22.5667 34.4997 22.5667ZM26.4997 39.2809H13.4997C13.3818 39.2809 13.2854 39.3774 13.2854 39.4952V41.2095C13.2854 41.3274 13.3818 41.4238 13.4997 41.4238H26.4997C26.6175 41.4238 26.714 41.3274 26.714 41.2095V39.4952C26.714 39.3774 26.6175 39.2809 26.4997 39.2809ZM30.4997 30.9238H13.4997C13.3818 30.9238 13.2854 31.0202 13.2854 31.1381V32.8524C13.2854 32.9702 13.3818 33.0667 13.4997 33.0667H30.4997C30.6175 33.0667 30.714 32.9702 30.714 32.8524V31.1381C30.714 31.0202 30.6175 30.9238 30.4997 30.9238Z" fill="white"/>
<path d="M139.511 25.1221V25.1798C138.295 20.2723 135.473 15.9124 131.494 12.7939C127.515 9.67531 122.607 7.97736 117.551 7.97024C112.495 7.96311 107.582 9.64721 103.594 12.7545C99.6058 15.8618 96.7716 20.2138 95.5423 25.1178C94.0724 25.1178 92.6627 25.7018 91.6233 26.7411C90.5839 27.7805 90 29.1902 90 30.6601C90 32.13 90.5839 33.5397 91.6233 34.5791C92.6627 35.6185 94.0724 36.2024 95.5423 36.2024C96.6952 40.7688 99.2414 44.8628 102.827 47.9159C106.413 50.9691 110.861 52.8298 115.553 53.2397C115.77 53.5546 116.059 53.8134 116.396 53.9949C116.733 54.1764 117.108 54.2754 117.491 54.2837C117.873 54.2921 118.253 54.2095 118.597 54.0429C118.942 53.8763 119.242 53.6303 119.473 53.3252C119.511 53.2739 119.547 53.2226 119.582 53.1713C119.833 52.7813 119.967 52.3272 119.967 51.8632C119.967 51.3993 119.833 50.9451 119.582 50.5551V50.5444C118.917 50.5444 116.224 50.5102 115.587 50.4504C111.757 50.0759 108.117 48.5975 105.111 46.1946C102.104 43.7918 99.8602 40.5679 98.6506 36.9143C97.4411 33.2607 97.3181 29.3345 98.2967 25.6124C99.2753 21.8902 101.313 18.5322 104.164 15.946C107.014 13.3598 110.553 11.6566 114.353 11.0431C118.152 10.4297 122.048 10.9324 125.567 12.4902C129.087 14.048 132.078 16.594 134.178 19.819C136.278 23.044 137.397 26.8094 137.399 30.658V36.2153H139.571C139.774 36.2137 139.978 36.2002 140.18 36.1746C141.597 36.0229 142.902 35.3307 143.822 34.2421C144.743 33.1534 145.208 31.752 145.122 30.329C145.036 28.906 144.405 27.5709 143.36 26.6012C142.315 25.6315 140.936 25.1018 139.511 25.1221Z" fill="#F27227"/>
<path d="M117.543 13.5459C112.989 13.5459 108.622 15.3549 105.402 18.5748C102.182 21.7948 100.373 26.162 100.373 30.7157C100.373 35.2694 102.182 39.6366 105.402 42.8565C108.622 46.0765 112.989 47.8855 117.543 47.8855H134.712V30.7157C134.713 28.4608 134.269 26.228 133.406 24.1448C132.543 22.0615 131.278 20.1686 129.684 18.5742C128.09 16.9798 126.197 15.7151 124.113 14.8523C122.03 13.9895 119.797 13.5456 117.543 13.5459ZM130.737 43.9099H117.543C114.932 43.9103 112.381 43.1367 110.211 41.6869C108.04 40.2372 106.348 38.1763 105.349 35.765C104.35 33.3538 104.088 30.7003 104.597 28.1404C105.106 25.5804 106.363 23.2288 108.208 21.3831C110.054 19.5373 112.405 18.2803 114.965 17.7709C117.525 17.2616 120.179 17.5228 122.59 18.5215C125.001 19.5202 127.063 21.2116 128.513 23.3818C129.963 25.552 130.737 28.1035 130.737 30.7135V43.9099Z" fill="#0FC64D"/>
<path d="M117.543 33.3105C118.976 33.3105 120.137 32.1487 120.137 30.7157C120.137 29.2826 118.976 28.1208 117.543 28.1208C116.109 28.1208 114.948 29.2826 114.948 30.7157C114.948 32.1487 116.109 33.3105 117.543 33.3105Z" fill="#17A0FB"/>
<path d="M110.737 33.3105C112.17 33.3105 113.332 32.1487 113.332 30.7157C113.332 29.2826 112.17 28.1208 110.737 28.1208C109.304 28.1208 108.143 29.2826 108.143 30.7157C108.143 32.1487 109.304 33.3105 110.737 33.3105Z" fill="#17A0FB"/>
<path d="M124.346 33.3105C125.779 33.3105 126.941 32.1487 126.941 30.7157C126.941 29.2826 125.779 28.1208 124.346 28.1208C122.913 28.1208 121.751 29.2826 121.751 30.7157C121.751 32.1487 122.913 33.3105 124.346 33.3105Z" fill="#17A0FB"/>
<path d="M104.122 63.674C104.122 66.1427 103.585 68.1513 102.512 69.7C101.362 71.3867 99.7827 72.23 97.774 72.23C95.7653 72.23 94.186 71.3867 93.036 69.7C91.9627 68.1513 91.426 66.1427 91.426 63.674C91.426 61.2053 91.9627 59.189 93.036 57.625C94.186 55.9537 95.7653 55.118 97.774 55.118C99.7827 55.118 101.362 55.9537 102.512 57.625C103.585 59.189 104.122 61.2053 104.122 63.674ZM102.719 63.674C102.719 61.5733 102.297 59.8483 101.454 58.499C100.565 57.073 99.338 56.36 97.774 56.36C96.21 56.36 94.9833 57.073 94.094 58.499C93.2507 59.8483 92.829 61.5733 92.829 63.674C92.829 65.7747 93.2507 67.4997 94.094 68.849C94.9833 70.275 96.21 70.988 97.774 70.988C99.338 70.988 100.565 70.275 101.454 68.849C102.297 67.4997 102.719 65.7747 102.719 63.674ZM115.111 72V63.536C115.111 61.512 113.984 60.5 111.73 60.5C110.565 60.5 109.56 60.6687 108.717 61.006V72H107.36V60.224C108.617 59.6567 110.074 59.373 111.73 59.373C113.248 59.373 114.421 59.7333 115.249 60.454C116.062 61.1747 116.468 62.179 116.468 63.467V72H115.111ZM129.548 71.379C128.659 71.977 127.455 72.276 125.937 72.276C124.005 72.276 122.449 71.563 121.268 70.137C119.98 68.6037 119.336 66.4493 119.336 63.674C119.336 60.8987 119.98 58.7367 121.268 57.188C122.449 55.7773 124.005 55.072 125.937 55.072C127.455 55.072 128.659 55.371 129.548 55.969L128.536 58.568C127.938 58.1233 127.202 57.901 126.328 57.901C125.224 57.901 124.35 58.384 123.706 59.35C123.016 60.3773 122.671 61.811 122.671 63.651C122.671 65.491 123.016 66.917 123.706 67.929C124.35 68.895 125.224 69.378 126.328 69.378C127.233 69.378 127.969 69.1633 128.536 68.734L129.548 71.379ZM140.414 72L137.286 65.951H137.24L134.089 72H130.524L135.331 63.375L130.869 55.348H134.411L137.24 60.799H137.286L140.092 55.348H143.634L139.172 63.375L143.979 72H140.414Z" fill="white"/>
</svg>
