<svg width="24" height="24" viewBox="0 0 24 24" fill="none" xmlns="http://www.w3.org/2000/svg">
<path d="M22.4999 2.56641H1.49993C1.38207 2.56641 1.28564 2.66283 1.28564 2.78069V4.49498C1.28564 4.61283 1.38207 4.70926 1.49993 4.70926H22.4999C22.6178 4.70926 22.7142 4.61283 22.7142 4.49498V2.78069C22.7142 2.66283 22.6178 2.56641 22.4999 2.56641ZM14.4999 19.2807H1.49993C1.38207 19.2807 1.28564 19.3771 1.28564 19.495V21.2093C1.28564 21.3271 1.38207 21.4236 1.49993 21.4236H14.4999C14.6178 21.4236 14.7142 21.3271 14.7142 21.2093V19.495C14.7142 19.3771 14.6178 19.2807 14.4999 19.2807ZM18.4999 10.9235H1.49993C1.38207 10.9235 1.28564 11.02 1.28564 11.1378V12.8521C1.28564 12.97 1.38207 13.0664 1.49993 13.0664H18.4999C18.6178 13.0664 18.7142 12.97 18.7142 12.8521V11.1378C18.7142 11.02 18.6178 10.9235 18.4999 10.9235Z" fill="white"/>
</svg>
