<svg width="12" height="12" viewBox="0 0 12 12" fill="none" xmlns="http://www.w3.org/2000/svg">
<path d="M5.71695 0.866211H6.28362H6.31695C6.46874 0.872387 6.62008 0.886853 6.77029 0.909544C7.31259 0.982415 7.84011 1.13988 8.33362 1.37621C9.09925 1.73328 9.75808 2.28453 10.2446 2.97516C10.7312 3.66579 11.0285 4.47173 11.107 5.31288C11.107 5.39954 11.1236 5.48621 11.1303 5.57288V6.11954C11.1287 6.13172 11.1287 6.14404 11.1303 6.15621C11.122 6.33732 11.102 6.5177 11.0703 6.69621C10.9022 7.78258 10.3641 8.77757 9.54695 9.51288C9.05457 9.95715 8.47746 10.2973 7.85029 10.5129C7.11135 10.7701 6.32657 10.8689 5.54695 10.8029C5.20899 10.78 4.87407 10.7242 4.54695 10.6362C4.42878 10.6014 4.30198 10.6109 4.19029 10.6629C3.85676 10.8586 3.50232 11.0162 3.13362 11.1329C3.08285 11.1412 3.03106 11.1412 2.98029 11.1329C2.88019 11.1149 2.79044 11.0602 2.72874 10.9793C2.66704 10.8985 2.63786 10.7975 2.64695 10.6962C2.64695 10.4029 2.64695 10.1129 2.62029 9.82288C2.62065 9.77125 2.6105 9.7201 2.59044 9.67253C2.57038 9.62496 2.54084 9.58198 2.50362 9.54621L2.39029 9.44288C1.92367 9.00181 1.55069 8.47126 1.29362 7.88288C1.08158 7.40301 0.948742 6.89193 0.900286 6.36954C0.900286 6.28621 0.900286 6.20288 0.876953 6.11954V5.57288C0.878559 5.55959 0.878559 5.54616 0.876953 5.53288C0.88264 5.35394 0.901581 5.17568 0.93362 4.99954C1.11646 3.79855 1.7522 2.71314 2.71029 1.96621C3.49642 1.34982 4.44504 0.975699 5.44029 0.889544L5.71695 0.866211ZM6.95362 7.44621C7.08311 7.4416 7.20927 7.40396 7.32012 7.33687C7.43096 7.26978 7.52282 7.17546 7.58695 7.06288L8.69029 5.33288L9.07362 4.72621C9.10944 4.67472 9.12488 4.61177 9.11695 4.54954C9.10958 4.50619 9.09074 4.46559 9.06241 4.43196C9.03407 4.39833 8.99725 4.37289 8.95578 4.35827C8.9143 4.34365 8.86967 4.34039 8.8265 4.34882C8.78334 4.35725 8.74322 4.37706 8.71029 4.40621C8.19029 4.80954 7.66362 5.20288 7.13695 5.60288C7.07917 5.65582 7.00365 5.68518 6.92529 5.68518C6.84692 5.68518 6.7714 5.65582 6.71362 5.60288L5.52362 4.69954C5.3739 4.58685 5.18628 4.53666 5.00029 4.55954C4.88047 4.57399 4.76568 4.61615 4.665 4.68269C4.56432 4.74923 4.48054 4.83831 4.42029 4.94288C4.01362 5.60954 3.60362 6.23954 3.19695 6.88621L2.93362 7.30288C2.91366 7.33601 2.90188 7.37343 2.89927 7.41202C2.89666 7.45061 2.90329 7.48927 2.9186 7.5248C2.93392 7.56032 2.95748 7.59167 2.98734 7.61627C3.0172 7.64086 3.05249 7.65798 3.09029 7.66621C3.12825 7.67004 3.16659 7.66579 3.20279 7.65372C3.23899 7.64165 3.27222 7.62205 3.30029 7.59621L4.86362 6.40621C4.9214 6.35327 4.99692 6.32391 5.07529 6.32391C5.15365 6.32391 5.22917 6.35327 5.28695 6.40621L6.47362 7.29288C6.61282 7.39458 6.78124 7.44838 6.95362 7.44621Z" fill="url(#paint0_linear)"/>
<defs>
<linearGradient id="paint0_linear" x1="8.39695" y1="1.54621" x2="3.34362" y2="10.6095" gradientUnits="userSpaceOnUse">
<stop stop-color="#FF6D64"/>
<stop offset="0.45" stop-color="#9C36FF"/>
<stop offset="1" stop-color="#2184FF"/>
</linearGradient>
</defs>
</svg>
