<svg width="160" height="160" viewBox="0 0 160 160" fill="none" xmlns="http://www.w3.org/2000/svg">
<path d="M38.573 116.998C-17.7965 124.742 -5.2476 49.0865 30.7349 22.803C48.0139 10.1834 69.5977 4.94345 90.7396 8.23555C111.882 11.5276 130.85 23.0822 143.474 40.3581C169.757 76.3407 165.212 132.093 125.914 153.097C73.9784 180.875 82.7202 110.936 38.573 116.998Z" fill="#FAFAFA"/>
<path d="M13.7031 104.006H146.207V105.08C146.207 106.329 145.711 107.528 144.828 108.411C143.944 109.295 142.746 109.791 141.496 109.791H18.414C17.1646 109.791 15.9664 109.295 15.0829 108.411C14.1994 107.528 13.7031 106.329 13.7031 105.08V104.006Z" fill="#EBCB9A"/>
<path d="M85.3731 49.8872L73.2133 84.8184L35.0073 94.1462L39.9195 103.474L85.3731 93.4618L98.8883 52.4417L85.3731 49.8872Z" fill="#7BB2F9"/>
<path d="M85.3731 49.8872L73.2134 84.8184L76.0632 95.5152L85.3731 93.4618L98.8884 52.4417L85.3731 49.8872Z" fill="#7BB2F9"/>
<g style="mix-blend-mode:multiply" opacity="0.26">
<path d="M80.7383 102.803C80.7383 102.289 87.856 58.9961 87.856 58.9961L90.254 98.3205L80.7383 102.803Z" fill="#689DEF"/>
</g>
<path d="M100.248 44.0312L85.3774 49.8919L88.8178 101.774H122.107L130.576 49.0016L114.52 44.0715L100.248 44.0312Z" fill="#7BB2F9"/>
<path d="M96.374 21.5506V28.1583C95.9299 28.1747 95.4871 28.1013 95.072 27.9427C94.6568 27.784 94.278 27.5432 93.958 27.2348C93.6381 26.9264 93.3836 26.5567 93.2097 26.1477C93.0359 25.7387 92.9463 25.2989 92.9463 24.8545C92.9463 24.4101 93.0359 23.9702 93.2097 23.5612C93.3836 23.1522 93.6381 22.7825 93.958 22.4741C94.278 22.1657 94.6568 21.9249 95.072 21.7663C95.4871 21.6076 95.9299 21.5342 96.374 21.5506Z" fill="#EBB08F"/>
<path d="M112.999 30.9321V48.7735L110.382 50.0307C108.677 50.8477 106.775 51.1633 104.898 50.9407C103.021 50.7181 101.245 49.9665 99.7788 48.7735V31.1871L112.999 30.9321Z" fill="#F5CAAA"/>
<g style="mix-blend-mode:multiply" opacity="0.64">
<path fill-rule="evenodd" clip-rule="evenodd" d="M99.7788 40.3433V33.4062H112.999V39.8503C110.943 41.2664 108.504 42.0271 106.002 42.0272C103.807 42.0273 101.661 41.4424 99.7788 40.3433Z" fill="#EFCBBF"/>
</g>
<path d="M106.002 40.1702C104.52 40.1708 103.053 39.8795 101.684 39.313C100.315 38.7464 99.0715 37.9158 98.0237 36.8684C96.9759 35.8211 96.1448 34.5775 95.5777 33.2089C95.0106 31.8403 94.7187 30.3733 94.7188 28.8918V8.23193H117.28V28.8918C117.28 31.883 116.092 34.7517 113.977 36.8668C111.862 38.9819 108.993 40.1702 106.002 40.1702Z" fill="#F5CAAA"/>
<path d="M100.736 21.8278C100.622 21.8613 100.501 21.8613 100.387 21.8278C99.8812 21.6395 99.3296 21.612 98.8075 21.7489C98.2855 21.8858 97.8184 22.1805 97.4701 22.5928C97.4241 22.6604 97.365 22.7181 97.2962 22.7624C97.2274 22.8067 97.1504 22.8366 97.0698 22.8505C96.9892 22.8643 96.9066 22.8618 96.827 22.843C96.7474 22.8242 96.6724 22.7895 96.6064 22.741C96.5405 22.6926 96.4851 22.6313 96.4434 22.561C96.4017 22.4906 96.3746 22.4125 96.3638 22.3314C96.3529 22.2504 96.3585 22.1679 96.3803 22.0891C96.402 22.0102 96.4395 21.9366 96.4903 21.8725C96.9914 21.2557 97.6709 20.8089 98.4358 20.5935C99.2007 20.378 100.013 20.4044 100.763 20.669C100.889 20.7074 100.999 20.786 101.076 20.8929C101.154 20.9997 101.194 21.129 101.191 21.2608C101.188 21.3927 101.142 21.5199 101.06 21.6231C100.977 21.7263 100.864 21.7997 100.736 21.8322V21.8278Z" fill="#2C344F"/>
<path d="M112.104 22.7675C111.988 22.7425 111.882 22.6833 111.8 22.5975C111.44 22.1943 110.965 21.9118 110.439 21.7885C109.913 21.6652 109.362 21.7071 108.86 21.9085C108.717 21.9668 108.556 21.968 108.412 21.9119C108.267 21.8558 108.15 21.7467 108.083 21.6069C108.016 21.467 108.005 21.3069 108.052 21.1593C108.1 21.0116 108.201 20.8876 108.337 20.8125C109.068 20.5025 109.877 20.4264 110.654 20.5946C111.43 20.7628 112.135 21.1671 112.672 21.752C112.762 21.8461 112.82 21.9666 112.836 22.0958C112.853 22.2251 112.827 22.3562 112.764 22.4699C112.7 22.5837 112.602 22.6739 112.483 22.7275C112.364 22.7811 112.231 22.7951 112.104 22.7675Z" fill="#2C344F"/>
<path d="M116.766 21.5508V29.1562C117.729 29.0901 118.632 28.6607 119.291 27.9548C119.95 27.249 120.316 26.3192 120.316 25.3535C120.316 24.3878 119.95 23.458 119.291 22.7522C118.632 22.0463 117.729 21.6169 116.766 21.5508Z" fill="#EBB08F"/>
<path d="M99.6268 27.004C100.489 27.004 101.188 26.305 101.188 25.4427C101.188 24.5804 100.489 23.8813 99.6268 23.8813C98.7645 23.8813 98.0654 24.5804 98.0654 25.4427C98.0654 26.305 98.7645 27.004 99.6268 27.004Z" fill="#192035"/>
<path d="M109.751 27.004C110.613 27.004 111.312 26.305 111.312 25.4427C111.312 24.5804 110.613 23.8813 109.751 23.8813C108.888 23.8813 108.189 24.5804 108.189 25.4427C108.189 26.305 108.888 27.004 109.751 27.004Z" fill="#192035"/>
<g style="mix-blend-mode:multiply" opacity="0.26">
<path d="M128.102 54.7905L120.743 85.2882L99.3848 94.3432V103.344L132.804 102.235L128.102 54.7905Z" fill="#648BD8"/>
</g>
<path d="M112.435 91.7573C112.108 91.8915 104.49 93.6989 100.011 94.7547C99.098 94.9713 98.2844 95.4897 97.7023 96.2261C97.1202 96.9625 96.8036 97.8738 96.8037 98.8125V100.691L115.88 100.244L112.435 91.7573Z" fill="#F5CAAA"/>
<g style="mix-blend-mode:multiply" opacity="0.64">
<path d="M110.055 92.3826L113.826 104.006L119.123 100.454L114.305 91.2642L110.055 92.3826Z" fill="#6A9DEF"/>
</g>
<path d="M130.576 49.0015L152.833 90.2675L117.325 102.235L110.878 91.1131L133.359 82.9708L129.739 76.3094C127.826 72.8249 126.735 68.9487 126.551 64.9777C126.366 61.0067 127.093 57.0461 128.675 53.3992L130.576 49.0015Z" fill="#7BB2F9"/>
<path d="M151.589 99.479H8.32138C7.20705 99.479 6.30371 100.382 6.30371 101.497V102.414C6.30371 103.528 7.20705 104.431 8.32138 104.431H151.589C152.704 104.431 153.607 103.528 153.607 102.414V101.497C153.607 100.382 152.704 99.479 151.589 99.479Z" fill="#F2D7AD"/>
<path d="M65.0846 99.4791H16.8663L11.4575 60.5215H59.6758L65.0846 99.4791Z" fill="#D3DCE7"/>
<path d="M67.2899 96.0387L62.1719 60.5215H58.7495L64.1583 99.4791H66.507H68.6992H92.0567V96.0387H67.2899Z" fill="#B5C8DD"/>
<path d="M111.876 13.2874C111.876 13.2874 104.686 19.4835 96.4904 17.0051C88.2944 14.5266 89.0595 7.2925 89.0595 7.2925L91.265 8.23199C91.265 8.23199 90.509 3.92822 90.9921 2.13872C91.4753 0.349206 99.0762 2.7561 102.105 3.71348C105.134 4.67087 101.242 1.76292 101.036 1.39607C100.83 1.02922 105.63 -0.48739 111.388 1.84345C117.146 4.17428 122.72 10.3123 120.586 15.815C118.452 21.3178 119.414 23.2504 119.414 23.2504L117.28 24.1855H115.696L115.844 12.8668L115.012 12.9518L111.876 13.2874Z" fill="#2C344F"/>
<path fill-rule="evenodd" clip-rule="evenodd" d="M26.395 20.5785C26.395 9.70799 35.4077 0.894531 46.527 0.894531C57.6456 0.894531 66.659 9.70732 66.659 20.5785C66.659 31.4503 57.6456 40.2637 46.527 40.2637C35.4084 40.2637 26.395 31.4503 26.395 20.5791" fill="#A26EF4"/>
<path fill-rule="evenodd" clip-rule="evenodd" d="M54.2394 29.0793L39.6476 28.9946C39.4926 28.9937 39.3393 28.9623 39.1964 28.902C39.0536 28.8418 38.924 28.754 38.815 28.6436C38.7061 28.5333 38.6199 28.4025 38.5614 28.2587C38.5029 28.115 38.4732 27.9611 38.4741 27.8059L38.5222 19.5175C38.5231 19.3622 38.5545 19.2087 38.6146 19.0657C38.6747 18.9226 38.7624 18.7928 38.8726 18.6837C38.9829 18.5746 39.1135 18.4882 39.257 18.4297C39.4005 18.3711 39.5541 18.3414 39.7091 18.3423L54.3003 18.427C54.9527 18.4311 55.4778 18.9631 55.4744 19.6164L55.4264 27.9042C55.4255 28.0594 55.3941 28.2129 55.334 28.356C55.2738 28.499 55.1862 28.6288 55.0759 28.7379C54.9657 28.8471 54.8351 28.9334 54.6916 28.9919C54.5481 29.0505 54.3944 29.0802 54.2394 29.0793Z" fill="white"/>
<path fill-rule="evenodd" clip-rule="evenodd" d="M49.8777 20.6437C49.8675 22.3757 48.483 23.7718 46.7853 23.7623C45.0877 23.7529 43.7195 22.3408 43.7297 20.6081L43.7569 15.9536C43.7678 14.2215 45.1523 12.8255 46.8493 12.8349C48.5469 12.845 49.9151 14.2571 49.9056 15.9892L49.8784 20.6437H49.8777ZM46.7942 11.1842C45.5528 11.1772 44.3594 11.6574 43.4765 12.5192C42.5937 13.381 42.0937 14.5537 42.0865 15.7795L42.0572 20.7317C42.0536 21.3387 42.1712 21.9405 42.4031 22.5026C42.6351 23.0648 42.9769 23.5763 43.409 24.008C44.2818 24.8799 45.4696 25.3737 46.7111 25.3808C47.9526 25.388 49.1462 24.9078 50.0292 24.046C50.9121 23.1842 51.4123 22.0114 51.4195 20.7855L51.4481 15.8333C51.4551 14.6074 50.9688 13.429 50.0961 12.5572C49.2233 11.6853 48.0356 11.1914 46.7942 11.1842Z" fill="white"/>
</svg>
