<svg width="42" height="26" viewBox="0 0 42 26" fill="none" xmlns="http://www.w3.org/2000/svg">
<path d="M33.8203 3.92017C31.5845 3.92017 29.6609 5.39602 28.8907 7.47115C28.8505 7.57709 28.7143 8.01537 28.7143 8.01537L25.6017 21.5607H32.7512C35.2075 21.5607 37.2862 19.7802 37.8749 17.3799C37.8749 17.3809 37.8744 17.3809 37.8744 17.3813H37.8749L40.9668 3.92017H33.8203Z" fill="#16B14B"/>
<path d="M21.9161 0C19.5226 0 17.5024 1.62905 16.8754 3.85211C16.8283 4.01818 16.7899 4.18805 16.759 4.35982L11.9061 25.4811H19.0495C21.4974 25.4811 23.5561 23.7769 24.1313 21.4762H24.1332L29.0677 0.000210901H21.9161V0Z" fill="#F27227"/>
<path d="M8.21709 3.91964C5.8998 3.91964 3.91808 5.50396 3.20683 7.69895C3.1915 7.74812 3.17575 7.7975 3.16084 7.84688L3.04156 8.31913L0 21.5602H7.32209C9.50961 21.5602 11.3878 20.1015 12.1171 18.0578L12.4071 16.7978L15.3649 3.91943H8.21709V3.91964Z" fill="#1169B0"/>
<path d="M6.88069 8.31836L6.87775 8.32997H6.76687C6.25658 8.32997 5.7757 8.51271 5.33534 8.87397C4.91094 9.22151 4.63248 9.64481 4.5361 9.99193H4.53211L2.89226 17.1498L2.9855 17.1486C3.50124 17.1486 3.98864 16.965 4.4311 16.6001C4.87608 16.2374 5.1602 15.7915 5.27507 15.2773L5.63353 13.7238L8.89475 13.7246C9.4044 13.7246 9.89621 13.5334 10.3412 13.1726C10.7851 12.812 11.0686 12.369 11.1831 11.8561L11.2036 11.7622L6.08754 11.7584L6.42836 10.2825L10.8597 10.276C11.3697 10.276 11.8515 10.0951 12.291 9.73702C12.7295 9.37808 13.0037 8.92714 13.1266 8.4188L13.1492 8.32406L6.88069 8.31836Z" fill="white"/>
<path d="M24.9701 8.75305C24.6882 8.46924 24.321 8.32553 23.8775 8.32553L17.6236 8.31836L15.6039 17.1386H15.6064L15.6039 17.15L15.6971 17.1488C16.2131 17.1488 16.6998 16.9652 17.1429 16.6003C17.5877 16.2376 17.8714 15.7917 17.9867 15.2775L18.3498 13.706L22.6792 13.71C23.1874 13.71 23.6416 13.6514 24.0822 13.2943C24.5207 12.9379 24.8329 12.3718 24.9568 11.851L25.3369 10.2167C25.3646 10.0877 25.3804 9.95268 25.3831 9.8151C25.3905 9.39412 25.2521 9.03624 24.9701 8.75305ZM23.0186 11.7571L18.8004 11.7531L19.1417 10.2745L23.3602 10.2789L23.0186 11.7571Z" fill="white"/>
<path d="M37.694 8.75872C37.4177 8.47469 37.0502 8.33057 36.6048 8.33057H33.8503H33.6766H30.0059L29.9929 8.39324C29.9633 8.53167 29.9473 8.65912 29.945 8.78172C29.9379 9.21177 30.0748 9.57409 30.3524 9.85959C30.6298 10.143 30.9967 10.2869 31.4425 10.2869H32.8232L31.2506 17.1504L31.344 17.1492C31.8598 17.1492 32.3467 16.9656 32.7896 16.6007C33.2346 16.238 33.5183 15.7921 33.6332 15.2779L34.7858 10.2867H38.0414L38.0548 10.2242C38.0827 10.0932 38.0979 9.95835 38.1004 9.82351C38.1073 9.39937 37.9717 9.04127 37.694 8.75872Z" fill="white"/>
<path d="M38.9761 20.0396C38.9761 19.2031 39.6544 18.5217 40.4874 18.5217C41.3226 18.5217 42 19.2031 42 20.0396C42 20.8773 41.3223 21.5597 40.4874 21.5597C39.6544 21.5597 38.9761 20.8773 38.9761 20.0396ZM41.6329 20.0396C41.6329 19.3295 41.1214 18.8144 40.4874 18.8144C39.8562 18.8144 39.3455 19.3293 39.3455 20.0396C39.3455 20.7511 39.8562 21.2649 40.4874 21.2649C41.1216 21.2649 41.6329 20.7511 41.6329 20.0396ZM39.9063 19.1725H40.5428C40.953 19.1725 41.1766 19.316 41.1766 19.6783C41.1766 19.9731 41.008 20.1153 40.727 20.1409L41.1875 20.8933H40.861L40.4177 20.1518H40.2249V20.8933H39.9061V19.1725H39.9063ZM40.2249 19.9096H40.5063C40.693 19.9096 40.857 19.8828 40.857 19.6534C40.857 19.4494 40.6737 19.4171 40.5101 19.4171H40.2251V19.9096H40.2249Z" fill="#1169B0"/>
</svg>
