<svg width="12" height="12" viewBox="0 0 12 12" fill="none" xmlns="http://www.w3.org/2000/svg">
<g clip-path="url(#clip0)">
<path d="M12 5.9974C12.0004 7.00657 11.7463 7.99955 11.2612 8.88446C10.776 9.76936 10.0755 10.5176 9.22445 11.0599C8.37339 11.6023 7.39929 11.9212 6.39228 11.9872C5.38527 12.0531 4.37788 11.8641 3.46333 11.4374C2.48889 10.9828 1.65452 10.2747 1.0475 9.38715C0.440489 8.4996 0.0831393 7.46524 0.0128389 6.39228C-0.0574615 5.31931 0.161871 4.24717 0.647891 3.28801C1.13391 2.32885 1.86876 1.51792 2.77555 0.940067C3.68235 0.362209 4.72777 0.0386553 5.80246 0.0032535C6.87714 -0.0321484 7.9416 0.221903 8.88446 0.73883C9.82732 1.25576 10.6139 2.01656 11.162 2.94166C11.7101 3.86675 11.9995 4.92213 12 5.9974Z" fill="#0058E9"/>
<path d="M10.4796 10.0006C9.62229 10.9606 8.479 11.6196 7.21852 11.8801C5.95805 12.1406 4.64721 11.9888 3.47958 11.4473L1.90625 9.88059H2.03625C2.45375 9.89429 2.86975 9.82401 3.25958 9.67392C3.30732 9.65217 3.35629 9.63324 3.40625 9.61726C3.42571 9.61065 3.4468 9.61065 3.46625 9.61726C3.67625 9.73059 3.88292 9.85392 4.09958 9.95059C4.56292 10.1686 5.0509 10.3297 5.55292 10.4306C6.15054 10.5531 6.75958 10.6112 7.36958 10.6039C7.98809 10.5992 8.60412 10.5254 9.20625 10.3839L9.28625 10.3639L9.36625 10.3439L9.44625 10.3206L9.55625 10.2906H9.59958L9.71292 10.2573L9.79958 10.2273C9.86625 10.2073 9.93292 10.1839 9.99958 10.1573L10.0763 10.1306L10.1529 10.1006L10.2296 10.0673L10.3229 10.0273L10.3696 10.0073L10.4796 10.0006Z" fill="#0058E9"/>
<path d="M6.03101 -0.00976562C4.58818 -0.00960863 3.19306 0.506018 2.09812 1.44381C2.0101 1.59101 1.93056 1.74308 1.85986 1.89931C1.66315 2.32788 1.51568 2.77731 1.42026 3.239C1.36993 3.47345 1.34308 3.71125 1.30617 3.94904C1.25362 4.34868 1.2379 4.75227 1.25919 5.15477C1.27725 5.64371 1.3447 6.12958 1.46053 6.605C1.57713 7.09338 1.75292 7.56575 1.98402 8.01168C2.06318 8.16328 2.15172 8.30981 2.24912 8.45043C2.32855 8.57342 2.36073 8.72093 2.33973 8.86574C2.30796 9.21315 2.16024 9.53985 1.92026 9.79348C1.90842 9.8042 1.89824 9.81661 1.89006 9.83032C1.86993 9.86047 1.86657 9.88726 1.89006 9.90401H2.02093C2.44124 9.91777 2.86003 9.84716 3.25248 9.69635C3.30053 9.67449 3.34983 9.65548 3.40013 9.63941C3.41972 9.63278 3.44095 9.63278 3.46053 9.63941C3.67194 9.75329 3.88 9.87721 4.09812 9.97434C4.56456 10.1934 5.05582 10.3553 5.56121 10.4566C6.16285 10.5797 6.77596 10.6381 7.39007 10.6308C8.01272 10.626 8.63289 10.5519 9.23906 10.4097L9.3196 10.3896L9.40014 10.3696L9.48067 10.3461L9.59141 10.316H9.63504L9.74913 10.2825L9.83638 10.2523C9.90349 10.2322 9.97061 10.2088 10.0377 10.182L10.1149 10.1552L10.1921 10.1251L10.2693 10.0916L10.3632 10.0514L10.4102 10.0313L10.4975 9.99444C11.2591 9.12803 11.7559 8.06188 11.9291 6.92229C12.1022 5.78271 11.9444 4.61748 11.4744 3.56466C11.0043 2.51184 10.2418 1.61558 9.277 0.982065C8.31224 0.348552 7.18575 0.00434589 6.03101 -0.00976562Z" fill="white"/>
<path d="M2.82981 3.93066H5.13981V3.97066C5.15613 4.12361 5.1171 4.27735 5.02981 4.404L3.50648 6.334L3.44315 6.414H5.06648C5.12648 6.414 5.14981 6.43066 5.14315 6.49066C5.13648 6.55066 5.14315 6.63066 5.14315 6.70066C5.14229 6.72212 5.13721 6.74319 5.1282 6.76268C5.11919 6.78217 5.10642 6.7997 5.09063 6.81425C5.07484 6.8288 5.05634 6.84009 5.03618 6.84749C5.01602 6.85488 4.9946 6.85822 4.97315 6.85733C4.89648 6.85733 4.81981 6.85733 4.74315 6.85733H2.84981C2.78315 6.85733 2.77315 6.83733 2.76981 6.774C2.7654 6.63414 2.8129 6.4976 2.90315 6.39066C3.26315 5.95066 4.43648 4.484 4.45648 4.454H2.83981L2.82981 3.93066Z" fill="#0064FF"/>
<path d="M7.53314 4.73393C7.53314 4.69393 7.53314 4.67393 7.4798 4.67393H7.14647C7.10647 4.67393 7.09647 4.6906 7.09647 4.72393C7.09647 4.75726 7.09647 4.78393 7.09647 4.8306C6.97547 4.73935 6.83688 4.67418 6.68944 4.63918C6.54199 4.60419 6.38889 4.60013 6.2398 4.62726C6.0911 4.64999 5.94889 4.70391 5.82251 4.78549C5.69612 4.86706 5.58842 4.97445 5.50647 5.1006C5.37111 5.29932 5.3035 5.53643 5.31371 5.77666C5.32392 6.01689 5.4114 6.24741 5.56314 6.43393C5.71299 6.62414 5.92363 6.75712 6.1598 6.8106C6.31928 6.85064 6.48562 6.85496 6.64697 6.82327C6.80831 6.79158 6.96066 6.72465 7.09314 6.62726C7.09314 6.64393 7.09314 6.6506 7.09314 6.6606C7.09475 6.68563 7.10148 6.71006 7.11292 6.73239C7.12436 6.75471 7.14025 6.77445 7.15962 6.79039C7.179 6.80632 7.20143 6.81811 7.22554 6.82503C7.24965 6.83195 7.27493 6.83384 7.2998 6.8306H7.48314C7.52647 6.8306 7.5398 6.8306 7.5398 6.77393C7.5298 6.10726 7.53314 5.4206 7.53314 4.73393ZM6.4098 6.4006C6.23034 6.4006 6.05823 6.3293 5.93133 6.2024C5.80443 6.0755 5.73314 5.90339 5.73314 5.72393C5.73314 5.54447 5.80443 5.37235 5.93133 5.24545C6.05823 5.11855 6.23034 5.04726 6.4098 5.04726C6.49877 5.04723 6.58684 5.06501 6.66883 5.09956C6.75082 5.1341 6.82507 5.1847 6.8872 5.24838C6.94933 5.31206 6.99808 5.38753 7.03059 5.47035C7.06309 5.55317 7.07869 5.64166 7.07647 5.7306C7.07869 5.81954 7.06309 5.90802 7.03059 5.99084C6.99808 6.07366 6.94933 6.14913 6.8872 6.21281C6.82507 6.27649 6.75082 6.3271 6.66883 6.36164C6.58684 6.39618 6.49877 6.41396 6.4098 6.41393V6.4006Z" fill="#0064FF"/>
<path d="M9.91313 4.60386C9.68776 4.60254 9.46708 4.66825 9.27914 4.79264C9.09119 4.91703 8.94447 5.09449 8.85762 5.30246C8.77076 5.51042 8.74769 5.73952 8.79133 5.96063C8.83498 6.18174 8.94337 6.38489 9.10274 6.54425C9.2621 6.70362 9.46525 6.81201 9.68636 6.85566C9.90747 6.8993 10.1366 6.87623 10.3445 6.78937C10.5525 6.70252 10.73 6.5558 10.8543 6.36785C10.9787 6.17991 11.0444 5.95923 11.0431 5.73386C11.0431 5.43417 10.9241 5.14675 10.7122 4.93483C10.5002 4.72291 10.2128 4.60386 9.91313 4.60386ZM9.91313 6.41719C9.82248 6.4195 9.73231 6.40329 9.64814 6.36956C9.56397 6.33582 9.48757 6.28527 9.42361 6.221C9.35964 6.15672 9.30947 6.08008 9.27614 5.99574C9.24282 5.91141 9.22705 5.82116 9.2298 5.73053C9.23242 5.64101 9.25266 5.55289 9.28934 5.47119C9.32602 5.38949 9.37844 5.31582 9.44359 5.25437C9.50875 5.19293 9.58537 5.14493 9.66908 5.1131C9.75279 5.08126 9.84195 5.06623 9.93146 5.06886C10.021 5.07149 10.1091 5.09172 10.1908 5.1284C10.2725 5.16509 10.3462 5.2175 10.4076 5.28266C10.4691 5.34781 10.5171 5.42443 10.5489 5.50814C10.5807 5.59185 10.5958 5.68101 10.5931 5.77053C10.5879 5.94677 10.5131 6.11376 10.385 6.23496C10.2569 6.35615 10.0861 6.42168 9.9098 6.41719H9.91313Z" fill="#0064FF"/>
<path d="M8.43314 6.84728C8.31314 6.84728 8.1998 6.84728 8.0998 6.84728C8.08036 6.84743 8.06112 6.84342 8.04335 6.83554C8.02558 6.82765 8.0097 6.81606 7.99676 6.80155C7.98383 6.78704 7.97413 6.76993 7.96834 6.75138C7.96254 6.73282 7.96077 6.71324 7.96314 6.69395C7.96314 6.57728 7.96314 6.45728 7.96314 6.33728C7.96314 5.5595 7.96314 4.78172 7.96314 4.00395C7.96314 3.95061 7.96314 3.93061 8.03314 3.93395C8.14647 3.93395 8.26314 3.93395 8.36647 3.93395C8.4198 3.93395 8.43647 3.93395 8.43647 4.00061V6.85061L8.43314 6.84728Z" fill="#0064FF"/>
</g>
<defs>
<clipPath id="clip0">
<rect width="12" height="12" fill="white"/>
</clipPath>
</defs>
</svg>
