<svg width="13" height="14" viewBox="0 0 13 14" xmlns="http://www.w3.org/2000/svg">
<path d="M10.1811 9.9439L8.8814 9.5108L8.41485 8.57765C8.8352 8.1498 9.127 7.58375 9.22545 6.9933L9.2836 6.64455H9.78125C10.2336 6.64455 10.6016 6.27655 10.6016 5.8242V4.10156C10.6016 1.83996 8.7616 0 6.5 0C4.2326 0 2.39844 1.83469 2.39844 4.10156V5.8242C2.39844 6.18065 2.62706 6.4846 2.94531 6.5975V6.91795C2.94531 7.3703 3.3133 7.7383 3.76562 7.7383H4.00576C4.1243 7.9958 4.27772 8.23425 4.46442 8.4485C4.50314 8.493 4.54353 8.53615 4.5849 8.57815L4.11858 9.5108L2.8189 9.94395C1.30775 10.4478 0.210938 12.0387 0.210938 13.7266C0.210938 13.8776 0.333356 14 0.484375 14H12.5156C12.6666 14 12.7891 13.8776 12.7891 13.7266C12.7891 12.0387 11.6923 10.4479 10.1811 9.9439ZM10.0547 5.8242C10.0547 5.975 9.932 6.09765 9.78125 6.09765H9.36395C9.43345 5.55925 9.47975 4.98632 9.4984 4.42203C9.49895 4.40611 9.49935 4.39064 9.49985 4.375H10.0547V5.8242ZM3.21875 6.09765C3.06797 6.09765 2.94531 5.975 2.94531 5.8242V4.375H3.50033C3.50124 4.40352 3.50219 4.43218 3.50326 4.46103C3.50329 4.46201 3.50335 4.46297 3.50337 4.46395C3.50337 4.46403 3.50337 4.46411 3.50337 4.46419C3.52251 5.01305 3.56823 5.5711 3.63615 6.09765H3.21875ZM3.76562 7.1914C3.61485 7.1914 3.49219 7.06875 3.49219 6.91795V6.64455H3.71635L3.77454 6.9934C3.78564 7.0597 3.79928 7.1258 3.81506 7.1914H3.76562ZM3.49265 3.82812H2.9557C3.0942 1.99552 4.62359 0.546875 6.5 0.546875C8.36805 0.546875 9.9042 1.99533 10.0442 3.82812H9.5074C9.4877 2.31801 8.25795 1.09375 6.74475 1.09375H6.2553C4.74213 1.09375 3.51231 2.31801 3.49265 3.82812ZM6.25525 1.64062H6.74475C7.96995 1.64062 8.96165 2.6428 8.96095 3.86668C8.96095 3.95273 8.96025 4.02765 8.9588 4.09582C8.9588 4.09669 8.9588 4.0976 8.9588 4.0985L8.61675 4.04963C7.6876 3.91696 6.8103 3.47832 6.14645 2.81447C6.0952 2.7632 6.02565 2.73438 5.9531 2.73438C5.2188 2.73438 4.51583 3.06896 4.05115 3.63421C4.16566 2.5208 5.1069 1.64062 6.25525 1.64062ZM4.38196 7.1914C4.24507 6.73605 4.08845 5.3962 4.05383 4.53761L4.42184 4.04691C4.75984 3.59639 5.2857 3.31647 5.84505 3.28434C6.58105 3.98477 7.53325 4.44733 8.53945 4.59099L8.942 4.64852C8.9151 5.2196 8.8601 5.79265 8.7813 6.3197C8.7813 6.3199 8.78125 6.32005 8.78125 6.32025C8.7562 6.4897 8.73645 6.59875 8.686 6.90335C8.5412 7.7719 7.8931 8.55735 7.03755 8.77125C6.68545 8.8592 6.3145 8.85915 5.9626 8.77125C5.42835 8.63775 4.93854 8.2681 4.62242 7.7383H5.17985C5.2927 8.05655 5.59665 8.28515 5.9531 8.28515H6.5C6.9532 8.28515 7.3203 7.9181 7.3203 7.46485C7.3203 7.0125 6.9523 6.64455 6.5 6.64455H5.9531C5.5887 6.64455 5.28925 6.8799 5.1794 7.1914H4.38196ZM5.93015 9.32465C6.1177 9.36415 6.3089 9.3844 6.5 9.3844C6.6496 9.3844 6.7992 9.37185 6.94715 9.34755L6.464 9.85855L5.93015 9.32465ZM6.08805 10.2561L5.2208 11.1733C4.98201 10.7162 4.77685 10.2406 4.60858 9.7536L4.93427 9.10225L6.08805 10.2561ZM8.0194 9.0096L8.39135 9.7536C8.2228 10.2414 8.0176 10.7171 7.7791 11.1736L6.8508 10.2453L8.0194 9.0096ZM5.6797 7.46485C5.6797 7.3139 5.80215 7.1914 5.9531 7.1914H6.5C6.65075 7.1914 6.77345 7.31405 6.77345 7.46485C6.77345 7.61585 6.65095 7.7383 6.5 7.7383H5.9531C5.80235 7.7383 5.6797 7.6156 5.6797 7.46485ZM0.76875 13.4531C0.877115 12.0986 1.77861 10.8673 2.99185 10.4628L4.14286 10.0792C4.35373 10.6623 4.61497 11.229 4.92114 11.7674C4.92166 11.7683 4.92216 11.7692 4.92268 11.7701C4.92268 11.7701 4.92271 11.7702 4.92271 11.7702C5.1464 12.1636 5.3982 12.5481 5.67115 12.9131L6.00755 13.4531H0.76875ZM6.5 13.2094L6.12915 12.614C6.125 12.6073 6.1206 12.6008 6.11585 12.5946C5.89445 12.2992 5.6879 11.9903 5.49975 11.6742L6.47495 10.6429L7.50245 11.6704C7.31305 11.9889 7.1058 12.2991 6.8842 12.5946C6.8708 12.6124 6.8898 12.5843 6.5 13.2094ZM6.99245 13.4531L7.3288 12.9131C7.603 12.5467 7.8566 12.1591 8.0825 11.7611C8.0839 11.7587 8.08515 11.7563 8.08655 11.7538C8.0867 11.7535 8.08685 11.7532 8.08705 11.7529C8.3893 11.2197 8.6478 10.6579 8.85715 10.0792L10.0081 10.4628C11.2214 10.8673 12.1229 12.0986 12.2312 13.4531H6.99245Z" fill="#36c190"/>
</svg>
