<svg width="13" height="14" viewBox="0 0 13 14" fill="none" xmlns="http://www.w3.org/2000/svg">
<g clip-path="url(#clip0)">
<path d="M13 4.40031V7.22966C13 8.07729 12.7094 8.8766 12.1815 9.47942C11.7452 9.97806 11.19 10.2953 10.5867 10.3981L11.5541 14L6.76982 10.4347H2.84717C2.07799 10.4347 1.35692 10.0948 0.818466 9.47942C0.2906 8.87631 0 8.07782 0 7.22966V4.40031C0 3.55266 0.2906 2.75337 0.818466 2.15054C1.35744 1.5345 2.07852 1.19531 2.84717 1.19531H5.65067V1.875H2.84717C1.65209 1.875 0.679765 3.00786 0.679765 4.40031V7.22966C0.679765 8.62209 1.65209 9.75493 2.84717 9.75493H6.9953L10.3889 12.2843L9.70917 9.75493H10.1524C11.3475 9.75493 12.3197 8.62209 12.3197 7.22966V4.40031C12.3197 3.00786 11.3475 1.875 10.1524 1.875H9.82078V1.19531H10.153C10.922 1.19531 11.6432 1.53516 12.1815 2.15054C12.7094 2.75363 13 3.55266 13 4.40031Z" fill="#36c190"/>
<path d="M9.82083 2.45014L9.36693 1.99632L8.91309 2.45014L8.27826 3.08487V2.45014V1.86195V1.18227V0.724785V0H7.53851V0.724785V1.18227V1.86195V2.45014V3.08199L6.90661 2.45014L6.45272 1.99632L5.99883 2.45014L5.92969 2.51929L7.90704 4.49652L7.91002 4.49352L7.91277 4.49626L9.88997 2.51929L9.82083 2.45014Z" fill="#36c190"/>
</g>
<defs>
<clipPath id="clip0">
<rect width="13" height="14" fill="#36c190"/>
</clipPath>
</defs>
</svg>
