<svg width="27" height="20" viewBox="0 0 27 20" fill="none" xmlns="http://www.w3.org/2000/svg">
<path d="M26.9999 0V5.29148H22.3146V3.46786H21.6656L18.6797 6.84006L17.5483 5.56233L20.8323 1.85351H22.3146V0H26.9999ZM25.5573 3.69208V1.56951H23.6779V3.69208H25.5573Z" fill="#292929"/>
<path d="M27.0003 6.99554V12.287H22.315V10.5492H18.1382V8.74233H22.315V6.99554H27.0003ZM25.5576 10.7175V8.59495H23.6782V10.7175H25.5576Z" fill="#292929"/>
<path d="M26.9999 13.8714V19.1629H22.3146V17.3393H20.7264V17.3094L20.7224 17.3139L17.5483 13.7291L18.6797 12.4514L21.5253 15.6652H22.3146V13.8714H26.9999ZM25.5573 17.5635V15.441H23.6779V17.5635H25.5573Z" fill="#292929"/>
<path d="M15.4456 8.32675C15.6159 8.32797 15.7844 8.36706 15.9413 8.4418C16.0983 8.51655 16.2407 8.62547 16.3603 8.76236C16.48 8.89924 16.5747 9.06141 16.6388 9.2396C16.703 9.4178 16.7355 9.60852 16.7344 9.80089C16.7334 9.99326 16.6987 10.1835 16.6326 10.3608C16.5664 10.538 16.4699 10.6988 16.3487 10.834C16.2275 10.9692 16.0839 11.076 15.9262 11.1485C15.7684 11.221 15.5995 11.2577 15.4292 11.2565V16.9405C15.4492 17.037 15.4509 17.1372 15.4342 17.2344C15.4175 17.3317 15.3828 17.4239 15.3323 17.505C15.2819 17.586 15.2168 17.6541 15.1413 17.7047C15.0659 17.7554 14.9818 17.7874 14.8947 17.7987C14.8075 17.8101 14.7192 17.8005 14.6356 17.7705C14.5519 17.7406 14.4748 17.691 14.4094 17.625C14.3439 17.559 14.2915 17.4782 14.2557 17.3877C14.2199 17.2972 14.2014 17.1992 14.2015 17.1001C14.2015 17.09 14.2015 17.0801 14.2015 17.0702H14.1882C14.1882 17.0702 12.4941 14.4096 6.96176 13.423V14.2003H5.32059L5.87647 17.1898C5.87647 17.1898 6.08823 18.3558 7.06765 18.1166L7.47053 19.9082C7.47299 19.9191 7.47322 19.9305 7.47119 19.9415C7.46916 19.9524 7.46493 19.9628 7.45883 19.9716C7.45272 19.9805 7.4449 19.9877 7.43596 19.9926C7.42702 19.9975 7.41721 20 7.40726 20H4.31021L2.91176 14.0508C2.91176 14.0508 1.16471 14.0209 0.979412 12.4963V11.5513C0.979412 11.5513 0 11.6891 0 10.7922V9.7704H0.0164118V8.75396C0.0164118 7.85709 0.995823 7.99491 0.995823 7.99491V7.04992C1.18112 5.52526 2.92818 5.49536 2.92818 5.49536L5.337 5.34588H6.97818V6.12316C12.3901 5.15814 14.1287 2.59132 14.2017 2.48131C14.2012 2.29498 14.2663 2.11607 14.3826 1.98392C14.4989 1.85178 14.657 1.77723 14.8219 1.77668C14.9869 1.77612 15.1453 1.84961 15.2623 1.98097C15.3794 2.11232 15.4454 2.2908 15.4459 2.47712L15.4456 8.32675ZM5.43971 11.406V7.28041H2.42206V11.406H5.43971Z" fill="#292929"/>
</svg>
