<svg width="14" height="14" viewBox="0 0 14 14" fill="none" xmlns="http://www.w3.org/2000/svg">
<path d="M12.25 7.63427V7.19679C12.3708 7.19679 12.4688 7.09885 12.4688 6.97803V5.66551C12.4688 5.54469 12.3708 5.44679 12.25 5.44679H11.0688L11.0263 5.28248C10.9296 4.90665 10.7794 4.54666 10.5801 4.21366L10.4926 4.06729L11.3312 3.22715C11.4156 3.14255 11.4156 3.00549 11.3312 2.9209L10.4023 1.99053C10.3164 1.90876 10.1817 1.90876 10.0959 1.99053L9.25571 2.83075L9.10938 2.74325C8.77587 2.54381 8.41555 2.39359 8.03921 2.29678L7.875 2.25405V1.07178C7.875 0.950953 7.77705 0.853025 7.65623 0.853025H6.34376C6.22295 0.853025 6.125 0.950953 6.125 1.07178V2.25303L5.96068 2.2955C5.58486 2.39214 5.2249 2.54236 4.89171 2.74145L4.74533 2.82904L3.90537 1.99053C3.81949 1.90807 3.68388 1.90807 3.59801 1.99053L2.66875 2.91953C2.6279 2.96029 2.60492 3.01566 2.60492 3.07334C2.60492 3.13111 2.6279 3.18639 2.66875 3.22715L3.50897 4.06729L3.42147 4.21366C3.2222 4.54666 3.0719 4.90665 2.97526 5.28248L2.93236 5.44679H1.75C1.62917 5.44679 1.53125 5.54469 1.53125 5.66551V6.97803C1.53125 7.09885 1.62917 7.19679 1.75 7.19679V7.63427C1.3876 7.63427 1.09375 7.34042 1.09375 6.97803V5.66551C1.09375 5.30316 1.3876 5.00928 1.75 5.00928H2.59637C2.68661 4.70679 2.80863 4.41472 2.96039 4.13804L2.35882 3.53648C2.23578 3.41369 2.16665 3.24706 2.16665 3.07334C2.16665 2.89962 2.23578 2.733 2.35882 2.61029L3.28851 1.6806C3.54751 1.43271 3.95587 1.43271 4.21487 1.6806L4.81626 2.28191C5.09294 2.13024 5.38507 2.00847 5.68752 1.91832V1.07178C5.68752 0.709385 5.98137 0.415527 6.34376 0.415527H7.65623C8.01863 0.415527 8.31252 0.709385 8.31252 1.07178V1.91832C8.61497 2.00847 8.90695 2.13049 9.18374 2.28217L9.78532 1.6806C10.0444 1.43271 10.4527 1.43271 10.7118 1.6806L11.6413 2.61004C11.7642 2.73283 11.8333 2.89928 11.8333 3.07308C11.8333 3.24689 11.7642 3.41352 11.6413 3.53622L11.0397 4.13778C11.1914 4.41464 11.3133 4.70679 11.4036 5.00928H12.25C12.6124 5.00928 12.9062 5.30316 12.9062 5.66551V6.97803C12.9062 7.34042 12.6124 7.63427 12.25 7.63427Z" fill="#292929"/>
<path d="M10.0625 6.32202H9.625C9.625 4.87229 8.44973 3.69702 7 3.69702C5.55027 3.69702 4.375 4.87229 4.375 6.32202H3.9375C3.9375 4.63064 5.30859 3.25952 7 3.25952C8.6913 3.25952 10.0625 4.63064 10.0625 6.32202Z" fill="#292929"/>
<path d="M6.99997 8.07202C6.27509 8.07202 5.6875 7.48428 5.6875 6.7595C5.6875 6.03466 6.27509 5.44702 6.99997 5.44702C7.72491 5.44702 8.3125 6.03466 8.3125 6.7595C8.31172 7.48413 7.7246 8.07124 6.99997 8.07202ZM6.99997 5.8845C6.51677 5.8845 6.12497 6.27629 6.12497 6.7595C6.12497 7.24275 6.51677 7.6345 6.99997 7.6345C7.48318 7.6345 7.87497 7.24275 7.87497 6.7595C7.87497 6.27629 7.48318 5.8845 6.99997 5.8845Z" fill="#292929"/>
<path d="M10.7188 8.94702C9.99389 8.94702 9.40625 8.35928 9.40625 7.63455C9.40625 6.90966 9.99389 6.32202 10.7188 6.32202C11.4436 6.32202 12.0312 6.90966 12.0312 7.63455C12.0305 8.35913 11.4434 8.94624 10.7188 8.94702ZM10.7188 6.75955C10.2356 6.75955 9.84378 7.15129 9.84378 7.63455C9.84378 8.11776 10.2356 8.50955 10.7188 8.50955C11.202 8.50955 11.5938 8.11776 11.5938 7.63455C11.5938 7.15129 11.202 6.75955 10.7188 6.75955Z" fill="#292929"/>
<path d="M3.28125 8.94702C2.55638 8.94702 1.96875 8.35928 1.96875 7.63455C1.96875 6.90966 2.55638 6.32202 3.28125 6.32202C4.0062 6.32202 4.59375 6.90966 4.59375 7.63455C4.59298 8.35913 4.00586 8.94624 3.28125 8.94702ZM3.28125 6.75955C2.79803 6.75955 2.40625 7.15129 2.40625 7.63455C2.40625 8.11776 2.79803 8.50955 3.28125 8.50955C3.76446 8.50955 4.15625 8.11776 4.15625 7.63455C4.15625 7.15129 3.76446 6.75955 3.28125 6.75955Z" fill="#292929"/>
<path d="M12.7018 9.50826C12.3758 9.28421 11.9894 9.16464 11.5938 9.16578H9.84376C9.73736 9.16672 9.63117 9.17636 9.52633 9.19456C9.38633 8.97564 9.20427 8.7868 8.99064 8.63871C8.9586 8.61455 8.9249 8.59256 8.88979 8.57317C8.58381 8.38785 8.23267 8.29027 7.875 8.29078H6.125C5.45601 8.2884 4.83267 8.62974 4.47429 9.19456C4.36919 9.17636 4.26281 9.16672 4.15625 9.16578H2.40625C2.01096 9.16464 1.62456 9.28401 1.29874 9.5078C0.760241 9.87424 0.437842 10.4832 0.4375 11.1345V12.0095C0.438269 12.6068 0.785789 13.1493 1.32831 13.3994C1.5286 13.4938 1.74744 13.542 1.96875 13.5408H4.15625V13.1033H2.1875V10.697H1.75V13.0813C1.66763 13.0648 1.58765 13.0382 1.51177 13.0022C1.12426 12.8235 0.875856 12.4362 0.875 12.0095V11.1345C0.875513 10.6276 1.12665 10.1538 1.54569 9.86874C1.79888 9.69493 2.09906 9.60243 2.40625 9.60326H4.15625C4.19479 9.60326 4.23196 9.60735 4.26955 9.60995C4.19556 9.8186 4.15719 10.0382 4.15625 10.2595V12.447C4.15702 13.0508 4.6463 13.54 5.25 13.5408H5.90624V10.0408H5.46876V13.1033H5.25C4.88761 13.1033 4.59375 12.8094 4.59375 12.447V10.2595C4.59375 9.41374 5.2794 8.72826 6.125 8.72826H7.875C8.15645 8.72841 8.4323 8.80635 8.67233 8.95335C8.69457 8.96548 8.71588 8.97917 8.73616 8.99421C8.94113 9.13457 9.10939 9.32212 9.22662 9.54104C9.34448 9.76218 9.40624 10.0089 9.40624 10.2595V12.447C9.40624 12.8094 9.11239 13.1033 8.75 13.1033H8.53124V10.0408H8.09376V13.5408H8.75C9.35376 13.54 9.84298 13.0508 9.84376 12.447V10.2595C9.84273 10.0382 9.80451 9.8187 9.73062 9.60995C9.76832 9.60735 9.8055 9.60326 9.84376 9.60326H11.5938C11.9011 9.60243 12.2016 9.69519 12.4549 9.86921C12.8736 10.1544 13.1244 10.6279 13.125 11.1345V12.0095C13.1242 12.4377 12.8739 12.8262 12.4846 13.0039C12.4098 13.0393 12.331 13.0653 12.25 13.0813V10.697H11.8125V13.1033H9.84376V13.5408H12.0312C12.2513 13.5421 12.4688 13.4945 12.668 13.4011C13.2123 13.1517 13.5616 12.6083 13.5625 12.0095V11.1345C13.5622 10.4835 13.24 9.87475 12.7018 9.50826Z" fill="#292929"/>
<path d="M6.125 13.103H7.875V13.5406H6.125V13.103Z" fill="#292929"/>
</svg>
