<svg width="17" height="14" viewBox="0 0 17 14" fill="none" xmlns="http://www.w3.org/2000/svg">
<path d="M16.7258 10.9344H15.629V2.99395C15.6287 2.75237 15.5275 2.52075 15.3477 2.34993C15.1677 2.17911 14.9238 2.08302 14.6694 2.08275H13.1613V0.260343C13.1613 0.191296 13.1324 0.125077 13.081 0.0762531C13.0296 0.027429 12.9598 0 12.8871 0H4.1129C4.04018 0 3.97044 0.027429 3.91902 0.0762531C3.8676 0.125077 3.83871 0.191296 3.83871 0.260343V2.08275H2.33064C2.07621 2.08302 1.83227 2.17911 1.65236 2.34993C1.47245 2.52075 1.37125 2.75237 1.37097 2.99395V10.9344H0.274194C0.201473 10.9344 0.13173 10.9619 0.0803093 11.0107C0.0288882 11.0595 0 11.1257 0 11.1948V12.6267C0.00028123 12.8683 0.10148 13.0999 0.281393 13.2707C0.461307 13.4415 0.705242 13.5376 0.959675 13.5379H16.0403C16.2948 13.5376 16.5387 13.4415 16.7186 13.2707C16.8985 13.0999 16.9997 12.8683 17 12.6267V11.1948C17 11.1257 16.9711 11.0595 16.9197 11.0107C16.8683 10.9619 16.7985 10.9344 16.7258 10.9344ZM13.1613 3.38447H14.2581V10.1534H13.1613V3.38447ZM4.3871 0.520687H12.6129V10.1534H4.3871V0.520687ZM1.91936 2.99395C1.91944 2.89041 1.96281 2.79113 2.03992 2.71791C2.11703 2.64469 2.22159 2.60353 2.33064 2.60343H3.83871V2.86378H2.46774C2.39502 2.86378 2.32528 2.89121 2.27386 2.94003C2.22244 2.98885 2.19355 3.05507 2.19355 3.12412V10.4137C2.19355 10.4828 2.22244 10.549 2.27386 10.5978C2.32528 10.6466 2.39502 10.6741 2.46774 10.6741H14.5322C14.605 10.6741 14.6747 10.6466 14.7262 10.5978C14.7775 10.549 14.8064 10.4828 14.8064 10.4137V3.12412C14.8064 3.05507 14.7775 2.98885 14.7262 2.94003C14.6747 2.89121 14.605 2.86378 14.5322 2.86378H13.1613V2.60343H14.6694C14.7784 2.60353 14.883 2.64469 14.9601 2.71791C15.0372 2.79113 15.0806 2.89041 15.0806 2.99395V10.9344H1.91936V2.99395ZM3.83871 3.38447V10.1534H2.74194V3.38447H3.83871ZM10.0389 11.4551L9.94739 11.7154H7.05261L6.96106 11.4551H10.0389ZM16.4516 12.6267C16.4515 12.7302 16.4081 12.8295 16.331 12.9027C16.254 12.9759 16.1494 13.0171 16.0403 13.0172H0.959675C0.850623 13.0171 0.746061 12.9759 0.66895 12.9027C0.591839 12.8295 0.548478 12.7302 0.548387 12.6267V11.4551H6.38287L6.59468 12.0581C6.61287 12.11 6.64782 12.155 6.69454 12.187C6.74119 12.219 6.79729 12.2362 6.85484 12.2361H10.1452C10.2027 12.2362 10.2588 12.219 10.3055 12.187C10.3522 12.155 10.3871 12.11 10.4053 12.0581L10.6171 11.4551H16.4516V12.6267Z" fill="#36c190"/>
<path d="M9.47229 1.3437C9.43395 1.32011 9.39006 1.30597 9.34448 1.30256C9.29896 1.29916 9.25325 1.30658 9.2115 1.32417L6.79687 2.34309H5.48416C5.41144 2.34309 5.34169 2.37052 5.29027 2.41934C5.23885 2.46817 5.20996 2.53439 5.20996 2.60343V5.20687C5.20996 5.27592 5.23885 5.34214 5.29027 5.39096C5.34169 5.43978 5.41144 5.46722 5.48416 5.46722H6.79687L9.2115 6.48613C9.25325 6.50378 9.29896 6.51121 9.34448 6.5078C9.39 6.50433 9.43395 6.49021 9.47223 6.46653C9.51058 6.44291 9.54206 6.41059 9.56384 6.37243C9.58563 6.33432 9.59709 6.29165 9.59709 6.24825V1.56206C9.59702 1.51868 9.58563 1.47599 9.56384 1.43785C9.54206 1.39972 9.51058 1.36736 9.47229 1.3437ZM6.58091 4.94653H5.75835V2.86378H6.58091V4.94653ZM9.04868 5.84764L7.12932 5.03765V2.77266L9.04868 1.96266V5.84764Z" fill="#36c190"/>
<path d="M10.2277 4.30046C10.2004 4.3227 10.1779 4.34983 10.1616 4.38031C10.1452 4.41079 10.1354 4.44403 10.1327 4.47812C10.1299 4.51221 10.1342 4.54649 10.1454 4.579C10.1565 4.6115 10.1743 4.64161 10.1977 4.66758C10.2211 4.69356 10.2497 4.7149 10.2818 4.73039C10.3139 4.74588 10.3489 4.75522 10.3848 4.75787C10.4207 4.76051 10.4568 4.75642 10.491 4.74582C10.5253 4.73522 10.557 4.71832 10.5843 4.69609C10.7046 4.59839 10.8011 4.47713 10.8674 4.34064C10.9335 4.20415 10.9679 4.05566 10.9679 3.90539C10.9679 3.75513 10.9335 3.60664 10.8674 3.47015C10.8011 3.33365 10.7046 3.21239 10.5843 3.1147C10.5291 3.07045 10.4575 3.04875 10.3855 3.05433C10.3134 3.05991 10.2465 3.09232 10.1995 3.1445C10.1524 3.19668 10.1289 3.2644 10.1343 3.3329C10.1396 3.4014 10.1731 3.46514 10.2277 3.51022C10.2879 3.55904 10.3361 3.61964 10.3692 3.68786C10.4023 3.75608 10.4194 3.83029 10.4194 3.90539C10.4194 3.9805 10.4023 4.05471 10.3692 4.12293C10.3361 4.19115 10.2879 4.25175 10.2277 4.30056V4.30046Z" fill="#36c190"/>
<path d="M10.7635 2.91702C10.9137 3.03915 11.0343 3.1907 11.1169 3.36126C11.1996 3.53182 11.2424 3.71734 11.2424 3.9051C11.2424 4.09285 11.1996 4.27837 11.1169 4.44893C11.0343 4.61949 10.9137 4.77104 10.7635 4.89317C10.7096 4.93842 10.6767 5.00196 10.6717 5.0701C10.6667 5.13822 10.6901 5.20548 10.7369 5.25737C10.7836 5.30927 10.85 5.34164 10.9216 5.34751C10.9933 5.35338 11.0646 5.33228 11.12 5.28876C11.3303 5.11774 11.4992 4.90552 11.6149 4.66668C11.7307 4.42783 11.7906 4.16802 11.7906 3.9051C11.7906 3.64217 11.7307 3.38236 11.6149 3.14351C11.4992 2.90467 11.3303 2.69245 11.12 2.52143C11.0927 2.49853 11.0609 2.48102 11.0265 2.46989C10.992 2.45878 10.9556 2.45429 10.9192 2.45668C10.883 2.45907 10.8475 2.46831 10.815 2.48384C10.7825 2.49937 10.7536 2.5209 10.7299 2.54715C10.7062 2.57341 10.6884 2.60387 10.6772 2.63677C10.6661 2.66967 10.662 2.70435 10.6651 2.73877C10.6682 2.7732 10.6785 2.8067 10.6954 2.8373C10.7123 2.8679 10.7355 2.89501 10.7635 2.91702Z" fill="#36c190"/>
<path d="M5.48416 9.60027H8.22607C8.29879 9.60027 8.36855 9.57288 8.41999 9.52406C8.47137 9.47524 8.50027 9.40902 8.50027 9.33993V7.02938C8.50027 6.96036 8.47137 6.89413 8.41999 6.84531C8.36855 6.79649 8.29879 6.76904 8.22607 6.76904H5.48416C5.41144 6.76904 5.34169 6.79649 5.29027 6.84531C5.23885 6.89413 5.20996 6.96036 5.20996 7.02938V9.33993C5.20996 9.40902 5.23885 9.47524 5.29027 9.52406C5.34169 9.57288 5.41144 9.60027 5.48416 9.60027ZM5.75835 7.28972H7.95193V9.07959H5.75835V7.28972Z" fill="#36c190"/>
<path d="M7.4032 7.55005H6.30645C6.2337 7.55005 6.16396 7.5775 6.11254 7.62632C6.06111 7.67514 6.03223 7.74136 6.03223 7.81039C6.03223 7.87941 6.06111 7.94564 6.11254 7.99446C6.16396 8.04334 6.2337 8.07073 6.30645 8.07073H7.4032C7.47592 8.07073 7.54569 8.04334 7.59706 7.99446C7.64851 7.94564 7.6774 7.87941 7.6774 7.81039C7.6774 7.74136 7.64851 7.67514 7.59706 7.62632C7.54569 7.5775 7.47592 7.55005 7.4032 7.55005Z" fill="#36c190"/>
<path d="M7.4032 8.33105H6.30645C6.2337 8.33105 6.16396 8.35851 6.11254 8.40732C6.06111 8.45614 6.03223 8.52237 6.03223 8.59145C6.03223 8.66048 6.06111 8.72671 6.11254 8.77552C6.16396 8.82434 6.2337 8.85179 6.30645 8.85179H7.4032C7.47592 8.85179 7.54569 8.82434 7.59706 8.77552C7.64851 8.72671 7.6774 8.66048 7.6774 8.59145C7.6774 8.52237 7.64851 8.45614 7.59706 8.40732C7.54569 8.35851 7.47592 8.33105 7.4032 8.33105Z" fill="#36c190"/>
<path d="M11.5164 7.28955H9.04862C8.9759 7.28955 8.9062 7.317 8.85475 7.36582C8.80331 7.41464 8.77441 7.48086 8.77441 7.54989C8.77441 7.61898 8.80331 7.6852 8.85475 7.73402C8.9062 7.78284 8.9759 7.81023 9.04862 7.81023H11.5164C11.5891 7.81023 11.6589 7.78284 11.7103 7.73402C11.7617 7.6852 11.7906 7.61898 11.7906 7.54989C11.7906 7.48086 11.7617 7.41464 11.7103 7.36582C11.6589 7.317 11.5891 7.28955 11.5164 7.28955Z" fill="#36c190"/>
<path d="M11.5164 8.0708H9.04862C8.9759 8.0708 8.9062 8.09825 8.85475 8.14707C8.80331 8.19589 8.77441 8.26211 8.77441 8.33114C8.77441 8.40023 8.80331 8.46639 8.85475 8.51527C8.9062 8.56409 8.9759 8.59148 9.04862 8.59148H11.5164C11.5891 8.59148 11.6589 8.56409 11.7103 8.51527C11.7617 8.46639 11.7906 8.40023 11.7906 8.33114C11.7906 8.26211 11.7617 8.19589 11.7103 8.14707C11.6589 8.09825 11.5891 8.0708 11.5164 8.0708Z" fill="#36c190"/>
<path d="M10.4196 8.85181H9.04862C8.9759 8.85181 8.9062 8.8792 8.85475 8.92802C8.80331 8.97683 8.77441 9.04306 8.77441 9.11215C8.77441 9.18117 8.80331 9.2474 8.85475 9.29621C8.9062 9.34503 8.9759 9.37248 9.04862 9.37248H10.4196C10.4923 9.37248 10.5621 9.34503 10.6135 9.29621C10.6649 9.2474 10.6938 9.18117 10.6938 9.11215C10.6938 9.04306 10.6649 8.97683 10.6135 8.92802C10.5621 8.8792 10.4923 8.85181 10.4196 8.85181Z" fill="#36c190"/>
</svg>
