<svg width="14" height="14" viewBox="0 0 14 14" fill="none" xmlns="http://www.w3.org/2000/svg">
<path d="M12.0312 8.07301H11.375V7.41672C11.375 6.81364 10.8843 6.32301 10.2812 6.32301H9.18753V5.66672C9.18753 5.54601 9.08947 5.44801 8.96876 5.44801H7.21876V4.97944C7.595 4.88166 7.875 4.54194 7.875 4.1355C7.875 3.65294 7.48259 3.2605 7 3.2605C6.51741 3.2605 6.125 3.65294 6.125 4.1355C6.125 4.54194 6.405 4.88166 6.78124 4.97944V5.44801H5.03125C4.9105 5.44801 4.8125 5.54601 4.8125 5.66672V6.32301H3.71875C3.11566 6.32301 2.625 6.81364 2.625 7.41672V8.07301H1.96875C1.60694 8.07301 1.3125 8.36743 1.3125 8.72925V11.3543C1.3125 11.7161 1.60694 12.0105 1.96875 12.0105H2.625V12.6667C2.625 13.2699 3.11566 13.7605 3.71875 13.7605H10.2812C10.8843 13.7605 11.375 13.2699 11.375 12.6667V12.0105H12.0312C12.3931 12.0105 12.6875 11.7161 12.6875 11.3543V8.72925C12.6875 8.36743 12.3931 8.07301 12.0312 8.07301ZM6.56247 4.1355C6.56247 3.89422 6.75873 3.698 7 3.698C7.24127 3.698 7.43753 3.89422 7.43753 4.1355C7.43753 4.37678 7.24127 4.573 7 4.573C6.75873 4.573 6.56247 4.37678 6.56247 4.1355ZM1.96875 11.573C1.84822 11.573 1.75 11.4748 1.75 11.3543V8.72925C1.75 8.60869 1.84822 8.51049 1.96875 8.51049H2.625V11.573H1.96875ZM5.25 5.88549H8.75V6.32301H5.25V5.88549ZM10.9375 12.6667C10.9375 13.0285 10.6431 13.323 10.2812 13.323H3.71875C3.35694 13.323 3.0625 13.0285 3.0625 12.6667V7.41672C3.0625 7.05495 3.35694 6.76049 3.71875 6.76049H10.2812C10.6431 6.76049 10.9375 7.05495 10.9375 7.41672V12.6667ZM12.25 11.3543C12.25 11.4748 12.1518 11.573 12.0312 11.573H11.375V8.51049H12.0312C12.1518 8.51049 12.25 8.60869 12.25 8.72925V11.3543Z" fill="#292929"/>
<path d="M8.96876 10.2605H5.03125C4.9105 10.2605 4.8125 10.3585 4.8125 10.4793V10.698C4.8125 11.9042 5.79382 12.8855 7 12.8855C8.20618 12.8855 9.18753 11.9042 9.18753 10.698V10.4793C9.18753 10.3585 9.08947 10.2605 8.96876 10.2605ZM7 12.448C6.03509 12.448 5.25 11.6629 5.25 10.698H8.75C8.75 11.6629 7.96491 12.448 7 12.448Z" fill="#292929"/>
<path d="M5.68753 8.948C5.68753 8.46541 5.29506 8.073 4.8125 8.073C4.32994 8.073 3.9375 8.46541 3.9375 8.948C3.9375 9.43053 4.32994 9.823 4.8125 9.823C5.29506 9.823 5.68753 9.43053 5.68753 8.948ZM4.375 8.948C4.375 8.70668 4.57122 8.51047 4.8125 8.51047C5.05378 8.51047 5.25 8.70668 5.25 8.948C5.25 9.18927 5.05378 9.38547 4.8125 9.38547C4.57122 9.38547 4.375 9.18927 4.375 8.948Z" fill="#292929"/>
<path d="M9.18755 8.073C8.70497 8.073 8.3125 8.46541 8.3125 8.948C8.3125 9.43053 8.70497 9.823 9.18755 9.823C9.67008 9.823 10.0625 9.43053 10.0625 8.948C10.0625 8.46541 9.67008 8.073 9.18755 8.073ZM9.18755 9.38547C8.94623 9.38547 8.75003 9.18927 8.75003 8.948C8.75003 8.70668 8.94623 8.51047 9.18755 8.51047C9.42882 8.51047 9.62503 8.70668 9.62503 8.948C9.62503 9.18927 9.42882 9.38547 9.18755 9.38547Z" fill="#292929"/>
<path d="M3.56409 4.94641C3.60588 4.98818 3.66188 5.0105 3.71875 5.0105C3.74697 5.0105 3.77541 5.00503 3.80253 4.99387C3.88412 4.95997 3.9375 4.88034 3.9375 4.79175V4.1355H5.25C5.61182 4.1355 5.90624 3.84106 5.90624 3.47925V0.854248C5.90624 0.492436 5.61182 0.197998 5.25 0.197998H0.875C0.513188 0.197998 0.21875 0.492436 0.21875 0.854248V3.47925C0.21875 3.84106 0.513188 4.1355 0.875 4.1355H2.75319L3.56409 4.94641ZM0.656247 3.47925V0.854248C0.656247 0.733718 0.75447 0.635495 0.875 0.635495H5.25C5.37056 0.635495 5.46876 0.733718 5.46876 0.854248V3.47925C5.46876 3.59978 5.37056 3.698 5.25 3.698H3.71875C3.598 3.698 3.5 3.796 3.5 3.91675V4.26368L2.99841 3.76209C2.95728 3.72097 2.90172 3.698 2.84375 3.698H0.875C0.75447 3.698 0.656247 3.6 0.656247 3.47925Z" fill="#292929"/>
<path d="M13.125 1.073H8.74999C8.38816 1.073 8.09375 1.36744 8.09375 1.72925V4.35425C8.09375 4.71606 8.38816 5.0105 8.74999 5.0105H10.0625V5.66672C10.0625 5.75513 10.1159 5.83498 10.1974 5.86889C10.2246 5.88004 10.253 5.88549 10.2812 5.88549C10.3381 5.88549 10.3941 5.86319 10.4359 5.8214L11.2468 5.0105H13.125C13.4868 5.0105 13.7812 4.71606 13.7812 4.35425V1.72925C13.7812 1.36744 13.4868 1.073 13.125 1.073ZM13.3437 4.35425C13.3437 4.47478 13.2455 4.573 13.125 4.573H11.1562C11.0983 4.573 11.0425 4.59597 11.0016 4.63709L10.5 5.13869V4.79175C10.5 4.671 10.402 4.573 10.2812 4.573H8.74999C8.62943 4.573 8.53122 4.47478 8.53122 4.35425V1.72925C8.53122 1.60872 8.62943 1.5105 8.74999 1.5105H13.125C13.2455 1.5105 13.3437 1.60872 13.3437 1.72925V4.35425Z" fill="#292929"/>
<path d="M1.09375 1.073H5.03124V1.5105H1.09375V1.073Z" fill="#292929"/>
<path d="M1.09375 2.823H5.03124V3.2605H1.09375V2.823Z" fill="#292929"/>
<path d="M1.53125 1.948H4.59375V2.3855H1.53125V1.948Z" fill="#292929"/>
<path d="M8.96875 1.948H12.9062V2.3855H8.96875V1.948Z" fill="#292929"/>
<path d="M8.96875 3.698H12.9062V4.1355H8.96875V3.698Z" fill="#292929"/>
<path d="M9.40625 2.823H12.4688V3.2605H9.40625V2.823Z" fill="#292929"/>
</svg>
