<svg width="31" height="29" viewBox="0 0 31 29" fill="none" xmlns="http://www.w3.org/2000/svg">
<path d="M16.3958 12.8859C16.3958 12.8219 16.3832 12.7586 16.3587 12.6995C16.3342 12.6405 16.2984 12.5868 16.2532 12.5416C16.2079 12.4963 16.1543 12.4605 16.0952 12.436C16.0361 12.4115 15.9728 12.3989 15.9088 12.3989C15.8449 12.3989 15.7816 12.4115 15.7225 12.436C15.6634 12.4605 15.6097 12.4963 15.5645 12.5416C15.5193 12.5868 15.4834 12.6405 15.4589 12.6995C15.4345 12.7586 15.4219 12.8219 15.4219 12.8859V18.7641C15.4219 18.8281 15.4345 18.8914 15.4589 18.9505C15.4834 19.0096 15.5193 19.0633 15.5645 19.1085C15.6097 19.1537 15.6634 19.1896 15.7225 19.214C15.7816 19.2385 15.8449 19.2511 15.9088 19.2511C15.9728 19.2511 16.0361 19.2385 16.0952 19.214C16.1543 19.1896 16.2079 19.1537 16.2532 19.1085C16.2984 19.0633 16.3342 19.0096 16.3587 18.9505C16.3832 18.8914 16.3958 18.8281 16.3958 18.7641V12.8859Z" fill="#127ACE"/>
<path d="M10.0391 13.3797V18.2492C10.0382 18.3138 10.0501 18.3778 10.0742 18.4377C10.0982 18.4976 10.1339 18.5521 10.1793 18.5981C10.2246 18.644 10.2786 18.6805 10.3381 18.7054C10.3976 18.7303 10.4615 18.7431 10.5261 18.7431C10.6571 18.7431 10.7827 18.6911 10.8753 18.5985C10.9679 18.5058 11.02 18.3802 11.02 18.2492V13.3797C11.02 13.3148 11.0072 13.2506 10.9824 13.1906C10.9576 13.1307 10.9212 13.0763 10.8753 13.0304C10.8295 12.9845 10.775 12.9482 10.7151 12.9233C10.6552 12.8985 10.5909 12.8857 10.5261 12.8857C10.4615 12.8857 10.3976 12.8986 10.3381 12.9235C10.2786 12.9484 10.2246 12.9849 10.1793 13.0308C10.1339 13.0768 10.0982 13.1313 10.0742 13.1912C10.0501 13.2511 10.0382 13.3151 10.0391 13.3797Z" fill="#127ACE"/>
<path d="M13.7051 13.8527V17.7693C13.7051 17.8338 13.7179 17.8977 13.7428 17.9572C13.7677 18.0168 13.8042 18.0708 13.8502 18.1161C13.8961 18.1614 13.9506 18.1971 14.0105 18.2212C14.0704 18.2452 14.1345 18.2571 14.199 18.2562C14.3281 18.2562 14.452 18.2049 14.5433 18.1136C14.6346 18.0223 14.6859 17.8984 14.6859 17.7693V13.8527C14.6859 13.7236 14.6346 13.5997 14.5433 13.5084C14.452 13.4171 14.3281 13.3658 14.199 13.3658C14.1345 13.3649 14.0704 13.3768 14.0105 13.4008C13.9506 13.4249 13.8961 13.4606 13.8502 13.5059C13.8042 13.5512 13.7677 13.6052 13.7428 13.6648C13.7179 13.7243 13.7051 13.7882 13.7051 13.8527Z" fill="#127ACE"/>
<path d="M12.0211 14.8475V16.8023C12.0128 16.8716 12.0193 16.9419 12.0402 17.0085C12.061 17.0751 12.0958 17.1365 12.1421 17.1887C12.1885 17.2409 12.2454 17.2827 12.309 17.3113C12.3727 17.3399 12.4417 17.3547 12.5115 17.3547C12.5813 17.3547 12.6503 17.3399 12.714 17.3113C12.7776 17.2827 12.8345 17.2409 12.8808 17.1887C12.9272 17.1365 12.9619 17.0751 12.9828 17.0085C13.0037 16.9419 13.0102 16.8716 13.0019 16.8023V14.8475C12.9876 14.7275 12.9298 14.6169 12.8394 14.5367C12.749 14.4564 12.6324 14.4121 12.5115 14.4121C12.3906 14.4121 12.274 14.4564 12.1836 14.5367C12.0932 14.6169 12.0354 14.7275 12.0211 14.8475Z" fill="#127ACE"/>
<path d="M17.1348 13.8527V17.7693C17.1348 17.8984 17.1861 18.0223 17.2774 18.1136C17.3687 18.2049 17.4926 18.2562 17.6217 18.2562C17.6863 18.2571 17.7503 18.2452 17.8102 18.2212C17.8701 18.1971 17.9246 18.1614 17.9706 18.1161C18.0165 18.0708 18.053 18.0168 18.0779 17.9572C18.1028 17.8977 18.1156 17.8338 18.1156 17.7693V13.8527C18.1156 13.7882 18.1028 13.7243 18.0779 13.6648C18.053 13.6052 18.0165 13.5512 17.9706 13.5059C17.9246 13.4606 17.8701 13.4249 17.8102 13.4008C17.7503 13.3768 17.6863 13.3649 17.6217 13.3658C17.4926 13.3658 17.3687 13.4171 17.2774 13.5084C17.1861 13.5997 17.1348 13.7236 17.1348 13.8527Z" fill="#127ACE"/>
<path d="M21.2936 12.8857C21.2291 12.8857 21.1652 12.8986 21.1057 12.9235C21.0461 12.9484 20.9921 12.9849 20.9468 13.0308C20.9015 13.0768 20.8658 13.1313 20.8417 13.1912C20.8177 13.2511 20.8058 13.3151 20.8067 13.3797V18.2492C20.8067 18.3784 20.858 18.5022 20.9493 18.5935C21.0406 18.6849 21.1645 18.7362 21.2936 18.7362C21.4228 18.7362 21.5467 18.6849 21.638 18.5935C21.7293 18.5022 21.7806 18.3784 21.7806 18.2492V13.3797C21.7815 13.3151 21.7696 13.2511 21.7456 13.1912C21.7215 13.1313 21.6858 13.0768 21.6405 13.0308C21.5952 12.9849 21.5412 12.9484 21.4816 12.9235C21.4221 12.8986 21.3582 12.8857 21.2936 12.8857Z" fill="#127ACE"/>
<path d="M18.8453 14.8475V16.8023C18.837 16.8716 18.8435 16.9419 18.8644 17.0085C18.8853 17.0751 18.92 17.1365 18.9664 17.1887C19.0127 17.2409 19.0696 17.2827 19.1332 17.3113C19.1969 17.3399 19.2659 17.3547 19.3357 17.3547C19.4055 17.3547 19.4745 17.3399 19.5382 17.3113C19.6018 17.2827 19.6587 17.2409 19.7051 17.1887C19.7514 17.1365 19.7862 17.0751 19.807 17.0085C19.8279 16.9419 19.8344 16.8716 19.8261 16.8023V14.8475C19.8118 14.7275 19.754 14.6169 19.6636 14.5367C19.5732 14.4564 19.4566 14.4121 19.3357 14.4121C19.2148 14.4121 19.0982 14.4564 19.0078 14.5367C18.9174 14.6169 18.8596 14.7275 18.8453 14.8475Z" fill="#127ACE"/>
<path d="M15.9088 20.2319C15.7797 20.2319 15.6558 20.2832 15.5645 20.3746C15.4732 20.4659 15.4219 20.5897 15.4219 20.7189V21.2058C15.4219 21.2698 15.4345 21.3331 15.4589 21.3922C15.4834 21.4513 15.5193 21.505 15.5645 21.5502C15.6097 21.5954 15.6634 21.6313 15.7225 21.6557C15.7816 21.6802 15.8449 21.6928 15.9088 21.6928C15.9728 21.6928 16.0361 21.6802 16.0952 21.6557C16.1543 21.6313 16.2079 21.5954 16.2532 21.5502C16.2984 21.505 16.3342 21.4513 16.3587 21.3922C16.3832 21.3331 16.3958 21.2698 16.3958 21.2058V20.7189C16.3958 20.5897 16.3445 20.4659 16.2532 20.3746C16.1618 20.2832 16.038 20.2319 15.9088 20.2319Z" fill="#127ACE"/>
<path d="M16.3958 10.444C16.3958 10.38 16.3832 10.3167 16.3587 10.2576C16.3342 10.1986 16.2984 10.1449 16.2532 10.0997C16.2079 10.0544 16.1543 10.0186 16.0952 9.9941C16.0361 9.96963 15.9728 9.95703 15.9088 9.95703C15.8449 9.95703 15.7816 9.96963 15.7225 9.9941C15.6634 10.0186 15.6097 10.0544 15.5645 10.0997C15.5193 10.1449 15.4834 10.1986 15.4589 10.2576C15.4345 10.3167 15.4219 10.38 15.4219 10.444V10.9309C15.4219 11.0601 15.4732 11.184 15.5645 11.2753C15.6558 11.3666 15.7797 11.4179 15.9088 11.4179C16.038 11.4179 16.1618 11.3666 16.2532 11.2753C16.3445 11.184 16.3958 11.0601 16.3958 10.9309V10.444Z" fill="#127ACE"/>
<path d="M28.1602 11.4319H27.6732C27.6734 11.1202 27.5734 10.8168 27.388 10.5663C27.2027 10.3158 26.9417 10.1315 26.6437 10.0406C26.3371 7.30305 25.0325 4.77452 22.9792 2.93828C20.9259 1.10205 18.2678 0.0869141 15.5132 0.0869141C12.7586 0.0869141 10.1006 1.10205 8.04729 2.93828C5.99396 4.77452 4.68934 7.30305 4.3828 10.0406C4.08474 10.1315 3.8238 10.3158 3.63843 10.5663C3.45306 10.8168 3.35308 11.1202 3.35323 11.4319H2.83845C2.32186 11.4319 1.82642 11.6371 1.46113 12.0024C1.09584 12.3676 0.890625 12.8631 0.890625 13.3797L0.890625 17.2753C0.890625 17.7919 1.09584 18.2874 1.46113 18.6527C1.82642 19.0179 2.32186 19.2232 2.83845 19.2232H3.32541C3.32541 19.6106 3.47932 19.9822 3.75329 20.2562C4.02725 20.5301 4.39883 20.684 4.78628 20.684H5.27323V22.6319C5.27323 23.7942 5.73497 24.9089 6.55687 25.7308C7.37877 26.5527 8.4935 27.0145 9.65584 27.0145H11.1863C11.2954 27.4293 11.539 27.7963 11.8788 28.0581C12.2186 28.3199 12.6356 28.4617 13.0645 28.4614H17.9341C18.4507 28.4614 18.9461 28.2562 19.3114 27.8909C19.6767 27.5256 19.8819 27.0302 19.8819 26.5136C19.8819 25.997 19.6767 25.5016 19.3114 25.1363C18.9461 24.771 18.4507 24.5658 17.9341 24.5658H13.0645C12.6343 24.5687 12.2171 24.7134 11.8775 24.9775C11.5379 25.2416 11.295 25.6104 11.1863 26.0266H9.65584C8.7518 26.0266 7.88479 25.6675 7.24553 25.0283C6.60628 24.389 6.24715 23.522 6.24715 22.6179V20.6701H6.7341C7.12155 20.6701 7.49313 20.5162 7.76709 20.2422C8.04106 19.9683 8.19497 19.5967 8.19497 19.2092V11.4319C8.19456 11.1408 8.10682 10.8566 7.94311 10.616C7.7794 10.3754 7.54726 10.1895 7.27671 10.0823C7.51166 8.06634 8.479 6.20695 9.99493 4.85743C11.5109 3.50791 13.4697 2.76231 15.4993 2.76231C17.5289 2.76231 19.4878 3.50791 21.0037 4.85743C22.5196 6.20695 23.487 8.06634 23.7219 10.0823C23.4514 10.1895 23.2192 10.3754 23.0555 10.616C22.8918 10.8566 22.8041 11.1408 22.8037 11.4319V19.2232C22.8037 19.6106 22.9576 19.9822 23.2315 20.2562C23.5055 20.5301 23.8771 20.684 24.2645 20.684H26.2124C26.5998 20.684 26.9714 20.5301 27.2454 20.2562C27.5193 19.9822 27.6732 19.6106 27.6732 19.2232H28.1602C28.6768 19.2232 29.1722 19.0179 29.5375 18.6527C29.9028 18.2874 30.108 17.7919 30.108 17.2753V13.3797C30.108 12.8631 29.9028 12.3676 29.5375 12.0024C29.1722 11.6371 28.6768 11.4319 28.1602 11.4319ZM3.32541 18.2492H2.83845C2.58015 18.2492 2.33243 18.1466 2.14979 17.964C1.96715 17.7814 1.86454 17.5336 1.86454 17.2753V13.3797C1.86454 13.1214 1.96715 12.8737 2.14979 12.691C2.33243 12.5084 2.58015 12.4058 2.83845 12.4058H3.32541V18.2492ZM13.0645 25.5536H17.9341C18.1924 25.5536 18.4401 25.6562 18.6228 25.8388C18.8054 26.0215 18.908 26.2692 18.908 26.5275C18.908 26.7858 18.8054 27.0335 18.6228 27.2162C18.4401 27.3988 18.1924 27.5014 17.9341 27.5014H13.0645C12.8062 27.5014 12.5585 27.3988 12.3759 27.2162C12.1932 27.0335 12.0906 26.7858 12.0906 26.5275C12.0906 26.2692 12.1932 26.0215 12.3759 25.8388C12.5585 25.6562 12.8062 25.5536 13.0645 25.5536V25.5536ZM7.22106 19.2232C7.22106 19.3523 7.16976 19.4762 7.07843 19.5675C6.98711 19.6588 6.86325 19.7101 6.7341 19.7101H4.78628C4.65713 19.7101 4.53327 19.6588 4.44195 19.5675C4.35062 19.4762 4.29932 19.3523 4.29932 19.2232V11.4319C4.29932 11.3027 4.35062 11.1788 4.44195 11.0875C4.53327 10.9962 4.65713 10.9449 4.78628 10.9449H6.7341C6.86325 10.9449 6.98711 10.9962 7.07843 11.0875C7.16976 11.1788 7.22106 11.3027 7.22106 11.4319V19.2232ZM15.4993 1.69272C13.216 1.69549 11.0144 2.54244 9.31799 4.07065C7.62155 5.59886 6.5501 7.70039 6.30976 9.97099H5.33584C5.61388 7.4699 6.80438 5.15915 8.67954 3.4809C10.5547 1.80265 12.9828 0.87475 15.4993 0.87475C18.0158 0.87475 20.4439 1.80265 22.3191 3.4809C24.1943 5.15915 25.3848 7.4699 25.6628 9.97099H24.6889C24.4485 7.70039 23.3771 5.59886 21.6807 4.07065C19.9842 2.54244 17.7826 1.69549 15.4993 1.69272V1.69272ZM26.6993 19.2232C26.6993 19.3523 26.648 19.4762 26.5567 19.5675C26.4654 19.6588 26.3415 19.7101 26.2124 19.7101H24.2645C24.1354 19.7101 24.0115 19.6588 23.9202 19.5675C23.8289 19.4762 23.7776 19.3523 23.7776 19.2232V11.4319C23.7776 11.3027 23.8289 11.1788 23.9202 11.0875C24.0115 10.9962 24.1354 10.9449 24.2645 10.9449H26.2124C26.3415 10.9449 26.4654 10.9962 26.5567 11.0875C26.648 11.1788 26.6993 11.3027 26.6993 11.4319V19.2232ZM29.1341 17.2753C29.1341 17.5336 29.0315 17.7814 28.8489 17.964C28.6662 18.1466 28.4185 18.2492 28.1602 18.2492H27.6732V12.4058H28.1602C28.4185 12.4058 28.6662 12.5084 28.8489 12.691C29.0315 12.8737 29.1341 13.1214 29.1341 13.3797V17.2753Z" fill="#127ACE"/>
</svg>
