<svg width="33" height="32" viewBox="0 0 33 32" fill="none" xmlns="http://www.w3.org/2000/svg">
<path d="M17.8907 12.9737C17.977 12.8853 18.0253 12.7667 18.0253 12.6432C18.0253 12.5197 17.977 12.4012 17.8907 12.3128C17.8459 12.2656 17.7919 12.2281 17.7322 12.2025C17.6724 12.1768 17.608 12.1636 17.5429 12.1636C17.4779 12.1636 17.4135 12.1768 17.3537 12.2025C17.2939 12.2281 17.2399 12.2656 17.1951 12.3128C17.1088 12.4012 17.0605 12.5197 17.0605 12.6432C17.0605 12.7667 17.1088 12.8853 17.1951 12.9737C17.2399 13.0208 17.2939 13.0583 17.3537 13.084C17.4135 13.1097 17.4779 13.1229 17.5429 13.1229C17.608 13.1229 17.6724 13.1097 17.7322 13.084C17.7919 13.0583 17.8459 13.0208 17.8907 12.9737Z" fill="#127ACE"/>
<path d="M16.5001 4.06261C16.9018 4.06261 17.2945 3.94348 17.6286 3.72027C17.9626 3.49707 18.223 3.17982 18.3767 2.80865C18.5305 2.43748 18.5707 2.02905 18.4923 1.63502C18.414 1.24098 18.2205 0.879039 17.9364 0.594956C17.6523 0.310873 17.2904 0.11741 16.8963 0.0390319C16.5023 -0.0393465 16.0939 0.000880138 15.7227 0.154625C15.3515 0.308369 15.0343 0.568727 14.8111 0.902773C14.5879 1.23682 14.4688 1.62955 14.4688 2.03131C14.4688 2.29806 14.5213 2.5622 14.6234 2.80865C14.7255 3.0551 14.8751 3.27903 15.0637 3.46765C15.2523 3.65628 15.4763 3.8059 15.7227 3.90799C15.9692 4.01007 16.2333 4.06261 16.5001 4.06261ZM16.5001 0.939131C16.7161 0.939131 16.9272 1.00319 17.1068 1.1232C17.2864 1.24321 17.4264 1.41378 17.5091 1.61335C17.5918 1.81292 17.6134 2.03252 17.5712 2.24438C17.5291 2.45624 17.4251 2.65085 17.2723 2.80359C17.1196 2.95633 16.925 3.06035 16.7131 3.10249C16.5013 3.14463 16.2817 3.12301 16.0821 3.04034C15.8825 2.95768 15.712 2.81769 15.5919 2.63808C15.4719 2.45848 15.4079 2.24732 15.4079 2.03131C15.4079 1.74164 15.5229 1.46384 15.7278 1.25902C15.9326 1.0542 16.2104 0.939131 16.5001 0.939131Z" fill="#127ACE"/>
<path d="M30.4688 13.9688C30.0671 13.9688 29.6743 14.0879 29.3403 14.3111C29.0062 14.5343 28.7459 14.8515 28.5921 15.2227C28.4384 15.5939 28.3982 16.0023 28.4765 16.3963C28.5549 16.7904 28.7484 17.1523 29.0325 17.4364C29.3165 17.7205 29.6785 17.914 30.0725 17.9923C30.4666 18.0707 30.875 18.0305 31.2462 17.8767C31.6173 17.723 31.9346 17.4626 32.1578 17.1286C32.381 16.7945 32.5001 16.4018 32.5001 16.0001C32.5001 15.7333 32.4476 15.4692 32.3455 15.2227C32.2434 14.9763 32.0938 14.7523 31.9052 14.5637C31.7165 14.3751 31.4926 14.2255 31.2462 14.1234C30.9997 14.0213 30.7356 13.9688 30.4688 13.9688ZM30.4688 17.0922C30.2528 17.0922 30.0416 17.0282 29.862 16.9082C29.6824 16.7882 29.5424 16.6176 29.4598 16.418C29.3771 16.2184 29.3555 15.9988 29.3976 15.787C29.4398 15.5751 29.5438 15.3805 29.6965 15.2278C29.8493 15.075 30.0439 14.971 30.2557 14.9289C30.4676 14.8867 30.6872 14.9084 30.8868 14.991C31.0863 15.0737 31.2569 15.2137 31.3769 15.3933C31.4969 15.5729 31.561 15.784 31.561 16.0001C31.561 16.2897 31.4459 16.5675 31.2411 16.7723C31.0363 16.9772 30.7585 17.0922 30.4688 17.0922Z" fill="#127ACE"/>
<path d="M19.2066 14.3027C19.2522 14.2593 19.2889 14.2073 19.3145 14.1498C19.3401 14.0922 19.3541 14.0301 19.3557 13.9672C19.3574 13.9042 19.3465 13.8415 19.3239 13.7827C19.3013 13.7239 19.2674 13.6701 19.224 13.6244C19.1806 13.5787 19.1286 13.5421 19.071 13.5165C19.0135 13.4909 18.9514 13.4769 18.8884 13.4753C18.8255 13.4736 18.7628 13.4844 18.704 13.5071C18.6452 13.5297 18.5914 13.5636 18.5457 13.607C18.4986 13.6519 18.461 13.7058 18.4354 13.7656C18.4097 13.8254 18.3965 13.8898 18.3965 13.9549C18.3965 14.0199 18.4097 14.0843 18.4354 14.1441C18.461 14.2039 18.4986 14.2578 18.5457 14.3027C18.6341 14.3889 18.7527 14.4372 18.8761 14.4372C18.9996 14.4372 19.1182 14.3889 19.2066 14.3027Z" fill="#127ACE"/>
<path d="M24.939 24.4381C24.5614 24.8208 24.3496 25.3369 24.3496 25.8746C24.3496 26.4123 24.5614 26.9284 24.939 27.3111C25.1274 27.5014 25.3517 27.6523 25.5989 27.755C25.8461 27.8577 26.1113 27.9102 26.379 27.9094C26.9166 27.9057 27.4312 27.6905 27.8114 27.3104C28.1915 26.9302 28.4067 26.4157 28.4103 25.8781C28.4112 25.6103 28.3587 25.3451 28.256 25.0979C28.1533 24.8507 28.0024 24.6264 27.8121 24.4381C27.4293 24.0604 26.9133 23.8486 26.3756 23.8486C25.8379 23.8486 25.3218 24.0604 24.939 24.4381ZM27.1512 26.6502C27.0503 26.7523 26.93 26.8332 26.7974 26.8881C26.6648 26.9431 26.5226 26.971 26.379 26.9702C26.2354 26.9718 26.0929 26.9442 25.9602 26.8892C25.8275 26.8342 25.7073 26.7529 25.6069 26.6502C25.5026 26.5495 25.4195 26.429 25.3623 26.2957C25.3052 26.1625 25.2751 26.0192 25.2739 25.8742C25.2727 25.7293 25.3003 25.5855 25.3552 25.4513C25.4101 25.3172 25.4912 25.1953 25.5937 25.0928C25.6963 24.9902 25.8181 24.9092 25.9523 24.8543C26.0865 24.7993 26.2303 24.7717 26.3752 24.7729C26.5202 24.7741 26.6635 24.8042 26.7967 24.8614C26.9299 24.9185 27.0504 25.0017 27.1512 25.1059C27.2539 25.2063 27.3352 25.3265 27.3902 25.4592C27.4452 25.592 27.4727 25.7344 27.4712 25.8781C27.472 26.0216 27.444 26.1638 27.3891 26.2964C27.3341 26.429 27.2533 26.5493 27.1512 26.6502Z" fill="#127ACE"/>
<path d="M20.5341 15.6244C20.5775 15.581 20.6119 15.5295 20.6354 15.4728C20.6589 15.4161 20.6709 15.3553 20.6709 15.294C20.6709 15.2326 20.6589 15.1718 20.6354 15.1151C20.6119 15.0584 20.5775 15.0069 20.5341 14.9635C20.4907 14.9201 20.4392 14.8857 20.3825 14.8622C20.3258 14.8387 20.265 14.8267 20.2036 14.8267C20.1423 14.8267 20.0815 14.8387 20.0248 14.8622C19.9681 14.8857 19.9166 14.9201 19.8732 14.9635C19.7856 15.0512 19.7363 15.17 19.7363 15.294C19.7363 15.4179 19.7856 15.5368 19.8732 15.6244C19.9608 15.712 20.0797 15.7613 20.2036 15.7613C20.3276 15.7613 20.4464 15.712 20.5341 15.6244Z" fill="#127ACE"/>
<path d="M16.5001 27.9375C16.0983 27.9375 15.7056 28.0566 15.3715 28.2798C15.0375 28.503 14.7771 28.8203 14.6234 29.1915C14.4696 29.5626 14.4294 29.9711 14.5078 30.3651C14.5862 30.7591 14.7796 31.1211 15.0637 31.4052C15.3478 31.6892 15.7097 31.8827 16.1038 31.9611C16.4978 32.0395 16.9062 31.9992 17.2774 31.8455C17.6486 31.6917 17.9658 31.4314 18.189 31.0973C18.4122 30.7633 18.5314 30.3706 18.5314 29.9688C18.5314 29.4301 18.3173 28.9134 17.9364 28.5325C17.5555 28.1515 17.0388 27.9375 16.5001 27.9375ZM16.5001 31.061C16.284 31.061 16.0729 30.9969 15.8933 30.8769C15.7137 30.7569 15.5737 30.5863 15.491 30.3868C15.4084 30.1872 15.3867 29.9676 15.4289 29.7557C15.471 29.5439 15.575 29.3493 15.7278 29.1965C15.8805 29.0438 16.0751 28.9398 16.287 28.8976C16.4988 28.8555 16.7184 28.8771 16.918 28.9598C17.1176 29.0424 17.2882 29.1824 17.4082 29.362C17.5282 29.5416 17.5922 29.7528 17.5922 29.9688C17.5922 30.2585 17.4772 30.5363 17.2723 30.7411C17.0675 30.9459 16.7897 31.061 16.5001 31.061Z" fill="#127ACE"/>
<path d="M6.62115 8.15304C7.02541 8.1559 7.42132 8.03808 7.75823 7.81464C8.09514 7.5912 8.35772 7.27231 8.51236 6.89879C8.667 6.52527 8.70667 6.1141 8.62628 5.7179C8.5459 5.3217 8.34913 4.9585 8.06115 4.67478C7.87168 4.48701 7.64685 4.33869 7.39967 4.23838C7.1525 4.13808 6.88789 4.08779 6.62115 4.09043C6.08354 4.09408 5.56898 4.30926 5.18883 4.68941C4.80867 5.06957 4.59349 5.58413 4.58984 6.12174C4.58984 6.66047 4.80386 7.17714 5.1848 7.55808C5.56574 7.93903 6.08241 8.15304 6.62115 8.15304ZM5.84897 5.37043C5.94814 5.2646 6.06764 5.17987 6.20032 5.1213C6.333 5.06273 6.47613 5.03153 6.62115 5.02956C6.76479 5.02803 6.90726 5.05559 7.03996 5.11059C7.17267 5.16558 7.29287 5.24687 7.39332 5.34956C7.49554 5.4505 7.5767 5.57074 7.6321 5.70329C7.68749 5.83584 7.71602 5.97807 7.71602 6.12174C7.71602 6.2654 7.68749 6.40763 7.6321 6.54018C7.5767 6.67273 7.49554 6.79297 7.39332 6.89391C7.29287 6.9966 7.17267 7.07789 7.03996 7.13288C6.90726 7.18788 6.76479 7.21544 6.62115 7.21391C6.47762 7.21465 6.33539 7.18672 6.20279 7.13177C6.0702 7.07683 5.94991 6.99596 5.84897 6.89391C5.74608 6.79358 5.66549 6.67269 5.61245 6.53913C5.55624 6.40721 5.52783 6.26512 5.52897 6.12174C5.52824 5.97821 5.55616 5.83598 5.61111 5.70338C5.66606 5.57078 5.74693 5.45049 5.84897 5.34956V5.37043Z" fill="#127ACE"/>
<path d="M24.3195 23.1581L23.1855 22.0242C24.5732 20.491 25.3869 18.5244 25.4881 16.459H27.0951C27.2187 16.459 27.3373 16.4099 27.4247 16.3225C27.5121 16.235 27.5612 16.1165 27.5612 15.9929C27.5612 15.8693 27.5121 15.7507 27.4247 15.6633C27.3373 15.5759 27.2187 15.5268 27.0951 15.5268H25.4881C25.4126 14.0199 24.9657 12.555 24.1873 11.2624C23.9004 10.796 23.5696 10.3581 23.1995 9.95462L24.3195 8.83462C24.3651 8.78894 24.4014 8.73471 24.4261 8.67503C24.4508 8.61535 24.4635 8.55139 24.4635 8.48679C24.4635 8.42219 24.4508 8.35823 24.4261 8.29855C24.4014 8.23887 24.3651 8.18464 24.3195 8.13897C24.2738 8.09329 24.2196 8.05705 24.1599 8.03233C24.1002 8.00761 24.0362 7.99489 23.9716 7.99489C23.907 7.99489 23.8431 8.00761 23.7834 8.03233C23.7237 8.05705 23.6695 8.09329 23.6238 8.13897L22.4968 9.26592C22.1833 8.99976 21.8534 8.75348 21.509 8.52853C20.1549 7.59944 18.5714 7.06039 16.9316 6.97027V5.40505C16.9316 5.28144 16.8825 5.16289 16.7951 5.07548C16.7077 4.98807 16.5892 4.93896 16.4655 4.93896C16.3419 4.93896 16.2234 4.98807 16.136 5.07548C16.0486 5.16289 15.9995 5.28144 15.9995 5.40505V7.01201C13.934 7.11326 11.9674 7.92694 10.4342 9.31462L9.30032 8.1807C9.20807 8.08846 9.08296 8.03663 8.9525 8.03663C8.82204 8.03663 8.69692 8.08846 8.60467 8.1807C8.51242 8.27295 8.4606 8.39807 8.4606 8.52853C8.4606 8.65899 8.51242 8.78411 8.60467 8.87636L9.73858 10.0103C8.3509 11.5435 7.53723 13.51 7.43598 15.5755H5.90554C5.78193 15.5755 5.66338 15.6246 5.57597 15.712C5.48856 15.7994 5.43945 15.918 5.43945 16.0416C5.43945 16.1652 5.48856 16.2837 5.57597 16.3711C5.66338 16.4586 5.78193 16.5077 5.90554 16.5077H7.5125C7.63662 18.7234 8.57548 20.8151 10.1486 22.3805C11.7216 23.9458 13.8179 24.8744 16.0342 24.9877V26.5946C16.0342 26.7182 16.0833 26.8368 16.1708 26.9242C16.2582 27.0116 16.3767 27.0607 16.5003 27.0607C16.6239 27.0607 16.7425 27.0116 16.8299 26.9242C16.9173 26.8368 16.9664 26.7182 16.9664 26.5946V24.9877C19.0319 24.8864 20.9984 24.0727 22.5316 22.6851L23.6655 23.819C23.7578 23.9112 23.8829 23.963 24.0134 23.963C24.1438 23.963 24.2689 23.9112 24.3612 23.819C24.4534 23.7267 24.5053 23.6016 24.5053 23.4711C24.5053 23.3407 24.4534 23.2156 24.3612 23.1233L24.3195 23.1581ZM16.5003 24.132C14.3435 24.132 12.2751 23.2752 10.75 21.7502C9.22493 20.2251 8.36815 18.1566 8.36815 15.9998C8.36815 13.843 9.22493 11.7746 10.75 10.2495C12.2751 8.72444 14.3435 7.86766 16.5003 7.86766C16.9455 7.86928 17.3898 7.9065 17.829 7.97897C18.4205 8.07642 18.9991 8.23976 19.5542 8.46592C19.8538 8.58384 20.1444 8.72334 20.4238 8.88331L20.556 8.95288C21.6365 9.55889 22.5603 10.4092 23.2537 11.4359C23.947 12.4626 24.3906 13.6372 24.549 14.8659C24.549 14.8659 24.549 14.9146 24.549 14.9355C24.5932 15.2793 24.6164 15.6254 24.6186 15.972C24.6213 17.0409 24.4135 18.0998 24.007 19.0883C23.6005 20.0768 23.0033 20.9756 22.2495 21.7334C21.4956 22.4911 20.5999 23.0929 19.6135 23.5045C18.627 23.916 17.5692 24.1293 16.5003 24.132Z" fill="#127ACE"/>
<path d="M5.18811 24.4383C4.99784 24.6266 4.84694 24.8509 4.74423 25.0981C4.64152 25.3454 4.58904 25.6106 4.58985 25.8783C4.5935 26.4159 4.80868 26.9305 5.18884 27.3106C5.56899 27.6908 6.08355 27.9059 6.62116 27.9096C6.88887 27.9104 7.15407 27.8579 7.4013 27.7552C7.64852 27.6525 7.87284 27.5016 8.06116 27.3113C8.44215 26.9303 8.65619 26.4136 8.65619 25.8748C8.65619 25.336 8.44215 24.8193 8.06116 24.4383C7.68017 24.0573 7.16344 23.8433 6.62464 23.8433C6.08584 23.8433 5.5691 24.0573 5.18811 24.4383ZM7.39333 26.6505C7.29288 26.7531 7.17268 26.8344 7.03997 26.8894C6.90727 26.9444 6.7648 26.972 6.62116 26.9705C6.3315 26.9705 6.0537 26.8554 5.84887 26.6506C5.64405 26.4457 5.52898 26.168 5.52898 25.8783C5.53259 25.5897 5.64882 25.314 5.85286 25.11C6.05691 24.9059 6.33262 24.7897 6.62116 24.7861C6.83714 24.7862 7.04826 24.8502 7.22782 24.9702C7.40739 25.0903 7.54734 25.2608 7.62999 25.4604C7.71263 25.6599 7.73426 25.8795 7.69214 26.0913C7.65001 26.3031 7.54603 26.4977 7.39333 26.6505Z" fill="#127ACE"/>
<path d="M26.3777 4.09034C26.11 4.08953 25.8448 4.14201 25.5976 4.24472C25.3504 4.34743 25.126 4.49832 24.9377 4.6886C24.6497 4.97233 24.453 5.33553 24.3726 5.73172C24.2922 6.12792 24.3319 6.53909 24.4865 6.91261C24.6412 7.28614 24.9037 7.60502 25.2406 7.82846C25.5775 8.0519 25.9735 8.16973 26.3777 8.16686C26.6457 8.16687 26.9109 8.11387 27.1583 8.01092C27.4057 7.90797 27.6302 7.7571 27.819 7.567C28.0078 7.3769 28.1572 7.15132 28.2584 6.90327C28.3597 6.65521 28.4109 6.38957 28.409 6.12165C28.4054 5.58404 28.1902 5.06948 27.81 4.68932C27.4299 4.30917 26.9153 4.09399 26.3777 4.09034ZM27.1499 6.87295C26.9442 7.07602 26.6668 7.18988 26.3777 7.18988C26.0887 7.18988 25.8113 7.07602 25.6056 6.87295C25.4598 6.71925 25.3619 6.52649 25.3238 6.31815C25.2856 6.1098 25.3089 5.89486 25.3907 5.6995C25.4725 5.50414 25.6094 5.33679 25.7847 5.21782C25.9599 5.09886 26.166 5.03342 26.3777 5.02947C26.5937 5.02952 26.8048 5.09359 26.9844 5.21361C27.164 5.33362 27.3039 5.50418 27.3866 5.70372C27.4692 5.90326 27.4908 6.12283 27.4487 6.33466C27.4066 6.54649 27.3026 6.74108 27.1499 6.89382V6.87295Z" fill="#127ACE"/>
<path d="M2.53131 13.9688C2.12955 13.9688 1.73682 14.0879 1.40277 14.3111C1.06873 14.5343 0.808369 14.8515 0.654625 15.2227C0.50088 15.5939 0.460654 16.0023 0.539032 16.3963C0.61741 16.7904 0.810873 17.1523 1.09496 17.4364C1.37904 17.7205 1.74098 17.914 2.13502 17.9923C2.52905 18.0707 2.93748 18.0305 3.30865 17.8767C3.67982 17.723 3.99707 17.4626 4.22027 17.1286C4.44348 16.7945 4.56261 16.4018 4.56261 16.0001C4.56261 15.7333 4.51007 15.4692 4.40799 15.2227C4.3059 14.9763 4.15628 14.7523 3.96765 14.5637C3.77903 14.3751 3.5551 14.2255 3.30865 14.1234C3.0622 14.0213 2.79806 13.9687 2.53131 13.9688ZM2.53131 17.0922C2.31529 17.0922 2.10413 17.0282 1.92453 16.9082C1.74492 16.7882 1.60493 16.6176 1.52227 16.418C1.4396 16.2184 1.41798 15.9988 1.46012 15.787C1.50226 15.5751 1.60628 15.3805 1.75902 15.2278C1.91176 15.075 2.10637 14.971 2.31823 14.9289C2.53009 14.8867 2.74969 14.9084 2.94926 14.991C3.14883 15.0737 3.3194 15.2137 3.43941 15.3933C3.55942 15.5729 3.62348 15.784 3.62348 16.0001C3.62348 16.1435 3.59523 16.2855 3.54034 16.418C3.48546 16.5505 3.40501 16.6709 3.30359 16.7723C3.20217 16.8738 3.08177 16.9542 2.94926 17.0091C2.81675 17.064 2.67473 17.0922 2.53131 17.0922Z" fill="#127ACE"/>
<path d="M20.4313 17.113C20.3113 16.9908 20.1648 16.8979 20.0032 16.8412C19.8416 16.7845 19.6692 16.7656 19.4991 16.786C19.3293 16.8059 19.166 16.8638 19.0215 16.9553C18.877 17.0468 18.755 17.1697 18.6644 17.3147L18.2609 17.9756C18.2387 18.0162 18.2018 18.0467 18.1578 18.0609C18.1139 18.0752 18.0661 18.072 18.0244 18.0521C17.2205 17.7258 16.49 17.242 15.8759 16.6291C15.2618 16.0162 14.7766 15.2867 14.4487 14.4834C14.43 14.4404 14.4275 14.3921 14.4415 14.3474C14.4556 14.3027 14.4853 14.2645 14.5252 14.2399L15.1861 13.8365C15.3312 13.7458 15.454 13.6238 15.5455 13.4793C15.637 13.3348 15.6949 13.1715 15.7148 13.0017C15.7352 12.8316 15.7163 12.6592 15.6596 12.4976C15.6029 12.336 15.51 12.1895 15.3878 12.0695L13.7739 10.4347C13.5941 10.255 13.3587 10.1414 13.1061 10.1124C12.8535 10.0833 12.5986 10.1405 12.3826 10.2747C11.7303 10.6768 11.2192 11.2718 10.9201 11.9772C10.6209 12.6827 10.5486 13.4637 10.713 14.2121C11.1753 16.0321 12.1395 17.6856 13.4957 18.9843C15.1583 20.6469 17.8017 22.4625 20.2643 21.6208C21.0709 21.3544 21.758 20.8126 22.2052 20.0904C22.3423 19.8748 22.4006 19.6185 22.3702 19.3649C22.3397 19.1113 22.2225 18.876 22.0383 18.6991L20.4313 17.113ZM21.4052 19.6312C20.4035 21.2591 18.4209 21.0712 16.9113 20.3269C15.8825 19.8152 14.9429 19.1411 14.1287 18.3304C12.9127 17.1574 12.0478 15.6686 11.6313 14.0312C11.5145 13.4783 11.5714 12.9028 11.7943 12.3835C12.0173 11.8642 12.3952 11.4265 12.8765 11.1304C12.91 11.1033 12.9517 11.0885 12.9948 11.0885C13.0378 11.0885 13.0796 11.1033 13.113 11.1304L14.727 12.7443C14.7481 12.7647 14.7642 12.7899 14.7738 12.8176C14.7835 12.8454 14.7865 12.8751 14.7826 12.9043C14.7787 12.9327 14.7686 12.9599 14.753 12.984C14.7373 13.008 14.7166 13.0283 14.6922 13.0434L14.0313 13.4538C13.8027 13.594 13.6317 13.8111 13.5488 14.0662C13.4659 14.3212 13.4767 14.5974 13.5791 14.8451C13.9568 15.7615 14.512 16.5941 15.2129 17.2949C15.9137 17.9957 16.7463 18.551 17.6626 18.9286C17.9104 19.0311 18.1866 19.0419 18.4416 18.959C18.6966 18.8761 18.9137 18.705 19.0539 18.4765L19.4644 17.8156C19.4779 17.789 19.4978 17.7662 19.5222 17.7492C19.5467 17.7322 19.575 17.7215 19.6046 17.7181C19.6342 17.7146 19.6642 17.7186 19.6919 17.7295C19.7196 17.7404 19.7442 17.7581 19.7635 17.7808L21.3704 19.3878C21.4023 19.4188 21.4229 19.4596 21.4292 19.5036C21.4355 19.5476 21.4271 19.5925 21.4052 19.6312Z" fill="#127ACE"/>
</svg>
