<svg width="18" height="20" viewBox="0 0 18 20" fill="none" xmlns="http://www.w3.org/2000/svg">
<path fill-rule="evenodd" clip-rule="evenodd" d="M0.666992 4.16683H17.3337V5.8335H0.666992V4.16683Z" fill="#FF4D4F"/>
<path fill-rule="evenodd" clip-rule="evenodd" d="M7.33366 2.50016C7.11265 2.50016 6.90068 2.58796 6.7444 2.74424C6.58812 2.90052 6.50033 3.11248 6.50033 3.3335V4.16683H11.5003V3.3335C11.5003 3.11248 11.4125 2.90052 11.2562 2.74424C11.1 2.58796 10.888 2.50016 10.667 2.50016H7.33366ZM13.167 4.16683V3.3335C13.167 2.67045 12.9036 2.03457 12.4348 1.56573C11.9659 1.09689 11.33 0.833496 10.667 0.833496H7.33366C6.67062 0.833496 6.03473 1.09689 5.56589 1.56573C5.09705 2.03457 4.83366 2.67045 4.83366 3.3335V4.16683H2.33366V16.6668C2.33366 17.3299 2.59705 17.9658 3.06589 18.4346C3.53473 18.9034 4.17062 19.1668 4.83366 19.1668H13.167C13.83 19.1668 14.4659 18.9034 14.9348 18.4346C15.4036 17.9658 15.667 17.3299 15.667 16.6668V4.16683H13.167ZM4.00033 5.8335V16.6668C4.00033 16.8878 4.08812 17.0998 4.2444 17.2561C4.40068 17.4124 4.61265 17.5002 4.83366 17.5002H13.167C13.388 17.5002 13.6 17.4124 13.7562 17.2561C13.9125 17.0998 14.0003 16.8878 14.0003 16.6668V5.8335H4.00033Z" fill="#FF4D4F"/>
<path fill-rule="evenodd" clip-rule="evenodd" d="M8.16699 8.3335V15.0002H6.50033V8.3335H8.16699Z" fill="#FF4D4F"/>
<path fill-rule="evenodd" clip-rule="evenodd" d="M11.5003 8.3335V15.0002H9.83366V8.3335H11.5003Z" fill="#FF4D4F"/>
</svg>
