<svg width="138" height="69" viewBox="0 0 138 69" fill="none" xmlns="http://www.w3.org/2000/svg">
<path d="M22.4994 15.5667H1.49944C1.38158 15.5667 1.28516 15.6631 1.28516 15.7809V17.4952C1.28516 17.6131 1.38158 17.7095 1.49944 17.7095H22.4994C22.6173 17.7095 22.7137 17.6131 22.7137 17.4952V15.7809C22.7137 15.6631 22.6173 15.5667 22.4994 15.5667ZM14.4994 32.2809H1.49944C1.38158 32.2809 1.28516 32.3774 1.28516 32.4952V34.2095C1.28516 34.3274 1.38158 34.4238 1.49944 34.4238H14.4994C14.6173 34.4238 14.7137 34.3274 14.7137 34.2095V32.4952C14.7137 32.3774 14.6173 32.2809 14.4994 32.2809ZM18.4994 23.9238H1.49944C1.38158 23.9238 1.28516 24.0202 1.28516 24.1381V25.8524C1.28516 25.9702 1.38158 26.0667 1.49944 26.0667H18.4994C18.6173 26.0667 18.7137 25.9702 18.7137 25.8524V24.1381C18.7137 24.0202 18.6173 23.9238 18.4994 23.9238Z" fill="white"/>
<path d="M127.511 18.1221V18.1798C126.295 13.2723 123.473 8.9124 119.494 5.79385C115.515 2.67531 110.607 0.977365 105.551 0.970237C100.495 0.96311 95.5821 2.64721 91.594 5.75452C87.6058 8.86184 84.7716 13.2138 83.5423 18.1178C82.0724 18.1178 80.6627 18.7018 79.6233 19.7411C78.5839 20.7805 78 22.1902 78 23.6601C78 25.13 78.5839 26.5397 79.6233 27.5791C80.6627 28.6185 82.0724 29.2024 83.5423 29.2024C84.6952 33.7688 87.2414 37.8628 90.8273 40.9159C94.4132 43.9691 98.8609 45.8298 103.553 46.2397C103.77 46.5546 104.059 46.8134 104.396 46.9949C104.733 47.1764 105.108 47.2754 105.491 47.2837C105.873 47.2921 106.253 47.2095 106.597 47.0429C106.942 46.8763 107.242 46.6303 107.473 46.3252C107.511 46.2739 107.547 46.2226 107.582 46.1713C107.833 45.7813 107.967 45.3272 107.967 44.8632C107.967 44.3993 107.833 43.9451 107.582 43.5551V43.5444C106.917 43.5444 104.224 43.5102 103.587 43.4504C99.7565 43.0759 96.1172 41.5975 93.1108 39.1946C90.1045 36.7918 87.8602 33.5679 86.6506 29.9143C85.4411 26.2607 85.3181 22.3345 86.2967 18.6124C87.2753 14.8902 89.3134 11.5322 92.1636 8.94602C95.0137 6.35979 98.5534 4.65657 102.353 4.04311C106.152 3.42966 110.048 3.93236 113.567 5.49019C117.087 7.04801 120.078 9.59397 122.178 12.819C124.278 16.044 125.397 19.8094 125.399 23.658V29.2153H127.571C127.774 29.2137 127.978 29.2002 128.18 29.1746C129.597 29.0229 130.902 28.3307 131.822 27.2421C132.743 26.1534 133.208 24.752 133.122 23.329C133.036 21.906 132.405 20.5709 131.36 19.6012C130.315 18.6315 128.936 18.1018 127.511 18.1221Z" fill="#F27227"/>
<path d="M105.543 6.5459C100.989 6.5459 96.6219 8.35485 93.402 11.5748C90.182 14.7948 88.373 19.162 88.373 23.7157C88.373 28.2694 90.182 32.6366 93.402 35.8565C96.6219 39.0765 100.989 40.8855 105.543 40.8855H122.713V23.7157C122.713 21.4608 122.269 19.228 121.406 17.1448C120.543 15.0615 119.279 13.1686 117.684 11.5742C116.09 9.97977 114.197 8.71506 112.114 7.8523C110.03 6.98954 107.798 6.54562 105.543 6.5459ZM118.737 36.9099H105.543C102.933 36.9103 100.381 36.1367 98.2107 34.6869C96.0403 33.2372 94.3486 31.1763 93.3495 28.765C92.3503 26.3538 92.0887 23.7003 92.5976 21.1404C93.1066 18.5804 94.3633 16.2288 96.2087 14.3831C98.0542 12.5373 100.406 11.2803 102.965 10.7709C105.525 10.2616 108.179 10.5228 110.59 11.5215C113.002 12.5202 115.063 14.2116 116.513 16.3818C117.963 18.552 118.737 21.1035 118.737 23.7135V36.9099Z" fill="#0FC64D"/>
<path d="M105.542 26.3105C106.975 26.3105 108.137 25.1487 108.137 23.7157C108.137 22.2826 106.975 21.1208 105.542 21.1208C104.109 21.1208 102.947 22.2826 102.947 23.7157C102.947 25.1487 104.109 26.3105 105.542 26.3105Z" fill="#17A0FB"/>
<path d="M98.7374 26.3105C100.17 26.3105 101.332 25.1487 101.332 23.7157C101.332 22.2826 100.17 21.1208 98.7374 21.1208C97.3043 21.1208 96.1426 22.2826 96.1426 23.7157C96.1426 25.1487 97.3043 26.3105 98.7374 26.3105Z" fill="#17A0FB"/>
<path d="M112.346 26.3105C113.779 26.3105 114.941 25.1487 114.941 23.7157C114.941 22.2826 113.779 21.1208 112.346 21.1208C110.913 21.1208 109.751 22.2826 109.751 23.7157C109.751 25.1487 110.913 26.3105 112.346 26.3105Z" fill="#17A0FB"/>
<path d="M92.122 56.674C92.122 59.1427 91.5853 61.1513 90.512 62.7C89.362 64.3867 87.7827 65.23 85.774 65.23C83.7653 65.23 82.186 64.3867 81.036 62.7C79.9627 61.1513 79.426 59.1427 79.426 56.674C79.426 54.2053 79.9627 52.189 81.036 50.625C82.186 48.9537 83.7653 48.118 85.774 48.118C87.7827 48.118 89.362 48.9537 90.512 50.625C91.5853 52.189 92.122 54.2053 92.122 56.674ZM90.719 56.674C90.719 54.5733 90.2973 52.8483 89.454 51.499C88.5647 50.073 87.338 49.36 85.774 49.36C84.21 49.36 82.9833 50.073 82.094 51.499C81.2507 52.8483 80.829 54.5733 80.829 56.674C80.829 58.7747 81.2507 60.4997 82.094 61.849C82.9833 63.275 84.21 63.988 85.774 63.988C87.338 63.988 88.5647 63.275 89.454 61.849C90.2973 60.4997 90.719 58.7747 90.719 56.674ZM103.111 65V56.536C103.111 54.512 101.984 53.5 99.73 53.5C98.5646 53.5 97.5603 53.6687 96.717 54.006V65H95.36V53.224C96.6173 52.6567 98.074 52.373 99.73 52.373C101.248 52.373 102.421 52.7333 103.249 53.454C104.062 54.1747 104.468 55.179 104.468 56.467V65H103.111ZM117.548 64.379C116.659 64.977 115.455 65.276 113.937 65.276C112.005 65.276 110.449 64.563 109.268 63.137C107.98 61.6037 107.336 59.4493 107.336 56.674C107.336 53.8987 107.98 51.7367 109.268 50.188C110.449 48.7773 112.005 48.072 113.937 48.072C115.455 48.072 116.659 48.371 117.548 48.969L116.536 51.568C115.938 51.1233 115.202 50.901 114.328 50.901C113.224 50.901 112.35 51.384 111.706 52.35C111.016 53.3773 110.671 54.811 110.671 56.651C110.671 58.491 111.016 59.917 111.706 60.929C112.35 61.895 113.224 62.378 114.328 62.378C115.233 62.378 115.969 62.1633 116.536 61.734L117.548 64.379ZM128.414 65L125.286 58.951H125.24L122.089 65H118.524L123.331 56.375L118.869 48.348H122.411L125.24 53.799H125.286L128.092 48.348H131.634L127.172 56.375L131.979 65H128.414Z" fill="white"/>
</svg>
