<svg width="190" height="56" viewBox="0 0 190 56" fill="none" xmlns="http://www.w3.org/2000/svg">
<g clip-path="url(#clip0)">
<path d="M117.637 19.6642V19.7268C116.32 14.4103 113.263 9.68704 108.952 6.30862C104.641 2.93019 99.3238 1.09075 93.8467 1.08303C88.3696 1.07531 83.0473 2.89975 78.7268 6.26601C74.4063 9.63226 71.3359 14.3469 70.0041 19.6596C68.4118 19.6596 66.8846 20.2922 65.7586 21.4182C64.6326 22.5442 64 24.0714 64 25.6638C64 27.2562 64.6326 28.7833 65.7586 29.9093C66.8846 31.0353 68.4118 31.6679 70.0041 31.6679C71.2531 36.6148 74.0115 41.05 77.8963 44.3575C81.781 47.6651 86.5993 49.6809 91.6821 50.1249C91.9177 50.4661 92.2308 50.7465 92.5958 50.9431C92.9608 51.1397 93.3673 51.247 93.7817 51.256C94.1962 51.265 94.607 51.1756 94.9802 50.9951C95.3534 50.8146 95.6785 50.5481 95.9287 50.2176C95.9704 50.162 96.0098 50.1064 96.0468 50.0508C96.319 49.6283 96.4638 49.1364 96.4638 48.6338C96.4638 48.1311 96.319 47.6392 96.0468 47.2166V47.2051C95.3267 47.2051 92.4091 47.168 91.7191 47.1032C87.5696 46.6975 83.627 45.0959 80.3701 42.4928C77.1132 39.8897 74.6819 36.3972 73.3715 32.4391C72.0611 28.481 71.9279 24.2277 72.9881 20.1954C74.0483 16.163 76.2562 12.5252 79.3439 9.72346C82.4315 6.92171 86.2662 5.07656 90.3822 4.41198C94.4982 3.74741 98.7187 4.292 102.531 5.97965C106.344 7.66729 109.584 10.4254 111.86 13.9192C114.135 17.4129 115.347 21.4921 115.349 25.6614V31.6818H117.702C117.922 31.6801 118.143 31.6655 118.362 31.6378C119.897 31.4734 121.31 30.7236 122.307 29.5442C123.305 28.3648 123.809 26.8466 123.715 25.305C123.622 23.7635 122.938 22.3171 121.806 21.2666C120.674 20.2161 119.181 19.6422 117.637 19.6642Z" fill="#F27227"/>
<path d="M93.8379 7.12305C88.9047 7.12305 84.1736 9.08275 80.6853 12.571C77.197 16.0593 75.2373 20.7905 75.2373 25.7236C75.2373 30.6568 77.197 35.388 80.6853 38.8762C84.1736 42.3645 88.9047 44.3242 93.8379 44.3242H112.438V25.7236C112.439 23.2809 111.958 20.862 111.023 18.6051C110.089 16.3483 108.718 14.2976 106.991 12.5704C105.264 10.8431 103.213 9.47297 100.956 8.53831C98.6995 7.60365 96.2806 7.12274 93.8379 7.12305ZM108.132 40.0174H93.8379C91.0103 40.0178 88.2461 39.1798 85.8948 37.6092C83.5435 36.0386 81.7108 33.806 80.6284 31.1938C79.546 28.5816 79.2626 25.707 79.814 22.9337C80.3653 20.1604 81.7267 17.6129 83.7259 15.6133C85.7252 13.6138 88.2725 12.252 91.0457 11.7002C93.8189 11.1483 96.6935 11.4313 99.3059 12.5133C101.918 13.5953 104.151 15.4276 105.722 17.7786C107.293 20.1297 108.132 22.8937 108.132 25.7213V40.0174Z" fill="#0FC64D"/>
<path d="M93.8374 28.5352C95.3899 28.5352 96.6485 27.2766 96.6485 25.7241C96.6485 24.1716 95.3899 22.9131 93.8374 22.9131C92.2849 22.9131 91.0264 24.1716 91.0264 25.7241C91.0264 27.2766 92.2849 28.5352 93.8374 28.5352Z" fill="#17A0FB"/>
<path d="M86.4653 28.5352C88.0178 28.5352 89.2764 27.2766 89.2764 25.7241C89.2764 24.1716 88.0178 22.9131 86.4653 22.9131C84.9128 22.9131 83.6543 24.1716 83.6543 25.7241C83.6543 27.2766 84.9128 28.5352 86.4653 28.5352Z" fill="#17A0FB"/>
<path d="M101.209 28.5352C102.761 28.5352 104.02 27.2766 104.02 25.7241C104.02 24.1716 102.761 22.9131 101.209 22.9131C99.656 22.9131 98.3975 24.1716 98.3975 25.7241C98.3975 27.2766 99.656 28.5352 101.209 28.5352Z" fill="#17A0FB"/>
</g>
<path d="M143.964 24.588C143.964 27.3787 143.357 29.6493 142.144 31.4C140.844 33.3067 139.059 34.26 136.788 34.26C134.517 34.26 132.732 33.3067 131.432 31.4C130.219 29.6493 129.612 27.3787 129.612 24.588C129.612 21.7973 130.219 19.518 131.432 17.75C132.732 15.8607 134.517 14.916 136.788 14.916C139.059 14.916 140.844 15.8607 142.144 17.75C143.357 19.518 143.964 21.7973 143.964 24.588ZM142.378 24.588C142.378 22.2133 141.901 20.2633 140.948 18.738C139.943 17.126 138.556 16.32 136.788 16.32C135.02 16.32 133.633 17.126 132.628 18.738C131.675 20.2633 131.198 22.2133 131.198 24.588C131.198 26.9627 131.675 28.9127 132.628 30.438C133.633 32.05 135.02 32.856 136.788 32.856C138.556 32.856 139.943 32.05 140.948 30.438C141.901 28.9127 142.378 26.9627 142.378 24.588ZM156.386 34V24.432C156.386 22.144 155.112 21 152.564 21C151.247 21 150.112 21.1907 149.158 21.572V34H147.624V20.688C149.046 20.0467 150.692 19.726 152.564 19.726C154.28 19.726 155.606 20.1333 156.542 20.948C157.461 21.7627 157.92 22.898 157.92 24.354V34H156.386ZM172.707 33.298C171.701 33.974 170.341 34.312 168.625 34.312C166.441 34.312 164.681 33.506 163.347 31.894C161.891 30.1607 161.163 27.7253 161.163 24.588C161.163 21.4507 161.891 19.0067 163.347 17.256C164.681 15.6613 166.441 14.864 168.625 14.864C170.341 14.864 171.701 15.202 172.707 15.878L171.563 18.816C170.887 18.3133 170.055 18.062 169.067 18.062C167.819 18.062 166.831 18.608 166.103 19.7C165.323 20.8613 164.933 22.482 164.933 24.562C164.933 26.642 165.323 28.254 166.103 29.398C166.831 30.49 167.819 31.036 169.067 31.036C170.089 31.036 170.921 30.7933 171.563 30.308L172.707 33.298ZM184.99 34L181.454 27.162H181.402L177.84 34H173.81L179.244 24.25L174.2 15.176H178.204L181.402 21.338H181.454L184.626 15.176H188.63L183.586 24.25L189.02 34H184.99Z" fill="white"/>
<defs>
<clipPath id="clip0">
<rect width="60" height="51.4286" fill="white" transform="translate(64)"/>
</clipPath>
</defs>
</svg>
