<svg width="357" height="64" viewBox="0 0 357 64" fill="none" xmlns="http://www.w3.org/2000/svg">
<path d="M65.1024 23.2203V23.2951C63.5277 16.9374 59.8719 11.2891 54.7166 7.24903C49.5613 3.20895 43.2028 1.00926 36.653 1.00003C30.1033 0.990796 23.7386 3.17255 18.572 7.19808C13.4053 11.2236 9.73355 16.8616 8.14099 23.2148C6.23672 23.2148 4.41045 23.9713 3.06393 25.3178C1.7174 26.6643 0.960938 28.4906 0.960938 30.3948C0.960938 32.2991 1.7174 34.1254 3.06393 35.4719C4.41045 36.8184 6.23672 37.5749 8.14099 37.5749C9.63454 43.4906 12.9332 48.7944 17.5787 52.7498C22.2243 56.7051 27.9863 59.1157 34.0645 59.6467C34.3462 60.0547 34.7207 60.39 35.1572 60.6251C35.5937 60.8602 36.0797 60.9884 36.5754 60.9993C37.0711 61.0101 37.5622 60.9031 38.0085 60.6873C38.4549 60.4714 38.8436 60.1527 39.1429 59.7575C39.1927 59.691 39.2398 59.6245 39.2841 59.5581C39.6096 59.0528 39.7827 58.4645 39.7827 57.8635C39.7827 57.2624 39.6096 56.6741 39.2841 56.1688V56.155C38.4229 56.155 34.934 56.1107 34.1088 56.0331C29.1466 55.548 24.4319 53.6327 20.5371 50.5198C16.6423 47.4069 13.7349 43.2304 12.1679 38.4971C10.6008 33.7639 10.4416 28.6775 11.7094 23.8555C12.9771 19.0334 15.6175 14.6831 19.3099 11.3327C23.0023 7.9822 27.5879 5.77568 32.51 4.98095C37.4322 4.18622 42.4792 4.83747 47.0384 6.85563C51.5976 8.8738 55.4729 12.1721 58.1939 16.3501C60.9148 20.5281 62.3644 25.4062 62.3666 30.3921V37.5915H65.1799C65.4438 37.5895 65.7073 37.5719 65.9691 37.5389C67.8054 37.3423 69.4954 36.4456 70.6878 35.0352C71.8801 33.6249 72.4832 31.8093 72.3716 29.9658C72.26 28.1224 71.4424 26.3928 70.0886 25.1365C68.7348 23.8803 66.949 23.194 65.1024 23.2203Z" fill="url(#paint0_linear)"/>
<path d="M36.6439 8.22314C30.7445 8.22314 25.0868 10.5666 20.9154 14.7381C16.7439 18.9096 14.4004 24.5673 14.4004 30.4666C14.4004 36.366 16.7439 42.0237 20.9154 46.1951C25.0868 50.3666 30.7445 52.7101 36.6439 52.7101H58.8874V30.4666C58.8877 27.5455 58.3126 24.6529 57.1949 21.954C56.0772 19.2551 54.4388 16.8029 52.3732 14.7373C50.3076 12.6717 47.8554 11.0333 45.1565 9.91559C42.4577 8.79788 39.565 8.22278 36.6439 8.22314ZM53.737 47.5597H36.6439C33.2625 47.5603 29.9569 46.5581 27.1452 44.6799C24.3334 42.8017 22.1417 40.1319 20.8474 37.0081C19.553 33.8843 19.214 30.4468 19.8734 27.1303C20.5327 23.8139 22.1607 20.7674 24.5515 18.3762C26.9423 15.985 29.9885 14.3565 33.3048 13.6967C36.6212 13.0368 40.0588 13.3752 43.1828 14.6691C46.3068 15.9629 48.977 18.1541 50.8556 20.9656C52.7343 23.7771 53.737 27.0825 53.737 30.4639V47.5597Z" fill="url(#paint1_linear)"/>
<path d="M36.6428 33.8281C38.4994 33.8281 40.0044 32.3231 40.0044 30.4666C40.0044 28.61 38.4994 27.105 36.6428 27.105C34.7863 27.105 33.2812 28.61 33.2812 30.4666C33.2812 32.3231 34.7863 33.8281 36.6428 33.8281Z" fill="#1169B0"/>
<path d="M27.8264 33.8281C29.683 33.8281 31.188 32.3231 31.188 30.4666C31.188 28.61 29.683 27.105 27.8264 27.105C25.9699 27.105 24.4648 28.61 24.4648 30.4666C24.4648 32.3231 25.9699 33.8281 27.8264 33.8281Z" fill="#1169B0"/>
<path d="M45.4583 33.8281C47.3148 33.8281 48.8198 32.3231 48.8198 30.4666C48.8198 28.61 47.3148 27.105 45.4583 27.105C43.6017 27.105 42.0967 28.61 42.0967 30.4666C42.0967 32.3231 43.6017 33.8281 45.4583 33.8281Z" fill="#1169B0"/>
<path d="M97.1208 29.312C97.1208 31.888 96.5608 33.984 95.4408 35.6C94.2408 37.36 92.5928 38.24 90.4968 38.24C88.4008 38.24 86.7528 37.36 85.5528 35.6C84.4328 33.984 83.8728 31.888 83.8728 29.312C83.8728 26.736 84.4328 24.632 85.5528 23C86.7528 21.256 88.4008 20.384 90.4968 20.384C92.5928 20.384 94.2408 21.256 95.4408 23C96.5608 24.632 97.1208 26.736 97.1208 29.312ZM95.6568 29.312C95.6568 27.12 95.2168 25.32 94.3368 23.912C93.4088 22.424 92.1288 21.68 90.4968 21.68C88.8648 21.68 87.5848 22.424 86.6568 23.912C85.7768 25.32 85.3368 27.12 85.3368 29.312C85.3368 31.504 85.7768 33.304 86.6568 34.712C87.5848 36.2 88.8648 36.944 90.4968 36.944C92.1288 36.944 93.4088 36.2 94.3368 34.712C95.2168 33.304 95.6568 31.504 95.6568 29.312ZM108.588 38V29.168C108.588 27.056 107.412 26 105.06 26C103.844 26 102.796 26.176 101.916 26.528V38H100.5V25.712C101.812 25.12 103.332 24.824 105.06 24.824C106.644 24.824 107.868 25.2 108.732 25.952C109.58 26.704 110.004 27.752 110.004 29.096V38H108.588ZM123.653 37.352C122.725 37.976 121.469 38.288 119.885 38.288C117.869 38.288 116.245 37.544 115.013 36.056C113.669 34.456 112.997 32.208 112.997 29.312C112.997 26.416 113.669 24.16 115.013 22.544C116.245 21.072 117.869 20.336 119.885 20.336C121.469 20.336 122.725 20.648 123.653 21.272L122.597 23.984C121.973 23.52 121.205 23.288 120.293 23.288C119.141 23.288 118.229 23.792 117.557 24.8C116.837 25.872 116.477 27.368 116.477 29.288C116.477 31.208 116.837 32.696 117.557 33.752C118.229 34.76 119.141 35.264 120.293 35.264C121.237 35.264 122.005 35.04 122.597 34.592L123.653 37.352ZM134.991 38L131.727 31.688H131.679L128.391 38H124.671L129.687 29L125.031 20.624H128.727L131.679 26.312H131.727L134.655 20.624H138.351L133.695 29L138.711 38H134.991Z" fill="black" fill-opacity="0.85"/>
<defs>
<linearGradient id="paint0_linear" x1="0.960938" y1="6497.2" x2="18388.3" y2="6497.2" gradientUnits="userSpaceOnUse">
<stop stop-color="#F27227"/>
<stop offset="1" stop-color="#F15A29"/>
</linearGradient>
<linearGradient id="paint1_linear" x1="14.3976" y1="30.4666" x2="58.8874" y2="30.4666" gradientUnits="userSpaceOnUse">
<stop stop-color="#16B14B"/>
<stop offset="1" stop-color="#009444"/>
</linearGradient>
</defs>
</svg>
