<svg width="32" height="33" viewBox="0 0 32 33" fill="none" xmlns="http://www.w3.org/2000/svg">
<path d="M26.4177 3.06201C24.6713 3.06201 23.1688 4.21483 22.5671 5.83576C22.5358 5.9185 22.4293 6.26086 22.4293 6.26086L19.998 16.8414H25.5826C27.5013 16.8414 29.1251 15.4506 29.5848 13.5757C29.5848 13.5765 29.5845 13.5765 29.5845 13.5768H29.5848L32 3.06201H26.4177Z" fill="#16B14B"/>
<path d="M17.1193 0C15.2497 0 13.6717 1.27248 13.1819 3.00896C13.1452 3.13868 13.1152 3.27137 13.091 3.40554L9.30029 19.9038H14.8801C16.7922 19.9038 18.4004 18.5726 18.8497 16.7755H18.8512L22.7056 0.000164739H17.1193V0Z" fill="#F27227"/>
<path d="M6.41854 3.06218C4.60845 3.06218 3.06049 4.29972 2.50492 6.01427C2.49295 6.05268 2.48064 6.09125 2.469 6.12982L2.37583 6.4987L0 16.8416H5.71944C7.42815 16.8416 8.89524 15.7021 9.46492 14.1057L9.69145 13.1215L12.0018 3.06201H6.41854V3.06218Z" fill="#1169B0"/>
<path d="M5.37472 6.49805L5.37243 6.50711H5.28582C4.88722 6.50711 4.51159 6.64986 4.16762 6.93204C3.83611 7.20352 3.6186 7.53416 3.54331 7.80531H3.5402L2.25928 13.3965L2.33211 13.3955C2.73497 13.3955 3.11568 13.2521 3.4613 12.9671C3.80888 12.6838 4.03081 12.3355 4.12054 11.9338L4.40054 10.7203L6.94794 10.721C7.34605 10.721 7.73021 10.5716 8.07779 10.2898C8.42455 10.0081 8.646 9.66211 8.73539 9.26141L8.75147 9.18806L4.75518 9.18509L5.0214 8.03228L8.48278 8.02717C8.88122 8.02717 9.2575 7.88591 9.60082 7.60619C9.94332 7.32582 10.1575 6.97358 10.2535 6.57651L10.2712 6.5025L5.37472 6.49805Z" fill="white"/>
<path d="M19.5046 6.8376C19.2845 6.6159 18.9976 6.50365 18.6511 6.50365L13.7661 6.49805L12.1885 13.3877H12.1904L12.1885 13.3966L12.2613 13.3957C12.6643 13.3957 13.0446 13.2523 13.3907 12.9673C13.7381 12.6839 13.9597 12.3356 14.0497 11.934L14.3333 10.7065L17.7152 10.7096C18.1121 10.7096 18.4669 10.6638 18.8111 10.3849C19.1536 10.1065 19.3975 9.66425 19.4943 9.25746L19.7912 7.98085C19.8128 7.88014 19.8251 7.77465 19.8272 7.66718C19.833 7.33835 19.7249 7.0588 19.5046 6.8376ZM17.9802 9.18411L14.6854 9.18097L14.9519 8.02602L18.2471 8.02948L17.9802 9.18411Z" fill="white"/>
<path d="M29.4437 6.84176C29.2279 6.6199 28.9408 6.50732 28.5929 6.50732H26.4413H26.3057H23.4384L23.4282 6.55628C23.4051 6.66441 23.3926 6.76396 23.3908 6.85973C23.3853 7.19565 23.4922 7.47866 23.7091 7.70168C23.9257 7.92304 24.2123 8.03546 24.5605 8.03546H25.639L24.4106 13.3967L24.4836 13.3957C24.8865 13.3957 25.2669 13.2523 25.6128 12.9673C25.9604 12.684 26.182 12.3357 26.2717 11.934L27.1721 8.03529H29.7151L29.7256 7.9865C29.7474 7.88414 29.7592 7.77882 29.7611 7.67349C29.7666 7.34219 29.6606 7.06247 29.4437 6.84176Z" fill="white"/>
<path d="M2.60552 26.0504V31.9317H1.55424V26.0504H0V25.1621H4.14992V26.0504H2.60552Z" fill="white"/>
<path d="M8.84909 29.3885L5.5177 29.8559C5.62352 30.7662 6.13525 31.2212 7.05311 31.2212C7.59914 31.2212 8.0611 31.1186 8.43983 30.9125L8.73763 31.6791C8.28466 31.9163 7.70182 32.0342 6.98828 32.0342C6.20656 32.0342 5.59863 31.7976 5.16406 31.3235C4.73598 30.8627 4.52246 30.2236 4.52246 29.407C4.52246 28.6278 4.72385 27.998 5.12747 27.5182C5.53673 27.0319 6.08903 26.7886 6.78333 26.7886C7.4287 26.7886 7.93772 26.9882 8.30975 27.3871C8.67573 27.7861 8.85871 28.3256 8.85871 29.005C8.8585 29.1733 8.85515 29.3011 8.84909 29.3885ZM7.88146 28.8459C7.8754 27.9736 7.50273 27.5369 6.76514 27.5369C6.3678 27.5369 6.05453 27.6804 5.82532 27.9671C5.58316 28.26 5.45893 28.6652 5.45287 29.1825L7.88146 28.8459Z" fill="white"/>
<path d="M9.58398 31.9315V24.5913H10.6077V31.9315H9.58398Z" fill="white"/>
<path d="M15.6606 29.3885L12.3292 29.8559C12.435 30.7662 12.9464 31.2212 13.8646 31.2212C14.4107 31.2212 14.8726 31.1186 15.2514 30.9125L15.5492 31.6791C15.0962 31.9163 14.5133 32.0342 13.7998 32.0342C13.0181 32.0342 12.4099 31.7976 11.9756 31.3235C11.5475 30.8627 11.334 30.2236 11.334 29.407C11.334 28.6278 11.5354 27.998 11.939 27.5182C12.3483 27.0319 12.9006 26.7886 13.5949 26.7886C14.2406 26.7886 14.7492 26.9882 15.1213 27.3871C15.4868 27.7861 15.6702 28.3256 15.6702 29.005C15.67 29.1733 15.6667 29.3011 15.6606 29.3885ZM14.693 28.8459C14.6869 27.9736 14.3143 27.5369 13.5762 27.5369C13.1793 27.5369 12.866 27.6804 12.6368 27.9671C12.3951 28.26 12.2705 28.6652 12.2644 29.1825L14.693 28.8459Z" fill="white"/>
<path d="M19.6711 31.6883C19.3301 31.919 18.902 32.0342 18.3869 32.0342C17.7725 32.0342 17.267 31.8255 16.8703 31.4078C16.4108 30.9282 16.1816 30.261 16.1816 29.407C16.1816 28.553 16.4108 27.8891 16.8703 27.4152C17.2668 26.9977 17.7725 26.7886 18.3869 26.7886C18.902 26.7886 19.3301 26.9042 19.6711 27.1347L19.3361 27.8733C19.1128 27.7113 18.8399 27.6302 18.5176 27.6302C18.1512 27.6302 17.853 27.7706 17.624 28.0507C17.3634 28.3689 17.2336 28.8175 17.2336 29.3975C17.2336 29.9769 17.3668 30.426 17.6334 30.7437C17.8691 31.0306 18.1635 31.1737 18.5178 31.1737C18.8401 31.1737 19.113 31.0928 19.3363 30.9307L19.6711 31.6883Z" fill="white"/>
<path d="M23.9237 31.2771C23.5268 31.7816 22.9805 32.0342 22.2858 32.0342C21.5911 32.0342 21.0453 31.7818 20.6488 31.2771C20.27 30.8034 20.0806 30.1797 20.0806 29.407C20.0806 28.6343 20.27 28.0104 20.6488 27.5369C21.0453 27.0382 21.5911 26.7886 22.2858 26.7886C22.9805 26.7886 23.5268 27.0382 23.9237 27.5369C24.3024 28.0106 24.4915 28.6343 24.4915 29.407C24.4915 30.1797 24.3022 30.8034 23.9237 31.2771ZM23.17 28.0883C22.9651 27.7643 22.6704 27.6023 22.2856 27.6023C21.9012 27.6023 21.6064 27.7643 21.4016 28.0883C21.2032 28.4061 21.1038 28.8427 21.1038 29.3975C21.1038 29.9521 21.2032 30.3884 21.4016 30.7065C21.6064 31.0371 21.9012 31.202 22.2856 31.202C22.6704 31.202 22.9648 31.0371 23.17 30.7065C23.3685 30.3884 23.4678 29.9521 23.4678 29.3975C23.4678 28.8427 23.3685 28.4061 23.17 28.0883Z" fill="white"/>
<path d="M30.9859 31.9315V28.5188C30.9859 28.2321 30.8989 28.0075 30.7253 27.8455C30.5518 27.6897 30.3194 27.612 30.0281 27.612C29.6245 27.612 29.3175 27.724 29.1063 27.9486V31.9317H28.0826V28.4253C28.0826 28.1758 27.9895 27.9766 27.804 27.8268C27.6177 27.6834 27.3695 27.612 27.0589 27.612C26.7178 27.612 26.4328 27.6616 26.2027 27.7616V31.9317H25.1885V27.1444C25.7594 26.9078 26.3615 26.7891 26.9939 26.7891C27.7139 26.7891 28.247 26.9698 28.5941 27.3317C29.0161 26.9698 29.5716 26.7891 30.2602 26.7891C30.7937 26.7891 31.2185 26.936 31.5351 27.2287C31.845 27.5218 32 27.9175 32 28.416V31.9317H30.9859V31.9315Z" fill="white"/>
</svg>
