<svg width="22" height="22" viewBox="0 0 22 22" fill="none" xmlns="http://www.w3.org/2000/svg">
<path d="M11 0.5C5.20156 0.5 0.5 5.20156 0.5 11C0.5 16.7984 5.20156 21.5 11 21.5C16.7984 21.5 21.5 16.7984 21.5 11C21.5 5.20156 16.7984 0.5 11 0.5ZM14.3773 11.1617L9.25859 14.8859C9.23053 14.9061 9.19745 14.9181 9.16299 14.9207C9.12853 14.9233 9.09403 14.9164 9.06327 14.9006C9.03251 14.8849 9.00668 14.861 8.98863 14.8315C8.97057 14.802 8.96099 14.7681 8.96094 14.7336V7.28984C8.96082 7.25522 8.9703 7.22124 8.98832 7.19167C9.00633 7.1621 9.03219 7.1381 9.06301 7.12232C9.09383 7.10654 9.12842 7.09961 9.16295 7.10229C9.19747 7.10497 9.23057 7.11716 9.25859 7.1375L14.3773 10.8594C14.4015 10.8765 14.4213 10.8991 14.4349 10.9254C14.4485 10.9517 14.4556 10.9809 14.4556 11.0105C14.4556 11.0402 14.4485 11.0694 14.4349 11.0957C14.4213 11.122 14.4015 11.1446 14.3773 11.1617Z" fill="#127ACE"/>
</svg>
