<svg width="31" height="28" viewBox="0 0 31 28" fill="none" xmlns="http://www.w3.org/2000/svg">
<path d="M19.0684 20.0323L16.564 19.1975L15.6319 17.3401L15.6736 17.2984C16.4734 16.4875 17.0052 15.4507 17.1971 14.328L17.3153 13.6323H18.331C18.724 13.6323 19.1009 13.4762 19.3787 13.1983C19.6566 12.9204 19.8127 12.5435 19.8127 12.1506V8.83925C19.857 7.79764 19.69 6.75786 19.3219 5.78246C18.9538 4.80707 18.3921 3.91623 17.6707 3.16356C16.9493 2.4109 16.0831 1.81196 15.1242 1.4028C14.1653 0.993642 13.1335 0.782715 12.091 0.782715C11.0484 0.782715 10.0167 0.993642 9.05778 1.4028C8.09887 1.81196 7.23266 2.4109 6.51128 3.16356C5.78989 3.91623 5.22824 4.80707 4.86012 5.78246C4.492 6.75786 4.32503 7.79764 4.36926 8.83925V12.1158C4.37094 12.4221 4.4675 12.7203 4.64564 12.9694C4.82379 13.2186 5.07476 13.4064 5.36404 13.5071H5.41274V14.168C5.41274 14.5609 5.56885 14.9378 5.84673 15.2157C6.12461 15.4936 6.50149 15.6497 6.89447 15.6497H7.4023V15.6984C7.62518 16.1822 7.91561 16.6319 8.26491 17.034L8.48752 17.2706L8.52926 17.3123L7.611 19.1975L5.10665 20.0323C3.65982 20.578 2.41418 21.5526 1.53646 22.8256C0.658743 24.0987 0.190828 25.6095 0.195345 27.1558C0.195338 27.2139 0.2069 27.2715 0.229358 27.3251C0.251817 27.3787 0.284722 27.4274 0.326158 27.4682C0.367594 27.5089 0.416732 27.5411 0.47071 27.5627C0.524688 27.5843 0.582426 27.595 0.640562 27.594H23.5345C23.592 27.594 23.649 27.5827 23.7022 27.5607C23.7554 27.5387 23.8037 27.5064 23.8444 27.4657C23.8851 27.425 23.9174 27.3767 23.9394 27.3235C23.9614 27.2703 23.9727 27.2133 23.9727 27.1558C23.9788 25.6101 23.5123 24.0994 22.6357 22.8263C21.7592 21.5531 20.5145 20.5783 19.0684 20.0323ZM15.771 19.5871V19.6219C15.4465 20.5529 15.0559 21.4595 14.6023 22.3349L14.5536 22.4253L12.6475 20.5332L14.9988 18.0427L15.771 19.5871ZM12.0214 19.8932L10.7623 18.634L11.0197 18.6897C11.647 18.8218 12.2933 18.836 12.9258 18.7314L13.1553 18.6897L12.0214 19.8932ZM18.9293 12.1019C18.9274 12.26 18.8638 12.4111 18.752 12.5229C18.6402 12.6347 18.4891 12.6983 18.331 12.7001H17.4475V12.6097C17.5797 11.5871 17.6632 10.4879 17.698 9.43056V9.2636H18.9084L18.9293 12.1019ZM5.25969 8.31056C5.39413 6.59281 6.17142 4.98893 7.43641 3.81908C8.7014 2.64923 10.361 1.99945 12.084 1.99945C13.807 1.99945 15.4667 2.64923 16.7317 3.81908C17.9967 4.98893 18.7739 6.59281 18.9084 8.31056V8.39404H17.7258V8.31751C17.7103 6.95551 17.1608 5.65402 16.1953 4.69317C15.7159 4.21641 15.1472 3.8389 14.5217 3.58226C13.8962 3.32561 13.2262 3.19487 12.5501 3.19751H11.618C10.2584 3.20468 8.95593 3.7451 7.99066 4.70256C7.0254 5.66003 6.47442 6.95805 6.45621 8.31751V8.39404H5.25969V8.31056ZM5.25969 12.1158V9.27752H6.45621V9.35404C6.45275 9.40964 6.45275 9.46539 6.45621 9.52099C6.491 10.5436 6.57447 11.608 6.70665 12.6166V12.7071H5.84404C5.68657 12.7071 5.53544 12.645 5.42345 12.5343C5.31145 12.4236 5.24761 12.2732 5.24578 12.1158H5.25969ZM6.89447 14.794C6.73581 14.794 6.58364 14.731 6.47144 14.6188C6.35924 14.5066 6.29621 14.3544 6.29621 14.1958V13.6323H6.86665L6.97795 14.328C6.97795 14.4462 7.01969 14.5714 7.05447 14.6966V14.794H6.89447ZM7.36056 7.94186C7.47034 6.88395 7.96714 5.90391 8.75553 5.19C9.54391 4.47608 10.5683 4.07865 11.6319 4.07404H12.564C13.7062 4.07955 14.7996 4.53713 15.6053 5.34669C16.4109 6.15625 16.8632 7.25191 16.8632 8.39404C16.8632 8.55404 16.8632 8.70012 16.8632 8.82534V8.91578H16.7519L16.1049 8.82534C14.3099 8.56419 12.6465 7.7325 11.3606 6.45317C11.2778 6.36945 11.1652 6.32193 11.0475 6.32099C10.3674 6.32321 9.69602 6.47447 9.08066 6.76412C8.46529 7.05377 7.92089 7.47478 7.48578 7.99751L7.31882 8.19925L7.36056 7.94186ZM8.45969 15.7958L8.39013 15.6775H9.6423V15.7332C9.74498 16.0206 9.93352 16.2695 10.1824 16.4462C10.4312 16.6229 10.7284 16.7188 11.0336 16.721H12.0701C12.4631 16.721 12.84 16.5649 13.1179 16.287C13.3958 16.0091 13.5519 15.6322 13.5519 15.2393C13.5519 14.8463 13.3958 14.4694 13.1179 14.1915C12.84 13.9136 12.4631 13.7575 12.0701 13.7575H11.0475C10.7418 13.7577 10.4437 13.8528 10.1945 14.0298C9.94525 14.2068 9.75715 14.4568 9.65621 14.7453V14.794H7.99361V14.7384C7.64065 13.0689 7.43119 11.3723 7.36752 9.66708L8.06317 8.70708C8.38995 8.27116 8.80862 7.91246 9.2895 7.65639C9.77037 7.40033 10.3017 7.25317 10.8458 7.22534H10.8806C12.2802 8.55354 14.0565 9.41617 15.9658 9.69491L16.8006 9.81317V9.88273C16.7546 10.9494 16.6525 12.0129 16.4945 13.0688C16.4945 13.2984 16.4388 13.4653 16.3901 13.7645C16.3901 13.8897 16.3414 14.0288 16.3136 14.2027C16.1678 15.047 15.7951 15.8358 15.2353 16.4845C14.6909 17.1307 13.9632 17.5964 13.1484 17.8201C12.4628 17.9871 11.7471 17.9871 11.0614 17.8201C10.5137 17.6714 10.0007 17.416 9.55185 17.0686C9.103 16.7213 8.72713 16.2887 8.44578 15.7958H8.45969ZM10.4632 15.2393C10.4622 15.1604 10.4771 15.0822 10.5068 15.0092C10.5365 14.9362 10.5806 14.8699 10.6363 14.8141C10.6921 14.7584 10.7584 14.7144 10.8314 14.6846C10.9044 14.6549 10.9826 14.6401 11.0614 14.641H12.098C12.2566 14.641 12.4088 14.704 12.521 14.8162C12.6332 14.9284 12.6962 15.0806 12.6962 15.2393C12.6962 15.3979 12.6332 15.5501 12.521 15.6623C12.4088 15.7745 12.2566 15.8375 12.098 15.8375H11.0475C10.8889 15.8375 10.7367 15.7745 10.6245 15.6623C10.5123 15.5501 10.4493 15.3979 10.4493 15.2393H10.4632ZM9.07187 18.2236L11.3953 20.5471L9.62143 22.4253L9.56578 22.3279C9.1109 21.4556 8.7203 20.5511 8.39708 19.6219V19.5871L9.07187 18.2236ZM1.09274 26.7106V26.6271C1.185 25.3578 1.63801 24.1413 2.39842 23.1208C3.15884 22.1004 4.19501 21.3184 5.38491 20.8671L7.64578 20.1158V20.1853C8.05437 21.2885 8.55709 22.3544 9.14839 23.3714C9.56917 24.1216 10.0337 24.8463 10.5397 25.5419L11.2353 26.6897L1.09274 26.7106ZM12.7171 25.3193C12.6197 25.4862 12.4458 25.7575 12.1536 26.2306L12.084 26.3349L11.2353 25.065C10.818 24.5016 10.5119 23.921 10.1501 23.3158V23.2671L12.098 21.1801L14.1849 23.2671L14.1501 23.3158C13.7891 23.9263 13.4916 24.1962 13.0649 24.7627C13.0649 24.7627 12.8632 25.0688 12.7171 25.2984V25.3193ZM23.0753 26.7106H12.884L13.5797 25.5627C14.1088 24.8643 14.5922 24.1324 15.0266 23.3714C15.606 22.3567 16.0949 21.2929 16.4875 20.1923V20.1227L18.7484 20.874C19.937 21.3265 20.9717 22.1089 21.7308 23.1292C22.4899 24.1496 22.9419 25.3656 23.0336 26.634L23.0753 26.7106Z" fill="#127ACE"/>
<path d="M29.8436 2.75244H22.1358C21.8812 2.75244 21.637 2.85358 21.457 3.03362C21.2769 3.21365 21.1758 3.45783 21.1758 3.71244V6.84288C21.1758 6.96895 21.2006 7.09378 21.2489 7.21025C21.2971 7.32673 21.3678 7.43255 21.457 7.5217C21.5461 7.61084 21.6519 7.68156 21.7684 7.7298C21.8849 7.77805 22.0097 7.80288 22.1358 7.80288H29.8436C29.9697 7.80288 30.0945 7.77805 30.211 7.7298C30.3275 7.68156 30.4333 7.61084 30.5224 7.5217C30.6116 7.43255 30.6823 7.32673 30.7305 7.21025C30.7788 7.09378 30.8036 6.96895 30.8036 6.84288V3.71244C30.8036 3.58637 30.7788 3.46154 30.7305 3.34507C30.6823 3.22859 30.6116 3.12276 30.5224 3.03362C30.4333 2.94447 30.3275 2.87376 30.211 2.82552C30.0945 2.77727 29.9697 2.75244 29.8436 2.75244ZM29.9688 6.84288C29.9688 6.87609 29.9556 6.90794 29.9321 6.93142C29.9087 6.9549 29.8768 6.96809 29.8436 6.96809H22.1358C22.1026 6.96809 22.0707 6.9549 22.0472 6.93142C22.0238 6.90794 22.0106 6.87609 22.0106 6.84288V3.71244C22.0106 3.67923 22.0238 3.64738 22.0472 3.6239C22.0707 3.60042 22.1026 3.58722 22.1358 3.58722H29.8436C29.8768 3.58722 29.9087 3.60042 29.9321 3.6239C29.9556 3.64738 29.9688 3.67923 29.9688 3.71244V6.84288Z" fill="#127ACE"/>
<path d="M29.8438 8.47754H22.136C22.0082 8.47751 21.8816 8.50301 21.7637 8.55256C21.6459 8.6021 21.5391 8.67469 21.4497 8.76605C21.3603 8.85742 21.29 8.96573 21.243 9.08462C21.196 9.20351 21.1732 9.33059 21.176 9.45841V12.5958C21.176 12.8504 21.2772 13.0946 21.4572 13.2746C21.6372 13.4547 21.8814 13.5558 22.136 13.5558H29.8438C29.9723 13.5559 30.0994 13.5301 30.2178 13.4802C30.3361 13.4302 30.4432 13.357 30.5327 13.2649C30.6222 13.1727 30.6923 13.0636 30.7389 12.9439C30.7855 12.8242 30.8076 12.6964 30.8038 12.568V9.45841C30.8066 9.33059 30.7838 9.20351 30.7368 9.08462C30.6898 8.96573 30.6196 8.85742 30.5301 8.76605C30.4407 8.67469 30.334 8.6021 30.2161 8.55256C30.0982 8.50301 29.9717 8.47751 29.8438 8.47754ZM29.9691 12.568C29.9691 12.6012 29.9559 12.633 29.9324 12.6565C29.9089 12.68 29.877 12.6932 29.8438 12.6932H22.136C22.1028 12.6932 22.0709 12.68 22.0475 12.6565C22.024 12.633 22.0108 12.6012 22.0108 12.568V9.45841C22.0126 9.42642 22.0265 9.39633 22.0498 9.37433C22.0731 9.35233 22.104 9.3401 22.136 9.34015H29.8438C29.8759 9.3401 29.9067 9.35233 29.93 9.37433C29.9533 9.39633 29.9673 9.42642 29.9691 9.45841V12.568Z" fill="#127ACE"/>
<path d="M29.8436 14.2027H22.1358C22.01 14.2017 21.8854 14.2257 21.7689 14.2732C21.6525 14.3207 21.5466 14.3907 21.4574 14.4793C21.3681 14.5679 21.2973 14.6733 21.249 14.7894C21.2007 14.9055 21.1758 15.03 21.1758 15.1557V18.2931C21.1758 18.4188 21.2007 18.5433 21.249 18.6594C21.2973 18.7755 21.3681 18.8809 21.4574 18.9695C21.5466 19.0581 21.6525 19.1281 21.7689 19.1756C21.8854 19.2231 22.01 19.2471 22.1358 19.2461H29.8436C29.9693 19.2471 30.094 19.2231 30.2105 19.1756C30.3269 19.1281 30.4328 19.0581 30.522 18.9695C30.6112 18.8809 30.6821 18.7755 30.7304 18.6594C30.7787 18.5433 30.8036 18.4188 30.8036 18.2931V15.1557C30.8036 15.03 30.7787 14.9055 30.7304 14.7894C30.6821 14.6733 30.6112 14.5679 30.522 14.4793C30.4328 14.3907 30.3269 14.3207 30.2105 14.2732C30.094 14.2257 29.9693 14.2017 29.8436 14.2027ZM29.9688 18.2931C29.9688 18.3263 29.9556 18.3582 29.9321 18.3816C29.9087 18.4051 29.8768 18.4183 29.8436 18.4183H22.1358C22.1026 18.4183 22.0707 18.4051 22.0472 18.3816C22.0238 18.3582 22.0106 18.3263 22.0106 18.2931V15.1557C22.0106 15.1225 22.0238 15.0906 22.0472 15.0672C22.0707 15.0437 22.1026 15.0305 22.1358 15.0305H29.8436C29.8768 15.0305 29.9087 15.0437 29.9321 15.0672C29.9556 15.0906 29.9688 15.1225 29.9688 15.1557V18.2931Z" fill="#127ACE"/>
</svg>
