<svg width="15" height="14" viewBox="0 0 15 14" fill="none" xmlns="http://www.w3.org/2000/svg">
<path fill-rule="evenodd" clip-rule="evenodd" d="M12.1888 2.88697L10.398 1.76829L11.0161 0.778809L13.8689 2.56088C14.1154 2.7149 14.2109 3.02694 14.0929 3.29258L12.6664 6.50123L11.6004 6.02731L12.4872 4.03244C10.762 4.16457 9.34327 4.636 8.31033 5.53933C7.08592 6.6101 6.29658 8.38332 6.29658 11.2514H5.12991C5.12991 8.17182 5.98361 6.02423 7.54231 4.66111C8.77878 3.57979 10.3903 3.05351 12.1888 2.88697ZM8.02325 1.25285H1.80067C0.941564 1.25285 0.245117 1.94929 0.245117 2.8084V12.0773C0.245117 12.9364 0.941564 13.6328 1.80067 13.6328H11.0634C11.9225 13.6328 12.619 12.9364 12.619 12.0773V7.21682H11.4523V12.0773C11.4523 12.292 11.2782 12.4662 11.0634 12.4662H1.80067C1.58589 12.4662 1.41179 12.292 1.41179 12.0773V2.8084C1.41179 2.59363 1.58589 2.41951 1.80067 2.41951H8.02325V1.25285Z" fill="white"/>
</svg>
